ISO-10303-21;
HEADER;
FILE_DESCRIPTION(('ViewDefinition [CoordinationView]'),'2;1');
FILE_NAME('','2026-10-09T16:42:39',(''),(''),'IfcOpenShell 0.9.0alpha0-8c614fa','IfcOpenShell 0.9.0alpha0-8c614fa','');
FILE_SCHEMA(('IFC4'));
ENDSEC;
DATA;
#1=IFCSIUNIT(*,.LENGTHUNIT.,$,.METRE.);
#2=IFCUNITASSIGNMENT((#1));
#3=IFCCARTESIANPOINT((0.,0.,0.));
#4=IFCDIRECTION((0.,0.,1.));
#5=IFCDIRECTION((1.,0.,0.));
#6=IFCAXIS2PLACEMENT3D(#3,#4,#5);
#7=IFCGEOMETRICREPRESENTATIONCONTEXT($,'Model',3,1.E-05,#6,$);
#8=IFCPERSON($,'Converter',$,$,$,$,$,$);
#9=IFCORGANIZATION($,'CityJSON-to-IFC',$,$,$);
#10=IFCPERSONANDORGANIZATION(#8,#9,$);
#11=IFCAPPLICATION(#9,'1.0','CityJSON to IFC Converter','cityjson_to_ifc');
#12=IFCOWNERHISTORY(#10,#11,$,.ADDED.,$,$,$,1791544359);
#13=IFCPROJECT('3F7bNg6wHBKfq0y2wwi9J8',#12,'CityJSON Conversion',$,$,$,$,(#7),#2);
#14=IFCLOCALPLACEMENT($,#6);
#15=IFCSITE('1sLYjuj9bEWviNuYAD1CXU',#12,'Site',$,$,#14,$,$,.ELEMENT.,$,$,$,$,$);
#16=IFCLOCALPLACEMENT($,#6);
#17=IFCBUILDING('0fZgeLDiP2VOL0LqcmVEW$',#12,'Building',$,$,#16,$,$,.ELEMENT.,$,$,$);
#18=IFCLOCALPLACEMENT($,#6);
#19=IFCBUILDINGSTOREY('2u23x64pHFbx5sn3n3FDxM',#12,'Storey',$,$,#18,$,$,.ELEMENT.,$);
#20=IFCRELAGGREGATES('0ldQRghE9CIQyS4knGtXb9',#12,$,$,#13,(#15));
#21=IFCRELAGGREGATES('3YJRcaVZDFSRyQbhvidT19',#12,$,$,#15,(#17));
#22=IFCRELAGGREGATES('2aVBejNIf0XhbaECk0eAzb',#12,$,$,#17,(#19));
#23=IFCLOCALPLACEMENT($,#6);
#24=IFCBUILDINGELEMENTPROXY('3mMLPCYCX3wxhz5lE89ZWc',#12,'Building1',$,'Building',#23,$,$,$);
#25=IFCINDEXEDPOLYGONALFACE((1,2,3,4));
#26=IFCINDEXEDPOLYGONALFACE((5,6,7,8));
#27=IFCINDEXEDPOLYGONALFACE((1,5,8,2));
#28=IFCINDEXEDPOLYGONALFACE((2,8,7,3));
#29=IFCINDEXEDPOLYGONALFACE((3,7,6,4));
#30=IFCINDEXEDPOLYGONALFACE((4,6,5,1));
#31=IFCCARTESIANPOINTLIST3D(((0.,0.,-4.57),(60.96,0.,-4.57),(60.96,36.58,-4.57),(0.,36.58,-4.57),(0.,0.,-4.2700000000000005),(0.,36.58,-4.2700000000000005),(60.96,36.58,-4.2700000000000005),(60.96,0.,-4.2700000000000005)));
#32=IFCPOLYGONALFACESET(#31,.T.,(#25,#26,#27,#28,#29,#30),$);
#33=IFCCOLOURRGB($,0.75,0.75,0.75);
#34=IFCSURFACESTYLERENDERING(#33,0.,$,$,$,$,$,$,.NOTDEFINED.);
#35=IFCSURFACESTYLE('Slab - Concrete',.BOTH.,(#34));
#36=IFCSTYLEDITEM(#32,(#35),$);
#37=IFCSHAPEREPRESENTATION(#7,'Body','Tessellation',(#32));
#38=IFCPRODUCTDEFINITIONSHAPE($,$,(#37));
#39=IFCLOCALPLACEMENT($,#6);
#40=IFCBUILDINGELEMENTPROXY('0e0l2mlan58OM5OKld6Irm',#12,'Basement_Slab_1',$,'BuildingPart',#39,#38,$,$);
#41=IFCINDEXEDPOLYGONALFACE((1,2,3,4));
#42=IFCINDEXEDPOLYGONALFACE((5,6,7,8));
#43=IFCINDEXEDPOLYGONALFACE((1,5,8,2));
#44=IFCINDEXEDPOLYGONALFACE((2,8,7,3));
#45=IFCINDEXEDPOLYGONALFACE((3,7,6,4));
#46=IFCINDEXEDPOLYGONALFACE((4,6,5,1));
#47=IFCCARTESIANPOINTLIST3D(((5.,5.,-4.57),(5.6,5.,-4.57),(5.6,5.6,-4.57),(5.,5.6,-4.57),(5.,5.,0.),(5.,5.6,0.),(5.6,5.6,0.),(5.6,5.,0.)));
#48=IFCPOLYGONALFACESET(#47,.T.,(#41,#42,#43,#44,#45,#46),$);
#49=IFCCOLOURRGB($,0.75,0.75,0.75);
#50=IFCSURFACESTYLERENDERING(#49,0.,$,$,$,$,$,$,.NOTDEFINED.);
#51=IFCSURFACESTYLE('Column - Concrete',.BOTH.,(#50));
#52=IFCSTYLEDITEM(#48,(#51),$);
#53=IFCSHAPEREPRESENTATION(#7,'Body','Tessellation',(#48));
#54=IFCPRODUCTDEFINITIONSHAPE($,$,(#53));
#55=IFCLOCALPLACEMENT($,#6);
#56=IFCBUILDINGELEMENTPROXY('2NsCU16jj4_8$hZ93Byq4D',#12,'Column_B_1',$,'BuildingPart',#55,#54,$,$);
#57=IFCINDEXEDPOLYGONALFACE((1,2,3,4));
#58=IFCINDEXEDPOLYGONALFACE((5,6,7,8));
#59=IFCINDEXEDPOLYGONALFACE((1,5,8,2));
#60=IFCINDEXEDPOLYGONALFACE((2,8,7,3));
#61=IFCINDEXEDPOLYGONALFACE((3,7,6,4));
#62=IFCINDEXEDPOLYGONALFACE((4,6,5,1));
#63=IFCCARTESIANPOINTLIST3D(((15.,5.,-4.57),(15.6,5.,-4.57),(15.6,5.6,-4.57),(15.,5.6,-4.57),(15.,5.,0.),(15.,5.6,0.),(15.6,5.6,0.),(15.6,5.,0.)));
#64=IFCPOLYGONALFACESET(#63,.T.,(#57,#58,#59,#60,#61,#62),$);
#65=IFCSTYLEDITEM(#64,(#51),$);
#66=IFCSHAPEREPRESENTATION(#7,'Body','Tessellation',(#64));
#67=IFCPRODUCTDEFINITIONSHAPE($,$,(#66));
#68=IFCLOCALPLACEMENT($,#6);
#69=IFCBUILDINGELEMENTPROXY('2txewOMmz7VRlHVcYQ_wIT',#12,'Column_B_2',$,'BuildingPart',#68,#67,$,$);
#70=IFCINDEXEDPOLYGONALFACE((1,2,3,4));
#71=IFCINDEXEDPOLYGONALFACE((5,6,7,8));
#72=IFCINDEXEDPOLYGONALFACE((1,5,8,2));
#73=IFCINDEXEDPOLYGONALFACE((2,8,7,3));
#74=IFCINDEXEDPOLYGONALFACE((3,7,6,4));
#75=IFCINDEXEDPOLYGONALFACE((4,6,5,1));
#76=IFCCARTESIANPOINTLIST3D(((25.,5.,-4.57),(25.6,5.,-4.57),(25.6,5.6,-4.57),(25.,5.6,-4.57),(25.,5.,0.),(25.,5.6,0.),(25.6,5.6,0.),(25.6,5.,0.)));
#77=IFCPOLYGONALFACESET(#76,.T.,(#70,#71,#72,#73,#74,#75),$);
#78=IFCSTYLEDITEM(#77,(#51),$);
#79=IFCSHAPEREPRESENTATION(#7,'Body','Tessellation',(#77));
#80=IFCPRODUCTDEFINITIONSHAPE($,$,(#79));
#81=IFCLOCALPLACEMENT($,#6);
#82=IFCBUILDINGELEMENTPROXY('3Ugq$JNmf5uBHlUe4Z0DXK',#12,'Column_B_3',$,'BuildingPart',#81,#80,$,$);
#83=IFCINDEXEDPOLYGONALFACE((1,2,3,4));
#84=IFCINDEXEDPOLYGONALFACE((5,6,7,8));
#85=IFCINDEXEDPOLYGONALFACE((1,5,8,2));
#86=IFCINDEXEDPOLYGONALFACE((2,8,7,3));
#87=IFCINDEXEDPOLYGONALFACE((3,7,6,4));
#88=IFCINDEXEDPOLYGONALFACE((4,6,5,1));
#89=IFCCARTESIANPOINTLIST3D(((35.,5.,-4.57),(35.6,5.,-4.57),(35.6,5.6,-4.57),(35.,5.6,-4.57),(35.,5.,0.),(35.,5.6,0.),(35.6,5.6,0.),(35.6,5.,0.)));
#90=IFCPOLYGONALFACESET(#89,.T.,(#83,#84,#85,#86,#87,#88),$);
#91=IFCSTYLEDITEM(#90,(#51),$);
#92=IFCSHAPEREPRESENTATION(#7,'Body','Tessellation',(#90));
#93=IFCPRODUCTDEFINITIONSHAPE($,$,(#92));
#94=IFCLOCALPLACEMENT($,#6);
#95=IFCBUILDINGELEMENTPROXY('3UkAYy2Kj8UwSCFa0eLd3u',#12,'Column_B_4',$,'BuildingPart',#94,#93,$,$);
#96=IFCINDEXEDPOLYGONALFACE((1,2,3,4));
#97=IFCINDEXEDPOLYGONALFACE((5,6,7,8));
#98=IFCINDEXEDPOLYGONALFACE((1,5,8,2));
#99=IFCINDEXEDPOLYGONALFACE((2,8,7,3));
#100=IFCINDEXEDPOLYGONALFACE((3,7,6,4));
#101=IFCINDEXEDPOLYGONALFACE((4,6,5,1));
#102=IFCCARTESIANPOINTLIST3D(((45.,5.,-4.57),(45.6,5.,-4.57),(45.6,5.6,-4.57),(45.,5.6,-4.57),(45.,5.,0.),(45.,5.6,0.),(45.6,5.6,0.),(45.6,5.,0.)));
#103=IFCPOLYGONALFACESET(#102,.T.,(#96,#97,#98,#99,#100,#101),$);
#104=IFCSTYLEDITEM(#103,(#51),$);
#105=IFCSHAPEREPRESENTATION(#7,'Body','Tessellation',(#103));
#106=IFCPRODUCTDEFINITIONSHAPE($,$,(#105));
#107=IFCLOCALPLACEMENT($,#6);
#108=IFCBUILDINGELEMENTPROXY('28q0wTLtH4IRBd3C03NxSU',#12,'Column_B_5',$,'BuildingPart',#107,#106,$,$);
#109=IFCINDEXEDPOLYGONALFACE((1,2,3,4));
#110=IFCINDEXEDPOLYGONALFACE((5,6,7,8));
#111=IFCINDEXEDPOLYGONALFACE((1,5,8,2));
#112=IFCINDEXEDPOLYGONALFACE((2,8,7,3));
#113=IFCINDEXEDPOLYGONALFACE((3,7,6,4));
#114=IFCINDEXEDPOLYGONALFACE((4,6,5,1));
#115=IFCCARTESIANPOINTLIST3D(((55.,5.,-4.57),(55.6,5.,-4.57),(55.6,5.6,-4.57),(55.,5.6,-4.57),(55.,5.,0.),(55.,5.6,0.),(55.6,5.6,0.),(55.6,5.,0.)));
#116=IFCPOLYGONALFACESET(#115,.T.,(#109,#110,#111,#112,#113,#114),$);
#117=IFCSTYLEDITEM(#116,(#51),$);
#118=IFCSHAPEREPRESENTATION(#7,'Body','Tessellation',(#116));
#119=IFCPRODUCTDEFINITIONSHAPE($,$,(#118));
#120=IFCLOCALPLACEMENT($,#6);
#121=IFCBUILDINGELEMENTPROXY('12Ci_8Xmr9reH8buZEyFd4',#12,'Column_B_6',$,'BuildingPart',#120,#119,$,$);
#122=IFCINDEXEDPOLYGONALFACE((1,2,3,4));
#123=IFCINDEXEDPOLYGONALFACE((5,6,7,8));
#124=IFCINDEXEDPOLYGONALFACE((1,5,8,2));
#125=IFCINDEXEDPOLYGONALFACE((2,8,7,3));
#126=IFCINDEXEDPOLYGONALFACE((3,7,6,4));
#127=IFCINDEXEDPOLYGONALFACE((4,6,5,1));
#128=IFCCARTESIANPOINTLIST3D(((5.,14.,-4.57),(5.6,14.,-4.57),(5.6,14.6,-4.57),(5.,14.6,-4.57),(5.,14.,0.),(5.,14.6,0.),(5.6,14.6,0.),(5.6,14.,0.)));
#129=IFCPOLYGONALFACESET(#128,.T.,(#122,#123,#124,#125,#126,#127),$);
#130=IFCSTYLEDITEM(#129,(#51),$);
#131=IFCSHAPEREPRESENTATION(#7,'Body','Tessellation',(#129));
#132=IFCPRODUCTDEFINITIONSHAPE($,$,(#131));
#133=IFCLOCALPLACEMENT($,#6);
#134=IFCBUILDINGELEMENTPROXY('2vx4riVa9ADO49KZeXdwrZ',#12,'Column_B_7',$,'BuildingPart',#133,#132,$,$);
#135=IFCINDEXEDPOLYGONALFACE((1,2,3,4));
#136=IFCINDEXEDPOLYGONALFACE((5,6,7,8));
#137=IFCINDEXEDPOLYGONALFACE((1,5,8,2));
#138=IFCINDEXEDPOLYGONALFACE((2,8,7,3));
#139=IFCINDEXEDPOLYGONALFACE((3,7,6,4));
#140=IFCINDEXEDPOLYGONALFACE((4,6,5,1));
#141=IFCCARTESIANPOINTLIST3D(((15.,14.,-4.57),(15.6,14.,-4.57),(15.6,14.6,-4.57),(15.,14.6,-4.57),(15.,14.,0.),(15.,14.6,0.),(15.6,14.6,0.),(15.6,14.,0.)));
#142=IFCPOLYGONALFACESET(#141,.T.,(#135,#136,#137,#138,#139,#140),$);
#143=IFCSTYLEDITEM(#142,(#51),$);
#144=IFCSHAPEREPRESENTATION(#7,'Body','Tessellation',(#142));
#145=IFCPRODUCTDEFINITIONSHAPE($,$,(#144));
#146=IFCLOCALPLACEMENT($,#6);
#147=IFCBUILDINGELEMENTPROXY('1A8HJvU4fA1w3P5FS9I0co',#12,'Column_B_8',$,'BuildingPart',#146,#145,$,$);
#148=IFCINDEXEDPOLYGONALFACE((1,2,3,4));
#149=IFCINDEXEDPOLYGONALFACE((5,6,7,8));
#150=IFCINDEXEDPOLYGONALFACE((1,5,8,2));
#151=IFCINDEXEDPOLYGONALFACE((2,8,7,3));
#152=IFCINDEXEDPOLYGONALFACE((3,7,6,4));
#153=IFCINDEXEDPOLYGONALFACE((4,6,5,1));
#154=IFCCARTESIANPOINTLIST3D(((25.,14.,-4.57),(25.6,14.,-4.57),(25.6,14.6,-4.57),(25.,14.6,-4.57),(25.,14.,0.),(25.,14.6,0.),(25.6,14.6,0.),(25.6,14.,0.)));
#155=IFCPOLYGONALFACESET(#154,.T.,(#148,#149,#150,#151,#152,#153),$);
#156=IFCSTYLEDITEM(#155,(#51),$);
#157=IFCSHAPEREPRESENTATION(#7,'Body','Tessellation',(#155));
#158=IFCPRODUCTDEFINITIONSHAPE($,$,(#157));
#159=IFCLOCALPLACEMENT($,#6);
#160=IFCBUILDINGELEMENTPROXY('2UopNk0_T369rxpb53mi74',#12,'Column_B_9',$,'BuildingPart',#159,#158,$,$);
#161=IFCINDEXEDPOLYGONALFACE((1,2,3,4));
#162=IFCINDEXEDPOLYGONALFACE((5,6,7,8));
#163=IFCINDEXEDPOLYGONALFACE((1,5,8,2));
#164=IFCINDEXEDPOLYGONALFACE((2,8,7,3));
#165=IFCINDEXEDPOLYGONALFACE((3,7,6,4));
#166=IFCINDEXEDPOLYGONALFACE((4,6,5,1));
#167=IFCCARTESIANPOINTLIST3D(((35.,14.,-4.57),(35.6,14.,-4.57),(35.6,14.6,-4.57),(35.,14.6,-4.57),(35.,14.,0.),(35.,14.6,0.),(35.6,14.6,0.),(35.6,14.,0.)));
#168=IFCPOLYGONALFACESET(#167,.T.,(#161,#162,#163,#164,#165,#166),$);
#169=IFCSTYLEDITEM(#168,(#51),$);
#170=IFCSHAPEREPRESENTATION(#7,'Body','Tessellation',(#168));
#171=IFCPRODUCTDEFINITIONSHAPE($,$,(#170));
#172=IFCLOCALPLACEMENT($,#6);
#173=IFCBUILDINGELEMENTPROXY('0bDV1ZThLCnhFz80HvW07B',#12,'Column_B_10',$,'BuildingPart',#172,#171,$,$);
#174=IFCINDEXEDPOLYGONALFACE((1,2,3,4));
#175=IFCINDEXEDPOLYGONALFACE((5,6,7,8));
#176=IFCINDEXEDPOLYGONALFACE((1,5,8,2));
#177=IFCINDEXEDPOLYGONALFACE((2,8,7,3));
#178=IFCINDEXEDPOLYGONALFACE((3,7,6,4));
#179=IFCINDEXEDPOLYGONALFACE((4,6,5,1));
#180=IFCCARTESIANPOINTLIST3D(((45.,14.,-4.57),(45.6,14.,-4.57),(45.6,14.6,-4.57),(45.,14.6,-4.57),(45.,14.,0.),(45.,14.6,0.),(45.6,14.6,0.),(45.6,14.,0.)));
#181=IFCPOLYGONALFACESET(#180,.T.,(#174,#175,#176,#177,#178,#179),$);
#182=IFCSTYLEDITEM(#181,(#51),$);
#183=IFCSHAPEREPRESENTATION(#7,'Body','Tessellation',(#181));
#184=IFCPRODUCTDEFINITIONSHAPE($,$,(#183));
#185=IFCLOCALPLACEMENT($,#6);
#186=IFCBUILDINGELEMENTPROXY('2EkZ5KNOn3NRxm6baiJX6p',#12,'Column_B_11',$,'BuildingPart',#185,#184,$,$);
#187=IFCINDEXEDPOLYGONALFACE((1,2,3,4));
#188=IFCINDEXEDPOLYGONALFACE((5,6,7,8));
#189=IFCINDEXEDPOLYGONALFACE((1,5,8,2));
#190=IFCINDEXEDPOLYGONALFACE((2,8,7,3));
#191=IFCINDEXEDPOLYGONALFACE((3,7,6,4));
#192=IFCINDEXEDPOLYGONALFACE((4,6,5,1));
#193=IFCCARTESIANPOINTLIST3D(((55.,14.,-4.57),(55.6,14.,-4.57),(55.6,14.6,-4.57),(55.,14.6,-4.57),(55.,14.,0.),(55.,14.6,0.),(55.6,14.6,0.),(55.6,14.,0.)));
#194=IFCPOLYGONALFACESET(#193,.T.,(#187,#188,#189,#190,#191,#192),$);
#195=IFCSTYLEDITEM(#194,(#51),$);
#196=IFCSHAPEREPRESENTATION(#7,'Body','Tessellation',(#194));
#197=IFCPRODUCTDEFINITIONSHAPE($,$,(#196));
#198=IFCLOCALPLACEMENT($,#6);
#199=IFCBUILDINGELEMENTPROXY('1S6aJKX49Dk9LGjmaII$r5',#12,'Column_B_12',$,'BuildingPart',#198,#197,$,$);
#200=IFCINDEXEDPOLYGONALFACE((1,2,3,4));
#201=IFCINDEXEDPOLYGONALFACE((5,6,7,8));
#202=IFCINDEXEDPOLYGONALFACE((1,5,8,2));
#203=IFCINDEXEDPOLYGONALFACE((2,8,7,3));
#204=IFCINDEXEDPOLYGONALFACE((3,7,6,4));
#205=IFCINDEXEDPOLYGONALFACE((4,6,5,1));
#206=IFCCARTESIANPOINTLIST3D(((5.,22.,-4.57),(5.6,22.,-4.57),(5.6,22.6,-4.57),(5.,22.6,-4.57),(5.,22.,0.),(5.,22.6,0.),(5.6,22.6,0.),(5.6,22.,0.)));
#207=IFCPOLYGONALFACESET(#206,.T.,(#200,#201,#202,#203,#204,#205),$);
#208=IFCSTYLEDITEM(#207,(#51),$);
#209=IFCSHAPEREPRESENTATION(#7,'Body','Tessellation',(#207));
#210=IFCPRODUCTDEFINITIONSHAPE($,$,(#209));
#211=IFCLOCALPLACEMENT($,#6);
#212=IFCBUILDINGELEMENTPROXY('1PjkKgmlD9SR9kAs9Nt_9d',#12,'Column_B_13',$,'BuildingPart',#211,#210,$,$);
#213=IFCINDEXEDPOLYGONALFACE((1,2,3,4));
#214=IFCINDEXEDPOLYGONALFACE((5,6,7,8));
#215=IFCINDEXEDPOLYGONALFACE((1,5,8,2));
#216=IFCINDEXEDPOLYGONALFACE((2,8,7,3));
#217=IFCINDEXEDPOLYGONALFACE((3,7,6,4));
#218=IFCINDEXEDPOLYGONALFACE((4,6,5,1));
#219=IFCCARTESIANPOINTLIST3D(((15.,22.,-4.57),(15.6,22.,-4.57),(15.6,22.6,-4.57),(15.,22.6,-4.57),(15.,22.,0.),(15.,22.6,0.),(15.6,22.6,0.),(15.6,22.,0.)));
#220=IFCPOLYGONALFACESET(#219,.T.,(#213,#214,#215,#216,#217,#218),$);
#221=IFCSTYLEDITEM(#220,(#51),$);
#222=IFCSHAPEREPRESENTATION(#7,'Body','Tessellation',(#220));
#223=IFCPRODUCTDEFINITIONSHAPE($,$,(#222));
#224=IFCLOCALPLACEMENT($,#6);
#225=IFCBUILDINGELEMENTPROXY('3dsnDLkXbFSvgaXLxvFR8V',#12,'Column_B_14',$,'BuildingPart',#224,#223,$,$);
#226=IFCINDEXEDPOLYGONALFACE((1,2,3,4));
#227=IFCINDEXEDPOLYGONALFACE((5,6,7,8));
#228=IFCINDEXEDPOLYGONALFACE((1,5,8,2));
#229=IFCINDEXEDPOLYGONALFACE((2,8,7,3));
#230=IFCINDEXEDPOLYGONALFACE((3,7,6,4));
#231=IFCINDEXEDPOLYGONALFACE((4,6,5,1));
#232=IFCCARTESIANPOINTLIST3D(((25.,22.,-4.57),(25.6,22.,-4.57),(25.6,22.6,-4.57),(25.,22.6,-4.57),(25.,22.,0.),(25.,22.6,0.),(25.6,22.6,0.),(25.6,22.,0.)));
#233=IFCPOLYGONALFACESET(#232,.T.,(#226,#227,#228,#229,#230,#231),$);
#234=IFCSTYLEDITEM(#233,(#51),$);
#235=IFCSHAPEREPRESENTATION(#7,'Body','Tessellation',(#233));
#236=IFCPRODUCTDEFINITIONSHAPE($,$,(#235));
#237=IFCLOCALPLACEMENT($,#6);
#238=IFCBUILDINGELEMENTPROXY('1$rDQ0HJXDwuKpd2v8hfsQ',#12,'Column_B_15',$,'BuildingPart',#237,#236,$,$);
#239=IFCINDEXEDPOLYGONALFACE((1,2,3,4));
#240=IFCINDEXEDPOLYGONALFACE((5,6,7,8));
#241=IFCINDEXEDPOLYGONALFACE((1,5,8,2));
#242=IFCINDEXEDPOLYGONALFACE((2,8,7,3));
#243=IFCINDEXEDPOLYGONALFACE((3,7,6,4));
#244=IFCINDEXEDPOLYGONALFACE((4,6,5,1));
#245=IFCCARTESIANPOINTLIST3D(((35.,22.,-4.57),(35.6,22.,-4.57),(35.6,22.6,-4.57),(35.,22.6,-4.57),(35.,22.,0.),(35.,22.6,0.),(35.6,22.6,0.),(35.6,22.,0.)));
#246=IFCPOLYGONALFACESET(#245,.T.,(#239,#240,#241,#242,#243,#244),$);
#247=IFCSTYLEDITEM(#246,(#51),$);
#248=IFCSHAPEREPRESENTATION(#7,'Body','Tessellation',(#246));
#249=IFCPRODUCTDEFINITIONSHAPE($,$,(#248));
#250=IFCLOCALPLACEMENT($,#6);
#251=IFCBUILDINGELEMENTPROXY('32Kz9olmzCKAbl7MxikeSQ',#12,'Column_B_16',$,'BuildingPart',#250,#249,$,$);
#252=IFCINDEXEDPOLYGONALFACE((1,2,3,4));
#253=IFCINDEXEDPOLYGONALFACE((5,6,7,8));
#254=IFCINDEXEDPOLYGONALFACE((1,5,8,2));
#255=IFCINDEXEDPOLYGONALFACE((2,8,7,3));
#256=IFCINDEXEDPOLYGONALFACE((3,7,6,4));
#257=IFCINDEXEDPOLYGONALFACE((4,6,5,1));
#258=IFCCARTESIANPOINTLIST3D(((45.,22.,-4.57),(45.6,22.,-4.57),(45.6,22.6,-4.57),(45.,22.6,-4.57),(45.,22.,0.),(45.,22.6,0.),(45.6,22.6,0.),(45.6,22.,0.)));
#259=IFCPOLYGONALFACESET(#258,.T.,(#252,#253,#254,#255,#256,#257),$);
#260=IFCSTYLEDITEM(#259,(#51),$);
#261=IFCSHAPEREPRESENTATION(#7,'Body','Tessellation',(#259));
#262=IFCPRODUCTDEFINITIONSHAPE($,$,(#261));
#263=IFCLOCALPLACEMENT($,#6);
#264=IFCBUILDINGELEMENTPROXY('2Du$3nPN5BC9OerfQdojhn',#12,'Column_B_17',$,'BuildingPart',#263,#262,$,$);
#265=IFCINDEXEDPOLYGONALFACE((1,2,3,4));
#266=IFCINDEXEDPOLYGONALFACE((5,6,7,8));
#267=IFCINDEXEDPOLYGONALFACE((1,5,8,2));
#268=IFCINDEXEDPOLYGONALFACE((2,8,7,3));
#269=IFCINDEXEDPOLYGONALFACE((3,7,6,4));
#270=IFCINDEXEDPOLYGONALFACE((4,6,5,1));
#271=IFCCARTESIANPOINTLIST3D(((55.,22.,-4.57),(55.6,22.,-4.57),(55.6,22.6,-4.57),(55.,22.6,-4.57),(55.,22.,0.),(55.,22.6,0.),(55.6,22.6,0.),(55.6,22.,0.)));
#272=IFCPOLYGONALFACESET(#271,.T.,(#265,#266,#267,#268,#269,#270),$);
#273=IFCSTYLEDITEM(#272,(#51),$);
#274=IFCSHAPEREPRESENTATION(#7,'Body','Tessellation',(#272));
#275=IFCPRODUCTDEFINITIONSHAPE($,$,(#274));
#276=IFCLOCALPLACEMENT($,#6);
#277=IFCBUILDINGELEMENTPROXY('32duCxfq92aBWtsXIELL7s',#12,'Column_B_18',$,'BuildingPart',#276,#275,$,$);
#278=IFCINDEXEDPOLYGONALFACE((1,2,3,4));
#279=IFCINDEXEDPOLYGONALFACE((5,6,7,8));
#280=IFCINDEXEDPOLYGONALFACE((1,5,8,2));
#281=IFCINDEXEDPOLYGONALFACE((2,8,7,3));
#282=IFCINDEXEDPOLYGONALFACE((3,7,6,4));
#283=IFCINDEXEDPOLYGONALFACE((4,6,5,1));
#284=IFCCARTESIANPOINTLIST3D(((5.,31.,-4.57),(5.6,31.,-4.57),(5.6,31.6,-4.57),(5.,31.6,-4.57),(5.,31.,0.),(5.,31.6,0.),(5.6,31.6,0.),(5.6,31.,0.)));
#285=IFCPOLYGONALFACESET(#284,.T.,(#278,#279,#280,#281,#282,#283),$);
#286=IFCSTYLEDITEM(#285,(#51),$);
#287=IFCSHAPEREPRESENTATION(#7,'Body','Tessellation',(#285));
#288=IFCPRODUCTDEFINITIONSHAPE($,$,(#287));
#289=IFCLOCALPLACEMENT($,#6);
#290=IFCBUILDINGELEMENTPROXY('1VB6f4U9HDOemlcjhU2pmX',#12,'Column_B_19',$,'BuildingPart',#289,#288,$,$);
#291=IFCINDEXEDPOLYGONALFACE((1,2,3,4));
#292=IFCINDEXEDPOLYGONALFACE((5,6,7,8));
#293=IFCINDEXEDPOLYGONALFACE((1,5,8,2));
#294=IFCINDEXEDPOLYGONALFACE((2,8,7,3));
#295=IFCINDEXEDPOLYGONALFACE((3,7,6,4));
#296=IFCINDEXEDPOLYGONALFACE((4,6,5,1));
#297=IFCCARTESIANPOINTLIST3D(((15.,31.,-4.57),(15.6,31.,-4.57),(15.6,31.6,-4.57),(15.,31.6,-4.57),(15.,31.,0.),(15.,31.6,0.),(15.6,31.6,0.),(15.6,31.,0.)));
#298=IFCPOLYGONALFACESET(#297,.T.,(#291,#292,#293,#294,#295,#296),$);
#299=IFCSTYLEDITEM(#298,(#51),$);
#300=IFCSHAPEREPRESENTATION(#7,'Body','Tessellation',(#298));
#301=IFCPRODUCTDEFINITIONSHAPE($,$,(#300));
#302=IFCLOCALPLACEMENT($,#6);
#303=IFCBUILDINGELEMENTPROXY('2Klkn3QJTDdvsMeL2zRdZ_',#12,'Column_B_20',$,'BuildingPart',#302,#301,$,$);
#304=IFCINDEXEDPOLYGONALFACE((1,2,3,4));
#305=IFCINDEXEDPOLYGONALFACE((5,6,7,8));
#306=IFCINDEXEDPOLYGONALFACE((1,5,8,2));
#307=IFCINDEXEDPOLYGONALFACE((2,8,7,3));
#308=IFCINDEXEDPOLYGONALFACE((3,7,6,4));
#309=IFCINDEXEDPOLYGONALFACE((4,6,5,1));
#310=IFCCARTESIANPOINTLIST3D(((25.,31.,-4.57),(25.6,31.,-4.57),(25.6,31.6,-4.57),(25.,31.6,-4.57),(25.,31.,0.),(25.,31.6,0.),(25.6,31.6,0.),(25.6,31.,0.)));
#311=IFCPOLYGONALFACESET(#310,.T.,(#304,#305,#306,#307,#308,#309),$);
#312=IFCSTYLEDITEM(#311,(#51),$);
#313=IFCSHAPEREPRESENTATION(#7,'Body','Tessellation',(#311));
#314=IFCPRODUCTDEFINITIONSHAPE($,$,(#313));
#315=IFCLOCALPLACEMENT($,#6);
#316=IFCBUILDINGELEMENTPROXY('0M1QVW1JfBPuZ9xNsElAr$',#12,'Column_B_21',$,'BuildingPart',#315,#314,$,$);
#317=IFCINDEXEDPOLYGONALFACE((1,2,3,4));
#318=IFCINDEXEDPOLYGONALFACE((5,6,7,8));
#319=IFCINDEXEDPOLYGONALFACE((1,5,8,2));
#320=IFCINDEXEDPOLYGONALFACE((2,8,7,3));
#321=IFCINDEXEDPOLYGONALFACE((3,7,6,4));
#322=IFCINDEXEDPOLYGONALFACE((4,6,5,1));
#323=IFCCARTESIANPOINTLIST3D(((35.,31.,-4.57),(35.6,31.,-4.57),(35.6,31.6,-4.57),(35.,31.6,-4.57),(35.,31.,0.),(35.,31.6,0.),(35.6,31.6,0.),(35.6,31.,0.)));
#324=IFCPOLYGONALFACESET(#323,.T.,(#317,#318,#319,#320,#321,#322),$);
#325=IFCSTYLEDITEM(#324,(#51),$);
#326=IFCSHAPEREPRESENTATION(#7,'Body','Tessellation',(#324));
#327=IFCPRODUCTDEFINITIONSHAPE($,$,(#326));
#328=IFCLOCALPLACEMENT($,#6);
#329=IFCBUILDINGELEMENTPROXY('233GdKAUP2GP4MIvW7iu5f',#12,'Column_B_22',$,'BuildingPart',#328,#327,$,$);
#330=IFCINDEXEDPOLYGONALFACE((1,2,3,4));
#331=IFCINDEXEDPOLYGONALFACE((5,6,7,8));
#332=IFCINDEXEDPOLYGONALFACE((1,5,8,2));
#333=IFCINDEXEDPOLYGONALFACE((2,8,7,3));
#334=IFCINDEXEDPOLYGONALFACE((3,7,6,4));
#335=IFCINDEXEDPOLYGONALFACE((4,6,5,1));
#336=IFCCARTESIANPOINTLIST3D(((45.,31.,-4.57),(45.6,31.,-4.57),(45.6,31.6,-4.57),(45.,31.6,-4.57),(45.,31.,0.),(45.,31.6,0.),(45.6,31.6,0.),(45.6,31.,0.)));
#337=IFCPOLYGONALFACESET(#336,.T.,(#330,#331,#332,#333,#334,#335),$);
#338=IFCSTYLEDITEM(#337,(#51),$);
#339=IFCSHAPEREPRESENTATION(#7,'Body','Tessellation',(#337));
#340=IFCPRODUCTDEFINITIONSHAPE($,$,(#339));
#341=IFCLOCALPLACEMENT($,#6);
#342=IFCBUILDINGELEMENTPROXY('3qHxEeulP8iQr3odTAZfEf',#12,'Column_B_23',$,'BuildingPart',#341,#340,$,$);
#343=IFCINDEXEDPOLYGONALFACE((1,2,3,4));
#344=IFCINDEXEDPOLYGONALFACE((5,6,7,8));
#345=IFCINDEXEDPOLYGONALFACE((1,5,8,2));
#346=IFCINDEXEDPOLYGONALFACE((2,8,7,3));
#347=IFCINDEXEDPOLYGONALFACE((3,7,6,4));
#348=IFCINDEXEDPOLYGONALFACE((4,6,5,1));
#349=IFCCARTESIANPOINTLIST3D(((55.,31.,-4.57),(55.6,31.,-4.57),(55.6,31.6,-4.57),(55.,31.6,-4.57),(55.,31.,0.),(55.,31.6,0.),(55.6,31.6,0.),(55.6,31.,0.)));
#350=IFCPOLYGONALFACESET(#349,.T.,(#343,#344,#345,#346,#347,#348),$);
#351=IFCSTYLEDITEM(#350,(#51),$);
#352=IFCSHAPEREPRESENTATION(#7,'Body','Tessellation',(#350));
#353=IFCPRODUCTDEFINITIONSHAPE($,$,(#352));
#354=IFCLOCALPLACEMENT($,#6);
#355=IFCBUILDINGELEMENTPROXY('0JHHLGyLvDJvw_nR46qqPo',#12,'Column_B_24',$,'BuildingPart',#354,#353,$,$);
#356=IFCINDEXEDPOLYGONALFACE((1,2,3,4));
#357=IFCINDEXEDPOLYGONALFACE((1,4,5));
#358=IFCINDEXEDPOLYGONALFACE((2,6,3));
#359=IFCINDEXEDPOLYGONALFACE((4,3,6,5));
#360=IFCINDEXEDPOLYGONALFACE((1,5,6,2));
#361=IFCCARTESIANPOINTLIST3D(((35.,30.,-4.57),(35.,36.,-4.57),(60.,36.,-4.57),(60.,30.,-4.57),(60.,30.,0.),(60.,36.,0.)));
#362=IFCPOLYGONALFACESET(#361,.T.,(#356,#357,#358,#359,#360),$);
#363=IFCCOLOURRGB($,0.7,0.7,0.7);
#364=IFCSURFACESTYLERENDERING(#363,0.,$,$,$,$,$,$,.NOTDEFINED.);
#365=IFCSURFACESTYLE('Generic Element',.BOTH.,(#364));
#366=IFCSTYLEDITEM(#362,(#365),$);
#367=IFCSHAPEREPRESENTATION(#7,'Body','Tessellation',(#362));
#368=IFCPRODUCTDEFINITIONSHAPE($,$,(#367));
#369=IFCLOCALPLACEMENT($,#6);
#370=IFCBUILDINGELEMENTPROXY('0Q6fwKLV1Bvxx$SHAK4xJx',#12,'Parking_Access_Ramp_1',$,'BuildingInstallation',#369,#368,$,$);
#371=IFCINDEXEDPOLYGONALFACE((1,2,3,4));
#372=IFCINDEXEDPOLYGONALFACE((5,6,7,8));
#373=IFCINDEXEDPOLYGONALFACE((1,5,8,2));
#374=IFCINDEXEDPOLYGONALFACE((2,8,7,3));
#375=IFCINDEXEDPOLYGONALFACE((3,7,6,4));
#376=IFCINDEXEDPOLYGONALFACE((4,6,5,1));
#377=IFCCARTESIANPOINTLIST3D(((0.,0.,0.),(60.96,0.,0.),(60.96,36.58,0.),(0.,36.58,0.),(0.,0.,0.3),(0.,36.58,0.3),(60.96,36.58,0.3),(60.96,0.,0.3)));
#378=IFCPOLYGONALFACESET(#377,.T.,(#371,#372,#373,#374,#375,#376),$);
#379=IFCSTYLEDITEM(#378,(#35),$);
#380=IFCSHAPEREPRESENTATION(#7,'Body','Tessellation',(#378));
#381=IFCPRODUCTDEFINITIONSHAPE($,$,(#380));
#382=IFCLOCALPLACEMENT($,#6);
#383=IFCBUILDINGELEMENTPROXY('3euz_vCL53hgWMKgX6OcbT',#12,'Ground_Slab_1',$,'BuildingPart',#382,#381,$,$);
#384=IFCINDEXEDPOLYGONALFACE((1,2,3,4));
#385=IFCINDEXEDPOLYGONALFACE((5,6,7,8));
#386=IFCINDEXEDPOLYGONALFACE((1,5,8,2));
#387=IFCINDEXEDPOLYGONALFACE((2,8,7,3));
#388=IFCINDEXEDPOLYGONALFACE((3,7,6,4));
#389=IFCINDEXEDPOLYGONALFACE((4,6,5,1));
#390=IFCCARTESIANPOINTLIST3D(((0.,36.28,0.),(60.96,36.28,0.),(60.96,36.58,0.),(0.,36.58,0.),(0.,36.28,4.57),(0.,36.58,4.57),(60.96,36.58,4.57),(60.96,36.28,4.57)));
#391=IFCPOLYGONALFACESET(#390,.T.,(#384,#385,#386,#387,#388,#389),$);
#392=IFCCOLOURRGB($,0.96,0.91,0.8);
#393=IFCSURFACESTYLERENDERING(#392,0.,$,$,$,$,$,$,.NOTDEFINED.);
#394=IFCSURFACESTYLE('Wall - Light Cream',.BOTH.,(#393));
#395=IFCSTYLEDITEM(#391,(#394),$);
#396=IFCSHAPEREPRESENTATION(#7,'Body','Tessellation',(#391));
#397=IFCPRODUCTDEFINITIONSHAPE($,$,(#396));
#398=IFCLOCALPLACEMENT($,#6);
#399=IFCBUILDINGELEMENTPROXY('185nSA3GXEOhMnVJNJj5iW',#12,'Exterior_Wall_1',$,'BuildingPart',#398,#397,$,$);
#400=IFCINDEXEDPOLYGONALFACE((1,2,3,4));
#401=IFCINDEXEDPOLYGONALFACE((5,6,7,8));
#402=IFCINDEXEDPOLYGONALFACE((1,5,8,2));
#403=IFCINDEXEDPOLYGONALFACE((2,8,7,3));
#404=IFCINDEXEDPOLYGONALFACE((3,7,6,4));
#405=IFCINDEXEDPOLYGONALFACE((4,6,5,1));
#406=IFCCARTESIANPOINTLIST3D(((0.3,0.,0.),(0.3,36.58,0.),(0.,36.58,0.),(0.,0.,0.),(0.3,0.,4.57),(0.,0.,4.57),(0.,36.58,4.57),(0.3,36.58,4.57)));
#407=IFCPOLYGONALFACESET(#406,.T.,(#400,#401,#402,#403,#404,#405),$);
#408=IFCSTYLEDITEM(#407,(#394),$);
#409=IFCSHAPEREPRESENTATION(#7,'Body','Tessellation',(#407));
#410=IFCPRODUCTDEFINITIONSHAPE($,$,(#409));
#411=IFCLOCALPLACEMENT($,#6);
#412=IFCBUILDINGELEMENTPROXY('1jcJHS$PH88gUSNopIvztu',#12,'Exterior_Wall_2',$,'BuildingPart',#411,#410,$,$);
#413=IFCINDEXEDPOLYGONALFACE((1,2,3,4));
#414=IFCINDEXEDPOLYGONALFACE((5,6,7,8));
#415=IFCINDEXEDPOLYGONALFACE((1,5,8,2));
#416=IFCINDEXEDPOLYGONALFACE((2,8,7,3));
#417=IFCINDEXEDPOLYGONALFACE((3,7,6,4));
#418=IFCINDEXEDPOLYGONALFACE((4,6,5,1));
#419=IFCCARTESIANPOINTLIST3D(((60.96,0.,0.),(60.96,36.58,0.),(60.660000000000004,36.58,0.),(60.660000000000004,0.,0.),(60.96,0.,4.57),(60.660000000000004,0.,4.57),(60.660000000000004,36.58,4.57),(60.96,36.58,4.57)));
#420=IFCPOLYGONALFACESET(#419,.T.,(#413,#414,#415,#416,#417,#418),$);
#421=IFCSTYLEDITEM(#420,(#394),$);
#422=IFCSHAPEREPRESENTATION(#7,'Body','Tessellation',(#420));
#423=IFCPRODUCTDEFINITIONSHAPE($,$,(#422));
#424=IFCLOCALPLACEMENT($,#6);
#425=IFCBUILDINGELEMENTPROXY('3oU_K2f8jC2g8$d$5DGPRY',#12,'Exterior_Wall_3',$,'BuildingPart',#424,#423,$,$);
#426=IFCINDEXEDPOLYGONALFACE((1,2,3,4));
#427=IFCINDEXEDPOLYGONALFACE((5,6,7,8));
#428=IFCINDEXEDPOLYGONALFACE((1,5,8,2));
#429=IFCINDEXEDPOLYGONALFACE((2,8,7,3));
#430=IFCINDEXEDPOLYGONALFACE((3,7,6,4));
#431=IFCINDEXEDPOLYGONALFACE((4,6,5,1));
#432=IFCCARTESIANPOINTLIST3D(((0.,0.,0.),(36.58,0.,0.),(36.58,0.15,0.),(0.,0.15,0.),(0.,0.,4.57),(0.,0.15,4.57),(36.58,0.15,4.57),(36.58,0.,4.57)));
#433=IFCPOLYGONALFACESET(#432,.T.,(#426,#427,#428,#429,#430,#431),$);
#434=IFCSTYLEDITEM(#433,(#394),$);
#435=IFCSHAPEREPRESENTATION(#7,'Body','Tessellation',(#433));
#436=IFCPRODUCTDEFINITIONSHAPE($,$,(#435));
#437=IFCLOCALPLACEMENT($,#6);
#438=IFCBUILDINGELEMENTPROXY('3_KOvuW4z3LecZY21l1ZX0',#12,'Front_Curtain_Wall_1',$,'BuildingPart',#437,#436,$,$);
#439=IFCINDEXEDPOLYGONALFACE((1,2,3,4));
#440=IFCINDEXEDPOLYGONALFACE((5,6,7,8));
#441=IFCINDEXEDPOLYGONALFACE((1,5,8,2));
#442=IFCINDEXEDPOLYGONALFACE((2,8,7,3));
#443=IFCINDEXEDPOLYGONALFACE((3,7,6,4));
#444=IFCINDEXEDPOLYGONALFACE((4,6,5,1));
#445=IFCCARTESIANPOINTLIST3D(((15.,0.,0.),(18.,0.,0.),(18.,0.1,0.),(15.,0.1,0.),(15.,0.,2.8),(15.,0.1,2.8),(18.,0.1,2.8),(18.,0.,2.8)));
#446=IFCPOLYGONALFACESET(#445,.T.,(#439,#440,#441,#442,#443,#444),$);
#447=IFCCOLOURRGB($,0.4,0.26,0.13);
#448=IFCSURFACESTYLERENDERING(#447,0.,$,$,$,$,$,$,.NOTDEFINED.);
#449=IFCSURFACESTYLE('Door - Brown',.BOTH.,(#448));
#450=IFCSTYLEDITEM(#446,(#449),$);
#451=IFCSHAPEREPRESENTATION(#7,'Body','Tessellation',(#446));
#452=IFCPRODUCTDEFINITIONSHAPE($,$,(#451));
#453=IFCLOCALPLACEMENT($,#6);
#454=IFCBUILDINGELEMENTPROXY('16v6hZP4T8EeHvb$65EpP0',#12,'Main_Door_1',$,'BuildingPart',#453,#452,$,$);
#455=IFCINDEXEDPOLYGONALFACE((1,2,3,4));
#456=IFCINDEXEDPOLYGONALFACE((5,6,7,8));
#457=IFCINDEXEDPOLYGONALFACE((1,5,8,2));
#458=IFCINDEXEDPOLYGONALFACE((2,8,7,3));
#459=IFCINDEXEDPOLYGONALFACE((3,7,6,4));
#460=IFCINDEXEDPOLYGONALFACE((4,6,5,1));
#461=IFCCARTESIANPOINTLIST3D(((19.,0.,0.),(22.,0.,0.),(22.,0.1,0.),(19.,0.1,0.),(19.,0.,2.8),(19.,0.1,2.8),(22.,0.1,2.8),(22.,0.,2.8)));
#462=IFCPOLYGONALFACESET(#461,.T.,(#455,#456,#457,#458,#459,#460),$);
#463=IFCSTYLEDITEM(#462,(#449),$);
#464=IFCSHAPEREPRESENTATION(#7,'Body','Tessellation',(#462));
#465=IFCPRODUCTDEFINITIONSHAPE($,$,(#464));
#466=IFCLOCALPLACEMENT($,#6);
#467=IFCBUILDINGELEMENTPROXY('21iIKgpxz1fRImpKhIOPA_',#12,'Main_Door_2',$,'BuildingPart',#466,#465,$,$);
#468=IFCINDEXEDPOLYGONALFACE((1,2,3,4));
#469=IFCINDEXEDPOLYGONALFACE((5,6,7,8));
#470=IFCINDEXEDPOLYGONALFACE((1,5,8,2));
#471=IFCINDEXEDPOLYGONALFACE((2,8,7,3));
#472=IFCINDEXEDPOLYGONALFACE((3,7,6,4));
#473=IFCINDEXEDPOLYGONALFACE((4,6,5,1));
#474=IFCCARTESIANPOINTLIST3D(((5.,12.,0.),(55.,12.,0.),(55.,24.,0.),(5.,24.,0.),(5.,12.,4.57),(5.,24.,4.57),(55.,24.,4.57),(55.,12.,4.57)));
#475=IFCPOLYGONALFACESET(#474,.T.,(#468,#469,#470,#471,#472,#473),$);
#476=IFCCOLOURRGB($,0.9,0.95,0.85);
#477=IFCSURFACESTYLERENDERING(#476,0.75,$,$,$,$,$,$,.NOTDEFINED.);
#478=IFCSURFACESTYLE('Room Volume',.BOTH.,(#477));
#479=IFCSTYLEDITEM(#475,(#478),$);
#480=IFCSHAPEREPRESENTATION(#7,'Body','Tessellation',(#475));
#481=IFCPRODUCTDEFINITIONSHAPE($,$,(#480));
#482=IFCLOCALPLACEMENT($,#6);
#483=IFCBUILDINGELEMENTPROXY('1bvMDmW59FGQwDwVjeeXQ3',#12,'Lobby_Corridor_1',$,'BuildingPart',#482,#481,$,$);
#484=IFCINDEXEDPOLYGONALFACE((1,2,3,4));
#485=IFCINDEXEDPOLYGONALFACE((5,6,7,8));
#486=IFCINDEXEDPOLYGONALFACE((1,5,8,2));
#487=IFCINDEXEDPOLYGONALFACE((2,8,7,3));
#488=IFCINDEXEDPOLYGONALFACE((3,7,6,4));
#489=IFCINDEXEDPOLYGONALFACE((4,6,5,1));
#490=IFCCARTESIANPOINTLIST3D(((5.,1.,0.),(13.,1.,0.),(13.,11.,0.),(5.,11.,0.),(5.,1.,4.57),(5.,11.,4.57),(13.,11.,4.57),(13.,1.,4.57)));
#491=IFCPOLYGONALFACESET(#490,.T.,(#484,#485,#486,#487,#488,#489),$);
#492=IFCSTYLEDITEM(#491,(#478),$);
#493=IFCSHAPEREPRESENTATION(#7,'Body','Tessellation',(#491));
#494=IFCPRODUCTDEFINITIONSHAPE($,$,(#493));
#495=IFCLOCALPLACEMENT($,#6);
#496=IFCBUILDINGELEMENTPROXY('0kL$tTtWTB$BIbZLJfFyzy',#12,'Retail_Unit_1',$,'BuildingPart',#495,#494,$,$);
#497=IFCINDEXEDPOLYGONALFACE((1,2,3,4));
#498=IFCINDEXEDPOLYGONALFACE((5,6,7,8));
#499=IFCINDEXEDPOLYGONALFACE((1,5,8,2));
#500=IFCINDEXEDPOLYGONALFACE((2,8,7,3));
#501=IFCINDEXEDPOLYGONALFACE((3,7,6,4));
#502=IFCINDEXEDPOLYGONALFACE((4,6,5,1));
#503=IFCCARTESIANPOINTLIST3D(((13.5,1.,0.),(21.5,1.,0.),(21.5,11.,0.),(13.5,11.,0.),(13.5,1.,4.57),(13.5,11.,4.57),(21.5,11.,4.57),(21.5,1.,4.57)));
#504=IFCPOLYGONALFACESET(#503,.T.,(#497,#498,#499,#500,#501,#502),$);
#505=IFCSTYLEDITEM(#504,(#478),$);
#506=IFCSHAPEREPRESENTATION(#7,'Body','Tessellation',(#504));
#507=IFCPRODUCTDEFINITIONSHAPE($,$,(#506));
#508=IFCLOCALPLACEMENT($,#6);
#509=IFCBUILDINGELEMENTPROXY('2Xmil$Io9BU9HvHjYQVHJ1',#12,'Retail_Unit_2',$,'BuildingPart',#508,#507,$,$);
#510=IFCINDEXEDPOLYGONALFACE((1,2,3,4));
#511=IFCINDEXEDPOLYGONALFACE((5,6,7,8));
#512=IFCINDEXEDPOLYGONALFACE((1,5,8,2));
#513=IFCINDEXEDPOLYGONALFACE((2,8,7,3));
#514=IFCINDEXEDPOLYGONALFACE((3,7,6,4));
#515=IFCINDEXEDPOLYGONALFACE((4,6,5,1));
#516=IFCCARTESIANPOINTLIST3D(((22.,1.,0.),(30.,1.,0.),(30.,11.,0.),(22.,11.,0.),(22.,1.,4.57),(22.,11.,4.57),(30.,11.,4.57),(30.,1.,4.57)));
#517=IFCPOLYGONALFACESET(#516,.T.,(#510,#511,#512,#513,#514,#515),$);
#518=IFCSTYLEDITEM(#517,(#478),$);
#519=IFCSHAPEREPRESENTATION(#7,'Body','Tessellation',(#517));
#520=IFCPRODUCTDEFINITIONSHAPE($,$,(#519));
#521=IFCLOCALPLACEMENT($,#6);
#522=IFCBUILDINGELEMENTPROXY('0VYosWYiLC0xAjcJMhWBTO',#12,'Retail_Unit_3',$,'BuildingPart',#521,#520,$,$);
#523=IFCINDEXEDPOLYGONALFACE((1,2,3,4));
#524=IFCINDEXEDPOLYGONALFACE((5,6,7,8));
#525=IFCINDEXEDPOLYGONALFACE((1,5,8,2));
#526=IFCINDEXEDPOLYGONALFACE((2,8,7,3));
#527=IFCINDEXEDPOLYGONALFACE((3,7,6,4));
#528=IFCINDEXEDPOLYGONALFACE((4,6,5,1));
#529=IFCCARTESIANPOINTLIST3D(((30.5,1.,0.),(38.5,1.,0.),(38.5,11.,0.),(30.5,11.,0.),(30.5,1.,4.57),(30.5,11.,4.57),(38.5,11.,4.57),(38.5,1.,4.57)));
#530=IFCPOLYGONALFACESET(#529,.T.,(#523,#524,#525,#526,#527,#528),$);
#531=IFCSTYLEDITEM(#530,(#478),$);
#532=IFCSHAPEREPRESENTATION(#7,'Body','Tessellation',(#530));
#533=IFCPRODUCTDEFINITIONSHAPE($,$,(#532));
#534=IFCLOCALPLACEMENT($,#6);
#535=IFCBUILDINGELEMENTPROXY('1I3$6gUpHFzOVSEWWm4myk',#12,'Retail_Unit_4',$,'BuildingPart',#534,#533,$,$);
#536=IFCINDEXEDPOLYGONALFACE((1,2,3,4));
#537=IFCINDEXEDPOLYGONALFACE((5,6,7,8));
#538=IFCINDEXEDPOLYGONALFACE((1,5,8,2));
#539=IFCINDEXEDPOLYGONALFACE((2,8,7,3));
#540=IFCINDEXEDPOLYGONALFACE((3,7,6,4));
#541=IFCINDEXEDPOLYGONALFACE((4,6,5,1));
#542=IFCCARTESIANPOINTLIST3D(((39.,1.,0.),(47.,1.,0.),(47.,11.,0.),(39.,11.,0.),(39.,1.,4.57),(39.,11.,4.57),(47.,11.,4.57),(47.,1.,4.57)));
#543=IFCPOLYGONALFACESET(#542,.T.,(#536,#537,#538,#539,#540,#541),$);
#544=IFCSTYLEDITEM(#543,(#478),$);
#545=IFCSHAPEREPRESENTATION(#7,'Body','Tessellation',(#543));
#546=IFCPRODUCTDEFINITIONSHAPE($,$,(#545));
#547=IFCLOCALPLACEMENT($,#6);
#548=IFCBUILDINGELEMENTPROXY('3_qSWakUz20OnHVE6l$Sb$',#12,'Retail_Unit_5',$,'BuildingPart',#547,#546,$,$);
#549=IFCINDEXEDPOLYGONALFACE((1,2,3,4));
#550=IFCINDEXEDPOLYGONALFACE((5,6,7,8));
#551=IFCINDEXEDPOLYGONALFACE((1,5,8,2));
#552=IFCINDEXEDPOLYGONALFACE((2,8,7,3));
#553=IFCINDEXEDPOLYGONALFACE((3,7,6,4));
#554=IFCINDEXEDPOLYGONALFACE((4,6,5,1));
#555=IFCCARTESIANPOINTLIST3D(((47.5,1.,0.),(55.5,1.,0.),(55.5,11.,0.),(47.5,11.,0.),(47.5,1.,4.57),(47.5,11.,4.57),(55.5,11.,4.57),(55.5,1.,4.57)));
#556=IFCPOLYGONALFACESET(#555,.T.,(#549,#550,#551,#552,#553,#554),$);
#557=IFCSTYLEDITEM(#556,(#478),$);
#558=IFCSHAPEREPRESENTATION(#7,'Body','Tessellation',(#556));
#559=IFCPRODUCTDEFINITIONSHAPE($,$,(#558));
#560=IFCLOCALPLACEMENT($,#6);
#561=IFCBUILDINGELEMENTPROXY('3Tg8FHM9DCVRFsi7SsF9M0',#12,'Retail_Unit_6',$,'BuildingPart',#560,#559,$,$);
#562=IFCINDEXEDPOLYGONALFACE((1,2,3,4));
#563=IFCINDEXEDPOLYGONALFACE((5,6,7,8));
#564=IFCINDEXEDPOLYGONALFACE((1,5,8,2));
#565=IFCINDEXEDPOLYGONALFACE((2,8,7,3));
#566=IFCINDEXEDPOLYGONALFACE((3,7,6,4));
#567=IFCINDEXEDPOLYGONALFACE((4,6,5,1));
#568=IFCCARTESIANPOINTLIST3D(((5.,25.,0.),(13.,25.,0.),(13.,35.,0.),(5.,35.,0.),(5.,25.,4.57),(5.,35.,4.57),(13.,35.,4.57),(13.,25.,4.57)));
#569=IFCPOLYGONALFACESET(#568,.T.,(#562,#563,#564,#565,#566,#567),$);
#570=IFCSTYLEDITEM(#569,(#478),$);
#571=IFCSHAPEREPRESENTATION(#7,'Body','Tessellation',(#569));
#572=IFCPRODUCTDEFINITIONSHAPE($,$,(#571));
#573=IFCLOCALPLACEMENT($,#6);
#574=IFCBUILDINGELEMENTPROXY('3Gt9VJTQb5xuFeWSR_76t7',#12,'Retail_Unit_7',$,'BuildingPart',#573,#572,$,$);
#575=IFCINDEXEDPOLYGONALFACE((1,2,3,4));
#576=IFCINDEXEDPOLYGONALFACE((5,6,7,8));
#577=IFCINDEXEDPOLYGONALFACE((1,5,8,2));
#578=IFCINDEXEDPOLYGONALFACE((2,8,7,3));
#579=IFCINDEXEDPOLYGONALFACE((3,7,6,4));
#580=IFCINDEXEDPOLYGONALFACE((4,6,5,1));
#581=IFCCARTESIANPOINTLIST3D(((13.5,25.,0.),(21.5,25.,0.),(21.5,35.,0.),(13.5,35.,0.),(13.5,25.,4.57),(13.5,35.,4.57),(21.5,35.,4.57),(21.5,25.,4.57)));
#582=IFCPOLYGONALFACESET(#581,.T.,(#575,#576,#577,#578,#579,#580),$);
#583=IFCSTYLEDITEM(#582,(#478),$);
#584=IFCSHAPEREPRESENTATION(#7,'Body','Tessellation',(#582));
#585=IFCPRODUCTDEFINITIONSHAPE($,$,(#584));
#586=IFCLOCALPLACEMENT($,#6);
#587=IFCBUILDINGELEMENTPROXY('115NbyT51Bghm9RmK28kyP',#12,'Retail_Unit_8',$,'BuildingPart',#586,#585,$,$);
#588=IFCINDEXEDPOLYGONALFACE((1,2,3,4));
#589=IFCINDEXEDPOLYGONALFACE((5,6,7,8));
#590=IFCINDEXEDPOLYGONALFACE((1,5,8,2));
#591=IFCINDEXEDPOLYGONALFACE((2,8,7,3));
#592=IFCINDEXEDPOLYGONALFACE((3,7,6,4));
#593=IFCINDEXEDPOLYGONALFACE((4,6,5,1));
#594=IFCCARTESIANPOINTLIST3D(((22.,25.,0.),(30.,25.,0.),(30.,35.,0.),(22.,35.,0.),(22.,25.,4.57),(22.,35.,4.57),(30.,35.,4.57),(30.,25.,4.57)));
#595=IFCPOLYGONALFACESET(#594,.T.,(#588,#589,#590,#591,#592,#593),$);
#596=IFCSTYLEDITEM(#595,(#478),$);
#597=IFCSHAPEREPRESENTATION(#7,'Body','Tessellation',(#595));
#598=IFCPRODUCTDEFINITIONSHAPE($,$,(#597));
#599=IFCLOCALPLACEMENT($,#6);
#600=IFCBUILDINGELEMENTPROXY('1hFZnLLhT8dvxrpiRk_79a',#12,'Retail_Unit_9',$,'BuildingPart',#599,#598,$,$);
#601=IFCINDEXEDPOLYGONALFACE((1,2,3,4));
#602=IFCINDEXEDPOLYGONALFACE((5,6,7,8));
#603=IFCINDEXEDPOLYGONALFACE((1,5,8,2));
#604=IFCINDEXEDPOLYGONALFACE((2,8,7,3));
#605=IFCINDEXEDPOLYGONALFACE((3,7,6,4));
#606=IFCINDEXEDPOLYGONALFACE((4,6,5,1));
#607=IFCCARTESIANPOINTLIST3D(((30.5,25.,0.),(38.5,25.,0.),(38.5,35.,0.),(30.5,35.,0.),(30.5,25.,4.57),(30.5,35.,4.57),(38.5,35.,4.57),(38.5,25.,4.57)));
#608=IFCPOLYGONALFACESET(#607,.T.,(#601,#602,#603,#604,#605,#606),$);
#609=IFCSTYLEDITEM(#608,(#478),$);
#610=IFCSHAPEREPRESENTATION(#7,'Body','Tessellation',(#608));
#611=IFCPRODUCTDEFINITIONSHAPE($,$,(#610));
#612=IFCLOCALPLACEMENT($,#6);
#613=IFCBUILDINGELEMENTPROXY('0IHpOGvI1DWuwdWG55fXX9',#12,'Retail_Unit_10',$,'BuildingPart',#612,#611,$,$);
#614=IFCINDEXEDPOLYGONALFACE((1,2,3,4));
#615=IFCINDEXEDPOLYGONALFACE((5,6,7,8));
#616=IFCINDEXEDPOLYGONALFACE((1,5,8,2));
#617=IFCINDEXEDPOLYGONALFACE((2,8,7,3));
#618=IFCINDEXEDPOLYGONALFACE((3,7,6,4));
#619=IFCINDEXEDPOLYGONALFACE((4,6,5,1));
#620=IFCCARTESIANPOINTLIST3D(((39.,25.,0.),(47.,25.,0.),(47.,35.,0.),(39.,35.,0.),(39.,25.,4.57),(39.,35.,4.57),(47.,35.,4.57),(47.,25.,4.57)));
#621=IFCPOLYGONALFACESET(#620,.T.,(#614,#615,#616,#617,#618,#619),$);
#622=IFCSTYLEDITEM(#621,(#478),$);
#623=IFCSHAPEREPRESENTATION(#7,'Body','Tessellation',(#621));
#624=IFCPRODUCTDEFINITIONSHAPE($,$,(#623));
#625=IFCLOCALPLACEMENT($,#6);
#626=IFCBUILDINGELEMENTPROXY('3SI_FNanr6VB2Iy_y$w$FY',#12,'Retail_Unit_11',$,'BuildingPart',#625,#624,$,$);
#627=IFCINDEXEDPOLYGONALFACE((1,2,3,4));
#628=IFCINDEXEDPOLYGONALFACE((5,6,7,8));
#629=IFCINDEXEDPOLYGONALFACE((1,5,8,2));
#630=IFCINDEXEDPOLYGONALFACE((2,8,7,3));
#631=IFCINDEXEDPOLYGONALFACE((3,7,6,4));
#632=IFCINDEXEDPOLYGONALFACE((4,6,5,1));
#633=IFCCARTESIANPOINTLIST3D(((47.5,25.,0.),(55.5,25.,0.),(55.5,35.,0.),(47.5,35.,0.),(47.5,25.,4.57),(47.5,35.,4.57),(55.5,35.,4.57),(55.5,25.,4.57)));
#634=IFCPOLYGONALFACESET(#633,.T.,(#627,#628,#629,#630,#631,#632),$);
#635=IFCSTYLEDITEM(#634,(#478),$);
#636=IFCSHAPEREPRESENTATION(#7,'Body','Tessellation',(#634));
#637=IFCPRODUCTDEFINITIONSHAPE($,$,(#636));
#638=IFCLOCALPLACEMENT($,#6);
#639=IFCBUILDINGELEMENTPROXY('0VzfBnKm11cf_UrRVZbcJK',#12,'Retail_Unit_12',$,'BuildingPart',#638,#637,$,$);
#640=IFCINDEXEDPOLYGONALFACE((1,2,3,4));
#641=IFCINDEXEDPOLYGONALFACE((5,6,7,8));
#642=IFCINDEXEDPOLYGONALFACE((1,5,8,2));
#643=IFCINDEXEDPOLYGONALFACE((2,8,7,3));
#644=IFCINDEXEDPOLYGONALFACE((3,7,6,4));
#645=IFCINDEXEDPOLYGONALFACE((4,6,5,1));
#646=IFCCARTESIANPOINTLIST3D(((8.,11.,0.),(9.2,11.,0.),(9.2,11.08,0.),(8.,11.08,0.),(8.,11.,2.4),(8.,11.08,2.4),(9.2,11.08,2.4),(9.2,11.,2.4)));
#647=IFCPOLYGONALFACESET(#646,.T.,(#640,#641,#642,#643,#644,#645),$);
#648=IFCSTYLEDITEM(#647,(#449),$);
#649=IFCSHAPEREPRESENTATION(#7,'Body','Tessellation',(#647));
#650=IFCPRODUCTDEFINITIONSHAPE($,$,(#649));
#651=IFCLOCALPLACEMENT($,#6);
#652=IFCBUILDINGELEMENTPROXY('1DbpI9FVz18whDbaPTKHsJ',#12,'Retail_Door_1',$,'BuildingPart',#651,#650,$,$);
#653=IFCINDEXEDPOLYGONALFACE((1,2,3,4));
#654=IFCINDEXEDPOLYGONALFACE((5,6,7,8));
#655=IFCINDEXEDPOLYGONALFACE((1,5,8,2));
#656=IFCINDEXEDPOLYGONALFACE((2,8,7,3));
#657=IFCINDEXEDPOLYGONALFACE((3,7,6,4));
#658=IFCINDEXEDPOLYGONALFACE((4,6,5,1));
#659=IFCCARTESIANPOINTLIST3D(((16.5,11.,0.),(17.7,11.,0.),(17.7,11.08,0.),(16.5,11.08,0.),(16.5,11.,2.4),(16.5,11.08,2.4),(17.7,11.08,2.4),(17.7,11.,2.4)));
#660=IFCPOLYGONALFACESET(#659,.T.,(#653,#654,#655,#656,#657,#658),$);
#661=IFCSTYLEDITEM(#660,(#449),$);
#662=IFCSHAPEREPRESENTATION(#7,'Body','Tessellation',(#660));
#663=IFCPRODUCTDEFINITIONSHAPE($,$,(#662));
#664=IFCLOCALPLACEMENT($,#6);
#665=IFCBUILDINGELEMENTPROXY('2kcUeO2n19KeDgIu$3yjzo',#12,'Retail_Door_2',$,'BuildingPart',#664,#663,$,$);
#666=IFCINDEXEDPOLYGONALFACE((1,2,3,4));
#667=IFCINDEXEDPOLYGONALFACE((5,6,7,8));
#668=IFCINDEXEDPOLYGONALFACE((1,5,8,2));
#669=IFCINDEXEDPOLYGONALFACE((2,8,7,3));
#670=IFCINDEXEDPOLYGONALFACE((3,7,6,4));
#671=IFCINDEXEDPOLYGONALFACE((4,6,5,1));
#672=IFCCARTESIANPOINTLIST3D(((25.,11.,0.),(26.2,11.,0.),(26.2,11.08,0.),(25.,11.08,0.),(25.,11.,2.4),(25.,11.08,2.4),(26.2,11.08,2.4),(26.2,11.,2.4)));
#673=IFCPOLYGONALFACESET(#672,.T.,(#666,#667,#668,#669,#670,#671),$);
#674=IFCSTYLEDITEM(#673,(#449),$);
#675=IFCSHAPEREPRESENTATION(#7,'Body','Tessellation',(#673));
#676=IFCPRODUCTDEFINITIONSHAPE($,$,(#675));
#677=IFCLOCALPLACEMENT($,#6);
#678=IFCBUILDINGELEMENTPROXY('3vwEhXYTr9zR4zPY5L894z',#12,'Retail_Door_3',$,'BuildingPart',#677,#676,$,$);
#679=IFCINDEXEDPOLYGONALFACE((1,2,3,4));
#680=IFCINDEXEDPOLYGONALFACE((5,6,7,8));
#681=IFCINDEXEDPOLYGONALFACE((1,5,8,2));
#682=IFCINDEXEDPOLYGONALFACE((2,8,7,3));
#683=IFCINDEXEDPOLYGONALFACE((3,7,6,4));
#684=IFCINDEXEDPOLYGONALFACE((4,6,5,1));
#685=IFCCARTESIANPOINTLIST3D(((33.5,11.,0.),(34.7,11.,0.),(34.7,11.08,0.),(33.5,11.08,0.),(33.5,11.,2.4),(33.5,11.08,2.4),(34.7,11.08,2.4),(34.7,11.,2.4)));
#686=IFCPOLYGONALFACESET(#685,.T.,(#679,#680,#681,#682,#683,#684),$);
#687=IFCSTYLEDITEM(#686,(#449),$);
#688=IFCSHAPEREPRESENTATION(#7,'Body','Tessellation',(#686));
#689=IFCPRODUCTDEFINITIONSHAPE($,$,(#688));
#690=IFCLOCALPLACEMENT($,#6);
#691=IFCBUILDINGELEMENTPROXY('2CyE5rjufBMeYfWvjwWrbs',#12,'Retail_Door_4',$,'BuildingPart',#690,#689,$,$);
#692=IFCINDEXEDPOLYGONALFACE((1,2,3,4));
#693=IFCINDEXEDPOLYGONALFACE((5,6,7,8));
#694=IFCINDEXEDPOLYGONALFACE((1,5,8,2));
#695=IFCINDEXEDPOLYGONALFACE((2,8,7,3));
#696=IFCINDEXEDPOLYGONALFACE((3,7,6,4));
#697=IFCINDEXEDPOLYGONALFACE((4,6,5,1));
#698=IFCCARTESIANPOINTLIST3D(((42.,11.,0.),(43.2,11.,0.),(43.2,11.08,0.),(42.,11.08,0.),(42.,11.,2.4),(42.,11.08,2.4),(43.2,11.08,2.4),(43.2,11.,2.4)));
#699=IFCPOLYGONALFACESET(#698,.T.,(#692,#693,#694,#695,#696,#697),$);
#700=IFCSTYLEDITEM(#699,(#449),$);
#701=IFCSHAPEREPRESENTATION(#7,'Body','Tessellation',(#699));
#702=IFCPRODUCTDEFINITIONSHAPE($,$,(#701));
#703=IFCLOCALPLACEMENT($,#6);
#704=IFCBUILDINGELEMENTPROXY('3asB2FWYrDi8RJUrIgtWiz',#12,'Retail_Door_5',$,'BuildingPart',#703,#702,$,$);
#705=IFCINDEXEDPOLYGONALFACE((1,2,3,4));
#706=IFCINDEXEDPOLYGONALFACE((5,6,7,8));
#707=IFCINDEXEDPOLYGONALFACE((1,5,8,2));
#708=IFCINDEXEDPOLYGONALFACE((2,8,7,3));
#709=IFCINDEXEDPOLYGONALFACE((3,7,6,4));
#710=IFCINDEXEDPOLYGONALFACE((4,6,5,1));
#711=IFCCARTESIANPOINTLIST3D(((50.5,11.,0.),(51.7,11.,0.),(51.7,11.08,0.),(50.5,11.08,0.),(50.5,11.,2.4),(50.5,11.08,2.4),(51.7,11.08,2.4),(51.7,11.,2.4)));
#712=IFCPOLYGONALFACESET(#711,.T.,(#705,#706,#707,#708,#709,#710),$);
#713=IFCSTYLEDITEM(#712,(#449),$);
#714=IFCSHAPEREPRESENTATION(#7,'Body','Tessellation',(#712));
#715=IFCPRODUCTDEFINITIONSHAPE($,$,(#714));
#716=IFCLOCALPLACEMENT($,#6);
#717=IFCBUILDINGELEMENTPROXY('2K1H7yXw5BeRwS$sjfCoO$',#12,'Retail_Door_6',$,'BuildingPart',#716,#715,$,$);
#718=IFCINDEXEDPOLYGONALFACE((1,2,3,4));
#719=IFCINDEXEDPOLYGONALFACE((5,6,7,8));
#720=IFCINDEXEDPOLYGONALFACE((1,5,8,2));
#721=IFCINDEXEDPOLYGONALFACE((2,8,7,3));
#722=IFCINDEXEDPOLYGONALFACE((3,7,6,4));
#723=IFCINDEXEDPOLYGONALFACE((4,6,5,1));
#724=IFCCARTESIANPOINTLIST3D(((8.,24.92,0.),(9.2,24.92,0.),(9.2,25.,0.),(8.,25.,0.),(8.,24.92,2.4),(8.,25.,2.4),(9.2,25.,2.4),(9.2,24.92,2.4)));
#725=IFCPOLYGONALFACESET(#724,.T.,(#718,#719,#720,#721,#722,#723),$);
#726=IFCSTYLEDITEM(#725,(#449),$);
#727=IFCSHAPEREPRESENTATION(#7,'Body','Tessellation',(#725));
#728=IFCPRODUCTDEFINITIONSHAPE($,$,(#727));
#729=IFCLOCALPLACEMENT($,#6);
#730=IFCBUILDINGELEMENTPROXY('2ga3vNdN97LRX1RRGT6eSj',#12,'Retail_Door_7',$,'BuildingPart',#729,#728,$,$);
#731=IFCINDEXEDPOLYGONALFACE((1,2,3,4));
#732=IFCINDEXEDPOLYGONALFACE((5,6,7,8));
#733=IFCINDEXEDPOLYGONALFACE((1,5,8,2));
#734=IFCINDEXEDPOLYGONALFACE((2,8,7,3));
#735=IFCINDEXEDPOLYGONALFACE((3,7,6,4));
#736=IFCINDEXEDPOLYGONALFACE((4,6,5,1));
#737=IFCCARTESIANPOINTLIST3D(((16.5,24.92,0.),(17.7,24.92,0.),(17.7,25.,0.),(16.5,25.,0.),(16.5,24.92,2.4),(16.5,25.,2.4),(17.7,25.,2.4),(17.7,24.92,2.4)));
#738=IFCPOLYGONALFACESET(#737,.T.,(#731,#732,#733,#734,#735,#736),$);
#739=IFCSTYLEDITEM(#738,(#449),$);
#740=IFCSHAPEREPRESENTATION(#7,'Body','Tessellation',(#738));
#741=IFCPRODUCTDEFINITIONSHAPE($,$,(#740));
#742=IFCLOCALPLACEMENT($,#6);
#743=IFCBUILDINGELEMENTPROXY('3u9I2ysE9BOvcWwy0TW5oC',#12,'Retail_Door_8',$,'BuildingPart',#742,#741,$,$);
#744=IFCINDEXEDPOLYGONALFACE((1,2,3,4));
#745=IFCINDEXEDPOLYGONALFACE((5,6,7,8));
#746=IFCINDEXEDPOLYGONALFACE((1,5,8,2));
#747=IFCINDEXEDPOLYGONALFACE((2,8,7,3));
#748=IFCINDEXEDPOLYGONALFACE((3,7,6,4));
#749=IFCINDEXEDPOLYGONALFACE((4,6,5,1));
#750=IFCCARTESIANPOINTLIST3D(((25.,24.92,0.),(26.2,24.92,0.),(26.2,25.,0.),(25.,25.,0.),(25.,24.92,2.4),(25.,25.,2.4),(26.2,25.,2.4),(26.2,24.92,2.4)));
#751=IFCPOLYGONALFACESET(#750,.T.,(#744,#745,#746,#747,#748,#749),$);
#752=IFCSTYLEDITEM(#751,(#449),$);
#753=IFCSHAPEREPRESENTATION(#7,'Body','Tessellation',(#751));
#754=IFCPRODUCTDEFINITIONSHAPE($,$,(#753));
#755=IFCLOCALPLACEMENT($,#6);
#756=IFCBUILDINGELEMENTPROXY('3swenXh8H6SgivrTd68p0r',#12,'Retail_Door_9',$,'BuildingPart',#755,#754,$,$);
#757=IFCINDEXEDPOLYGONALFACE((1,2,3,4));
#758=IFCINDEXEDPOLYGONALFACE((5,6,7,8));
#759=IFCINDEXEDPOLYGONALFACE((1,5,8,2));
#760=IFCINDEXEDPOLYGONALFACE((2,8,7,3));
#761=IFCINDEXEDPOLYGONALFACE((3,7,6,4));
#762=IFCINDEXEDPOLYGONALFACE((4,6,5,1));
#763=IFCCARTESIANPOINTLIST3D(((33.5,24.92,0.),(34.7,24.92,0.),(34.7,25.,0.),(33.5,25.,0.),(33.5,24.92,2.4),(33.5,25.,2.4),(34.7,25.,2.4),(34.7,24.92,2.4)));
#764=IFCPOLYGONALFACESET(#763,.T.,(#757,#758,#759,#760,#761,#762),$);
#765=IFCSTYLEDITEM(#764,(#449),$);
#766=IFCSHAPEREPRESENTATION(#7,'Body','Tessellation',(#764));
#767=IFCPRODUCTDEFINITIONSHAPE($,$,(#766));
#768=IFCLOCALPLACEMENT($,#6);
#769=IFCBUILDINGELEMENTPROXY('2VnLRxM4z45OCQDchfm65C',#12,'Retail_Door_10',$,'BuildingPart',#768,#767,$,$);
#770=IFCINDEXEDPOLYGONALFACE((1,2,3,4));
#771=IFCINDEXEDPOLYGONALFACE((5,6,7,8));
#772=IFCINDEXEDPOLYGONALFACE((1,5,8,2));
#773=IFCINDEXEDPOLYGONALFACE((2,8,7,3));
#774=IFCINDEXEDPOLYGONALFACE((3,7,6,4));
#775=IFCINDEXEDPOLYGONALFACE((4,6,5,1));
#776=IFCCARTESIANPOINTLIST3D(((42.,24.92,0.),(43.2,24.92,0.),(43.2,25.,0.),(42.,25.,0.),(42.,24.92,2.4),(42.,25.,2.4),(43.2,25.,2.4),(43.2,24.92,2.4)));
#777=IFCPOLYGONALFACESET(#776,.T.,(#770,#771,#772,#773,#774,#775),$);
#778=IFCSTYLEDITEM(#777,(#449),$);
#779=IFCSHAPEREPRESENTATION(#7,'Body','Tessellation',(#777));
#780=IFCPRODUCTDEFINITIONSHAPE($,$,(#779));
#781=IFCLOCALPLACEMENT($,#6);
#782=IFCBUILDINGELEMENTPROXY('1lGl7yi9j5hwrtZFbEa$2p',#12,'Retail_Door_11',$,'BuildingPart',#781,#780,$,$);
#783=IFCINDEXEDPOLYGONALFACE((1,2,3,4));
#784=IFCINDEXEDPOLYGONALFACE((5,6,7,8));
#785=IFCINDEXEDPOLYGONALFACE((1,5,8,2));
#786=IFCINDEXEDPOLYGONALFACE((2,8,7,3));
#787=IFCINDEXEDPOLYGONALFACE((3,7,6,4));
#788=IFCINDEXEDPOLYGONALFACE((4,6,5,1));
#789=IFCCARTESIANPOINTLIST3D(((50.5,24.92,0.),(51.7,24.92,0.),(51.7,25.,0.),(50.5,25.,0.),(50.5,24.92,2.4),(50.5,25.,2.4),(51.7,25.,2.4),(51.7,24.92,2.4)));
#790=IFCPOLYGONALFACESET(#789,.T.,(#783,#784,#785,#786,#787,#788),$);
#791=IFCSTYLEDITEM(#790,(#449),$);
#792=IFCSHAPEREPRESENTATION(#7,'Body','Tessellation',(#790));
#793=IFCPRODUCTDEFINITIONSHAPE($,$,(#792));
#794=IFCLOCALPLACEMENT($,#6);
#795=IFCBUILDINGELEMENTPROXY('0dnbjhZT97Nvz27o7b6CCC',#12,'Retail_Door_12',$,'BuildingPart',#794,#793,$,$);
#796=IFCINDEXEDPOLYGONALFACE((1,2,3,4));
#797=IFCINDEXEDPOLYGONALFACE((5,6,7,8));
#798=IFCINDEXEDPOLYGONALFACE((1,5,8,2));
#799=IFCINDEXEDPOLYGONALFACE((2,8,7,3));
#800=IFCINDEXEDPOLYGONALFACE((3,7,6,4));
#801=IFCINDEXEDPOLYGONALFACE((4,6,5,1));
#802=IFCCARTESIANPOINTLIST3D(((48.,28.,0.),(60.,28.,0.),(60.,36.,0.),(48.,36.,0.),(48.,28.,4.57),(48.,36.,4.57),(60.,36.,4.57),(60.,28.,4.57)));
#803=IFCPOLYGONALFACESET(#802,.T.,(#796,#797,#798,#799,#800,#801),$);
#804=IFCSTYLEDITEM(#803,(#478),$);
#805=IFCSHAPEREPRESENTATION(#7,'Body','Tessellation',(#803));
#806=IFCPRODUCTDEFINITIONSHAPE($,$,(#805));
#807=IFCLOCALPLACEMENT($,#6);
#808=IFCBUILDINGELEMENTPROXY('0wN49HLVj7xQMmElKVpSYo',#12,'Loading_Bay_1',$,'BuildingPart',#807,#806,$,$);
#809=IFCINDEXEDPOLYGONALFACE((1,2,3,4));
#810=IFCINDEXEDPOLYGONALFACE((5,6,7,8));
#811=IFCINDEXEDPOLYGONALFACE((1,5,8,2));
#812=IFCINDEXEDPOLYGONALFACE((2,8,7,3));
#813=IFCINDEXEDPOLYGONALFACE((3,7,6,4));
#814=IFCINDEXEDPOLYGONALFACE((4,6,5,1));
#815=IFCCARTESIANPOINTLIST3D(((55.,36.2,0.),(56.2,36.2,0.),(56.2,36.300000000000004,0.),(55.,36.300000000000004,0.),(55.,36.2,2.4),(55.,36.300000000000004,2.4),(56.2,36.300000000000004,2.4),(56.2,36.2,2.4)));
#816=IFCPOLYGONALFACESET(#815,.T.,(#809,#810,#811,#812,#813,#814),$);
#817=IFCSTYLEDITEM(#816,(#449),$);
#818=IFCSHAPEREPRESENTATION(#7,'Body','Tessellation',(#816));
#819=IFCPRODUCTDEFINITIONSHAPE($,$,(#818));
#820=IFCLOCALPLACEMENT($,#6);
#821=IFCBUILDINGELEMENTPROXY('2$swFkuu58u9v9uIpNN5Ls',#12,'Staff_Door_1',$,'BuildingPart',#820,#819,$,$);
#822=IFCINDEXEDPOLYGONALFACE((1,2,3,4));
#823=IFCINDEXEDPOLYGONALFACE((5,6,7,8));
#824=IFCINDEXEDPOLYGONALFACE((1,5,8,2));
#825=IFCINDEXEDPOLYGONALFACE((2,8,7,3));
#826=IFCINDEXEDPOLYGONALFACE((3,7,6,4));
#827=IFCINDEXEDPOLYGONALFACE((4,6,5,1));
#828=IFCCARTESIANPOINTLIST3D(((0.5,12.,0.),(5.5,12.,0.),(5.5,16.,0.),(0.5,16.,0.),(0.5,12.,4.57),(0.5,16.,4.57),(5.5,16.,4.57),(5.5,12.,4.57)));
#829=IFCPOLYGONALFACESET(#828,.T.,(#822,#823,#824,#825,#826,#827),$);
#830=IFCSTYLEDITEM(#829,(#478),$);
#831=IFCSHAPEREPRESENTATION(#7,'Body','Tessellation',(#829));
#832=IFCPRODUCTDEFINITIONSHAPE($,$,(#831));
#833=IFCLOCALPLACEMENT($,#6);
#834=IFCBUILDINGELEMENTPROXY('3kJW9hldbF2ARfxSlKzluu',#12,'Restroom_G_1',$,'BuildingPart',#833,#832,$,$);
#835=IFCINDEXEDPOLYGONALFACE((1,2,3,4));
#836=IFCINDEXEDPOLYGONALFACE((5,6,7,8));
#837=IFCINDEXEDPOLYGONALFACE((1,5,8,2));
#838=IFCINDEXEDPOLYGONALFACE((2,8,7,3));
#839=IFCINDEXEDPOLYGONALFACE((3,7,6,4));
#840=IFCINDEXEDPOLYGONALFACE((4,6,5,1));
#841=IFCCARTESIANPOINTLIST3D(((0.5,16.5,0.),(5.5,16.5,0.),(5.5,20.5,0.),(0.5,20.5,0.),(0.5,16.5,4.57),(0.5,20.5,4.57),(5.5,20.5,4.57),(5.5,16.5,4.57)));
#842=IFCPOLYGONALFACESET(#841,.T.,(#835,#836,#837,#838,#839,#840),$);
#843=IFCSTYLEDITEM(#842,(#478),$);
#844=IFCSHAPEREPRESENTATION(#7,'Body','Tessellation',(#842));
#845=IFCPRODUCTDEFINITIONSHAPE($,$,(#844));
#846=IFCLOCALPLACEMENT($,#6);
#847=IFCBUILDINGELEMENTPROXY('0yLTzcLHf0cu$PNJUEmw_1',#12,'Restroom_G_2',$,'BuildingPart',#846,#845,$,$);
#848=IFCINDEXEDPOLYGONALFACE((1,2,3,4));
#849=IFCINDEXEDPOLYGONALFACE((5,6,7,8));
#850=IFCINDEXEDPOLYGONALFACE((1,5,8,2));
#851=IFCINDEXEDPOLYGONALFACE((2,8,7,3));
#852=IFCINDEXEDPOLYGONALFACE((3,7,6,4));
#853=IFCINDEXEDPOLYGONALFACE((4,6,5,1));
#854=IFCCARTESIANPOINTLIST3D(((0.5,21.,0.),(5.5,21.,0.),(5.5,25.,0.),(0.5,25.,0.),(0.5,21.,4.57),(0.5,25.,4.57),(5.5,25.,4.57),(5.5,21.,4.57)));
#855=IFCPOLYGONALFACESET(#854,.T.,(#848,#849,#850,#851,#852,#853),$);
#856=IFCSTYLEDITEM(#855,(#478),$);
#857=IFCSHAPEREPRESENTATION(#7,'Body','Tessellation',(#855));
#858=IFCPRODUCTDEFINITIONSHAPE($,$,(#857));
#859=IFCLOCALPLACEMENT($,#6);
#860=IFCBUILDINGELEMENTPROXY('1i0kxtZBDCxPWleraN2CR4',#12,'Restroom_G_3',$,'BuildingPart',#859,#858,$,$);
#861=IFCINDEXEDPOLYGONALFACE((1,2,3,4));
#862=IFCINDEXEDPOLYGONALFACE((1,4,5));
#863=IFCINDEXEDPOLYGONALFACE((2,6,3));
#864=IFCINDEXEDPOLYGONALFACE((4,3,6,5));
#865=IFCINDEXEDPOLYGONALFACE((1,5,6,2));
#866=IFCCARTESIANPOINTLIST3D(((23.,15.,0.),(23.,16.2,0.),(33.,16.2,0.),(33.,15.,0.),(33.,15.,4.57),(33.,16.2,4.57)));
#867=IFCPOLYGONALFACESET(#866,.T.,(#861,#862,#863,#864,#865),$);
#868=IFCCOLOURRGB($,0.8,0.8,0.8);
#869=IFCSURFACESTYLERENDERING(#868,0.,$,$,$,$,$,$,.NOTDEFINED.);
#870=IFCSURFACESTYLE('Staircase - Light Grey',.BOTH.,(#869));
#871=IFCSTYLEDITEM(#867,(#870),$);
#872=IFCSHAPEREPRESENTATION(#7,'Body','Tessellation',(#867));
#873=IFCPRODUCTDEFINITIONSHAPE($,$,(#872));
#874=IFCLOCALPLACEMENT($,#6);
#875=IFCBUILDINGELEMENTPROXY('1TSo8Z9FPDVR_IjgQuqw4S',#12,'Escalator_1',$,'BuildingInstallation',#874,#873,$,$);
#876=IFCINDEXEDPOLYGONALFACE((1,2,3,4));
#877=IFCINDEXEDPOLYGONALFACE((1,4,5));
#878=IFCINDEXEDPOLYGONALFACE((2,6,3));
#879=IFCINDEXEDPOLYGONALFACE((4,3,6,5));
#880=IFCINDEXEDPOLYGONALFACE((1,5,6,2));
#881=IFCCARTESIANPOINTLIST3D(((23.,17.,0.),(23.,18.2,0.),(33.,18.2,0.),(33.,17.,0.),(33.,17.,4.57),(33.,18.2,4.57)));
#882=IFCPOLYGONALFACESET(#881,.T.,(#876,#877,#878,#879,#880),$);
#883=IFCSTYLEDITEM(#882,(#870),$);
#884=IFCSHAPEREPRESENTATION(#7,'Body','Tessellation',(#882));
#885=IFCPRODUCTDEFINITIONSHAPE($,$,(#884));
#886=IFCLOCALPLACEMENT($,#6);
#887=IFCBUILDINGELEMENTPROXY('2kx0oauI91KBrQlwP7LX9d',#12,'Escalator_2',$,'BuildingInstallation',#886,#885,$,$);
#888=IFCINDEXEDPOLYGONALFACE((1,2,3,4));
#889=IFCINDEXEDPOLYGONALFACE((5,6,7,8));
#890=IFCINDEXEDPOLYGONALFACE((1,5,8,2));
#891=IFCINDEXEDPOLYGONALFACE((2,8,7,3));
#892=IFCINDEXEDPOLYGONALFACE((3,7,6,4));
#893=IFCINDEXEDPOLYGONALFACE((4,6,5,1));
#894=IFCCARTESIANPOINTLIST3D(((28.,24.,0.),(30.5,24.,0.),(30.5,26.5,0.),(28.,26.5,0.),(28.,24.,13.72),(28.,26.5,13.72),(30.5,26.5,13.72),(30.5,24.,13.72)));
#895=IFCPOLYGONALFACESET(#894,.T.,(#888,#889,#890,#891,#892,#893),$);
#896=IFCSTYLEDITEM(#895,(#365),$);
#897=IFCSHAPEREPRESENTATION(#7,'Body','Tessellation',(#895));
#898=IFCPRODUCTDEFINITIONSHAPE($,$,(#897));
#899=IFCLOCALPLACEMENT($,#6);
#900=IFCBUILDINGELEMENTPROXY('33bSXYtzP7u9siI9D_4VHR',#12,'Elevator_1',$,'BuildingInstallation',#899,#898,$,$);
#901=IFCINDEXEDPOLYGONALFACE((1,2,3,4));
#902=IFCINDEXEDPOLYGONALFACE((5,6,7,8));
#903=IFCINDEXEDPOLYGONALFACE((1,5,8,2));
#904=IFCINDEXEDPOLYGONALFACE((2,8,7,3));
#905=IFCINDEXEDPOLYGONALFACE((3,7,6,4));
#906=IFCINDEXEDPOLYGONALFACE((4,6,5,1));
#907=IFCCARTESIANPOINTLIST3D(((31.,24.,0.),(33.5,24.,0.),(33.5,26.5,0.),(31.,26.5,0.),(31.,24.,13.72),(31.,26.5,13.72),(33.5,26.5,13.72),(33.5,24.,13.72)));
#908=IFCPOLYGONALFACESET(#907,.T.,(#901,#902,#903,#904,#905,#906),$);
#909=IFCSTYLEDITEM(#908,(#365),$);
#910=IFCSHAPEREPRESENTATION(#7,'Body','Tessellation',(#908));
#911=IFCPRODUCTDEFINITIONSHAPE($,$,(#910));
#912=IFCLOCALPLACEMENT($,#6);
#913=IFCBUILDINGELEMENTPROXY('1K8O$0FSf0E9_FNGGH_Chr',#12,'Elevator_2',$,'BuildingInstallation',#912,#911,$,$);
#914=IFCINDEXEDPOLYGONALFACE((1,2,3,4));
#915=IFCINDEXEDPOLYGONALFACE((5,6,7,8));
#916=IFCINDEXEDPOLYGONALFACE((1,5,8,2));
#917=IFCINDEXEDPOLYGONALFACE((2,8,7,3));
#918=IFCINDEXEDPOLYGONALFACE((3,7,6,4));
#919=IFCINDEXEDPOLYGONALFACE((4,6,5,1));
#920=IFCCARTESIANPOINTLIST3D(((0.,0.,4.57),(60.96,0.,4.57),(60.96,36.58,4.57),(0.,36.58,4.57),(0.,0.,4.87),(0.,36.58,4.87),(60.96,36.58,4.87),(60.96,0.,4.87)));
#921=IFCPOLYGONALFACESET(#920,.T.,(#914,#915,#916,#917,#918,#919),$);
#922=IFCSTYLEDITEM(#921,(#35),$);
#923=IFCSHAPEREPRESENTATION(#7,'Body','Tessellation',(#921));
#924=IFCPRODUCTDEFINITIONSHAPE($,$,(#923));
#925=IFCLOCALPLACEMENT($,#6);
#926=IFCBUILDINGELEMENTPROXY('0jhcjH3CPEvu8nSRqnYNeN',#12,'Second_Floor_Slab_1',$,'BuildingPart',#925,#924,$,$);
#927=IFCINDEXEDPOLYGONALFACE((1,2,3,4));
#928=IFCINDEXEDPOLYGONALFACE((5,6,7,8));
#929=IFCINDEXEDPOLYGONALFACE((1,5,8,2));
#930=IFCINDEXEDPOLYGONALFACE((2,8,7,3));
#931=IFCINDEXEDPOLYGONALFACE((3,7,6,4));
#932=IFCINDEXEDPOLYGONALFACE((4,6,5,1));
#933=IFCCARTESIANPOINTLIST3D(((5.,5.,4.57),(40.,5.,4.57),(40.,25.,4.57),(5.,25.,4.57),(5.,5.,9.14),(5.,25.,9.14),(40.,25.,9.14),(40.,5.,9.14)));
#934=IFCPOLYGONALFACESET(#933,.T.,(#927,#928,#929,#930,#931,#932),$);
#935=IFCSTYLEDITEM(#934,(#478),$);
#936=IFCSHAPEREPRESENTATION(#7,'Body','Tessellation',(#934));
#937=IFCPRODUCTDEFINITIONSHAPE($,$,(#936));
#938=IFCLOCALPLACEMENT($,#6);
#939=IFCBUILDINGELEMENTPROXY('0RO9Kegh505QjT9Ugm8ABT',#12,'Food_Court_Dining_1',$,'BuildingPart',#938,#937,$,$);
#940=IFCINDEXEDPOLYGONALFACE((1,2,3,4));
#941=IFCINDEXEDPOLYGONALFACE((5,6,7,8));
#942=IFCINDEXEDPOLYGONALFACE((1,5,8,2));
#943=IFCINDEXEDPOLYGONALFACE((2,8,7,3));
#944=IFCINDEXEDPOLYGONALFACE((3,7,6,4));
#945=IFCINDEXEDPOLYGONALFACE((4,6,5,1));
#946=IFCCARTESIANPOINTLIST3D(((42.,5.,4.57),(47.,5.,4.57),(47.,9.,4.57),(42.,9.,4.57),(42.,5.,9.14),(42.,9.,9.14),(47.,9.,9.14),(47.,5.,9.14)));
#947=IFCPOLYGONALFACESET(#946,.T.,(#940,#941,#942,#943,#944,#945),$);
#948=IFCSTYLEDITEM(#947,(#478),$);
#949=IFCSHAPEREPRESENTATION(#7,'Body','Tessellation',(#947));
#950=IFCPRODUCTDEFINITIONSHAPE($,$,(#949));
#951=IFCLOCALPLACEMENT($,#6);
#952=IFCBUILDINGELEMENTPROXY('3lzFDHCsvAfgI9_3IgkzIn',#12,'Food_Stall_1',$,'BuildingPart',#951,#950,$,$);
#953=IFCINDEXEDPOLYGONALFACE((1,2,3,4));
#954=IFCINDEXEDPOLYGONALFACE((5,6,7,8));
#955=IFCINDEXEDPOLYGONALFACE((1,5,8,2));
#956=IFCINDEXEDPOLYGONALFACE((2,8,7,3));
#957=IFCINDEXEDPOLYGONALFACE((3,7,6,4));
#958=IFCINDEXEDPOLYGONALFACE((4,6,5,1));
#959=IFCCARTESIANPOINTLIST3D(((42.,10.,4.57),(47.,10.,4.57),(47.,14.,4.57),(42.,14.,4.57),(42.,10.,9.14),(42.,14.,9.14),(47.,14.,9.14),(47.,10.,9.14)));
#960=IFCPOLYGONALFACESET(#959,.T.,(#953,#954,#955,#956,#957,#958),$);
#961=IFCSTYLEDITEM(#960,(#478),$);
#962=IFCSHAPEREPRESENTATION(#7,'Body','Tessellation',(#960));
#963=IFCPRODUCTDEFINITIONSHAPE($,$,(#962));
#964=IFCLOCALPLACEMENT($,#6);
#965=IFCBUILDINGELEMENTPROXY('3GFnTcaC5BEv7ckvgxtgju',#12,'Food_Stall_2',$,'BuildingPart',#964,#963,$,$);
#966=IFCINDEXEDPOLYGONALFACE((1,2,3,4));
#967=IFCINDEXEDPOLYGONALFACE((5,6,7,8));
#968=IFCINDEXEDPOLYGONALFACE((1,5,8,2));
#969=IFCINDEXEDPOLYGONALFACE((2,8,7,3));
#970=IFCINDEXEDPOLYGONALFACE((3,7,6,4));
#971=IFCINDEXEDPOLYGONALFACE((4,6,5,1));
#972=IFCCARTESIANPOINTLIST3D(((42.,15.,4.57),(47.,15.,4.57),(47.,19.,4.57),(42.,19.,4.57),(42.,15.,9.14),(42.,19.,9.14),(47.,19.,9.14),(47.,15.,9.14)));
#973=IFCPOLYGONALFACESET(#972,.T.,(#966,#967,#968,#969,#970,#971),$);
#974=IFCSTYLEDITEM(#973,(#478),$);
#975=IFCSHAPEREPRESENTATION(#7,'Body','Tessellation',(#973));
#976=IFCPRODUCTDEFINITIONSHAPE($,$,(#975));
#977=IFCLOCALPLACEMENT($,#6);
#978=IFCBUILDINGELEMENTPROXY('1UA5CELLPBERmqOQLaNuQ$',#12,'Food_Stall_3',$,'BuildingPart',#977,#976,$,$);
#979=IFCINDEXEDPOLYGONALFACE((1,2,3,4));
#980=IFCINDEXEDPOLYGONALFACE((5,6,7,8));
#981=IFCINDEXEDPOLYGONALFACE((1,5,8,2));
#982=IFCINDEXEDPOLYGONALFACE((2,8,7,3));
#983=IFCINDEXEDPOLYGONALFACE((3,7,6,4));
#984=IFCINDEXEDPOLYGONALFACE((4,6,5,1));
#985=IFCCARTESIANPOINTLIST3D(((42.,20.,4.57),(47.,20.,4.57),(47.,24.,4.57),(42.,24.,4.57),(42.,20.,9.14),(42.,24.,9.14),(47.,24.,9.14),(47.,20.,9.14)));
#986=IFCPOLYGONALFACESET(#985,.T.,(#979,#980,#981,#982,#983,#984),$);
#987=IFCSTYLEDITEM(#986,(#478),$);
#988=IFCSHAPEREPRESENTATION(#7,'Body','Tessellation',(#986));
#989=IFCPRODUCTDEFINITIONSHAPE($,$,(#988));
#990=IFCLOCALPLACEMENT($,#6);
#991=IFCBUILDINGELEMENTPROXY('21GPE1kX19pPkZ2ocMm5kV',#12,'Food_Stall_4',$,'BuildingPart',#990,#989,$,$);
#992=IFCINDEXEDPOLYGONALFACE((1,2,3,4));
#993=IFCINDEXEDPOLYGONALFACE((5,6,7,8));
#994=IFCINDEXEDPOLYGONALFACE((1,5,8,2));
#995=IFCINDEXEDPOLYGONALFACE((2,8,7,3));
#996=IFCINDEXEDPOLYGONALFACE((3,7,6,4));
#997=IFCINDEXEDPOLYGONALFACE((4,6,5,1));
#998=IFCCARTESIANPOINTLIST3D(((48.,5.,4.57),(53.,5.,4.57),(53.,9.,4.57),(48.,9.,4.57),(48.,5.,9.14),(48.,9.,9.14),(53.,9.,9.14),(53.,5.,9.14)));
#999=IFCPOLYGONALFACESET(#998,.T.,(#992,#993,#994,#995,#996,#997),$);
#1000=IFCSTYLEDITEM(#999,(#478),$);
#1001=IFCSHAPEREPRESENTATION(#7,'Body','Tessellation',(#999));
#1002=IFCPRODUCTDEFINITIONSHAPE($,$,(#1001));
#1003=IFCLOCALPLACEMENT($,#6);
#1004=IFCBUILDINGELEMENTPROXY('1rW4kZTdH02O$kVaanGP4g',#12,'Food_Stall_5',$,'BuildingPart',#1003,#1002,$,$);
#1005=IFCINDEXEDPOLYGONALFACE((1,2,3,4));
#1006=IFCINDEXEDPOLYGONALFACE((5,6,7,8));
#1007=IFCINDEXEDPOLYGONALFACE((1,5,8,2));
#1008=IFCINDEXEDPOLYGONALFACE((2,8,7,3));
#1009=IFCINDEXEDPOLYGONALFACE((3,7,6,4));
#1010=IFCINDEXEDPOLYGONALFACE((4,6,5,1));
#1011=IFCCARTESIANPOINTLIST3D(((48.,10.,4.57),(53.,10.,4.57),(53.,14.,4.57),(48.,14.,4.57),(48.,10.,9.14),(48.,14.,9.14),(53.,14.,9.14),(53.,10.,9.14)));
#1012=IFCPOLYGONALFACESET(#1011,.T.,(#1005,#1006,#1007,#1008,#1009,#1010),$);
#1013=IFCSTYLEDITEM(#1012,(#478),$);
#1014=IFCSHAPEREPRESENTATION(#7,'Body','Tessellation',(#1012));
#1015=IFCPRODUCTDEFINITIONSHAPE($,$,(#1014));
#1016=IFCLOCALPLACEMENT($,#6);
#1017=IFCBUILDINGELEMENTPROXY('11YEC_IIj9EfRXrEZdTz_k',#12,'Food_Stall_6',$,'BuildingPart',#1016,#1015,$,$);
#1018=IFCINDEXEDPOLYGONALFACE((1,2,3,4));
#1019=IFCINDEXEDPOLYGONALFACE((5,6,7,8));
#1020=IFCINDEXEDPOLYGONALFACE((1,5,8,2));
#1021=IFCINDEXEDPOLYGONALFACE((2,8,7,3));
#1022=IFCINDEXEDPOLYGONALFACE((3,7,6,4));
#1023=IFCINDEXEDPOLYGONALFACE((4,6,5,1));
#1024=IFCCARTESIANPOINTLIST3D(((48.,15.,4.57),(53.,15.,4.57),(53.,19.,4.57),(48.,19.,4.57),(48.,15.,9.14),(48.,19.,9.14),(53.,19.,9.14),(53.,15.,9.14)));
#1025=IFCPOLYGONALFACESET(#1024,.T.,(#1018,#1019,#1020,#1021,#1022,#1023),$);
#1026=IFCSTYLEDITEM(#1025,(#478),$);
#1027=IFCSHAPEREPRESENTATION(#7,'Body','Tessellation',(#1025));
#1028=IFCPRODUCTDEFINITIONSHAPE($,$,(#1027));
#1029=IFCLOCALPLACEMENT($,#6);
#1030=IFCBUILDINGELEMENTPROXY('2Ms3ZfXPT2fOUFHraiSP1R',#12,'Food_Stall_7',$,'BuildingPart',#1029,#1028,$,$);
#1031=IFCINDEXEDPOLYGONALFACE((1,2,3,4));
#1032=IFCINDEXEDPOLYGONALFACE((5,6,7,8));
#1033=IFCINDEXEDPOLYGONALFACE((1,5,8,2));
#1034=IFCINDEXEDPOLYGONALFACE((2,8,7,3));
#1035=IFCINDEXEDPOLYGONALFACE((3,7,6,4));
#1036=IFCINDEXEDPOLYGONALFACE((4,6,5,1));
#1037=IFCCARTESIANPOINTLIST3D(((48.,20.,4.57),(53.,20.,4.57),(53.,24.,4.57),(48.,24.,4.57),(48.,20.,9.14),(48.,24.,9.14),(53.,24.,9.14),(53.,20.,9.14)));
#1038=IFCPOLYGONALFACESET(#1037,.T.,(#1031,#1032,#1033,#1034,#1035,#1036),$);
#1039=IFCSTYLEDITEM(#1038,(#478),$);
#1040=IFCSHAPEREPRESENTATION(#7,'Body','Tessellation',(#1038));
#1041=IFCPRODUCTDEFINITIONSHAPE($,$,(#1040));
#1042=IFCLOCALPLACEMENT($,#6);
#1043=IFCBUILDINGELEMENTPROXY('3$9zMkhZj26BoqWoMNdfsd',#12,'Food_Stall_8',$,'BuildingPart',#1042,#1041,$,$);
#1044=IFCINDEXEDPOLYGONALFACE((1,2,3,4));
#1045=IFCINDEXEDPOLYGONALFACE((5,6,7,8));
#1046=IFCINDEXEDPOLYGONALFACE((1,5,8,2));
#1047=IFCINDEXEDPOLYGONALFACE((2,8,7,3));
#1048=IFCINDEXEDPOLYGONALFACE((3,7,6,4));
#1049=IFCINDEXEDPOLYGONALFACE((4,6,5,1));
#1050=IFCCARTESIANPOINTLIST3D(((10.,26.,4.57),(20.,26.,4.57),(20.,34.,4.57),(10.,34.,4.57),(10.,26.,6.57),(10.,34.,6.57),(20.,34.,6.57),(20.,26.,6.57)));
#1051=IFCPOLYGONALFACESET(#1050,.T.,(#1044,#1045,#1046,#1047,#1048,#1049),$);
#1052=IFCSTYLEDITEM(#1051,(#478),$);
#1053=IFCSHAPEREPRESENTATION(#7,'Body','Tessellation',(#1051));
#1054=IFCPRODUCTDEFINITIONSHAPE($,$,(#1053));
#1055=IFCLOCALPLACEMENT($,#6);
#1056=IFCBUILDINGELEMENTPROXY('2by2Y6O6b6nwZ8JwzS3EQ2',#12,'Children_Play_Area_1',$,'BuildingPart',#1055,#1054,$,$);
#1057=IFCINDEXEDPOLYGONALFACE((1,2,3,4));
#1058=IFCINDEXEDPOLYGONALFACE((5,6,7,8));
#1059=IFCINDEXEDPOLYGONALFACE((1,5,8,2));
#1060=IFCINDEXEDPOLYGONALFACE((2,8,7,3));
#1061=IFCINDEXEDPOLYGONALFACE((3,7,6,4));
#1062=IFCINDEXEDPOLYGONALFACE((4,6,5,1));
#1063=IFCCARTESIANPOINTLIST3D(((0.5,12.,4.57),(5.5,12.,4.57),(5.5,16.,4.57),(0.5,16.,4.57),(0.5,12.,9.14),(0.5,16.,9.14),(5.5,16.,9.14),(5.5,12.,9.14)));
#1064=IFCPOLYGONALFACESET(#1063,.T.,(#1057,#1058,#1059,#1060,#1061,#1062),$);
#1065=IFCSTYLEDITEM(#1064,(#478),$);
#1066=IFCSHAPEREPRESENTATION(#7,'Body','Tessellation',(#1064));
#1067=IFCPRODUCTDEFINITIONSHAPE($,$,(#1066));
#1068=IFCLOCALPLACEMENT($,#6);
#1069=IFCBUILDINGELEMENTPROXY('1jliKghpr6ihYsDHLFXG_F',#12,'Restroom_2F_1',$,'BuildingPart',#1068,#1067,$,$);
#1070=IFCINDEXEDPOLYGONALFACE((1,2,3,4));
#1071=IFCINDEXEDPOLYGONALFACE((5,6,7,8));
#1072=IFCINDEXEDPOLYGONALFACE((1,5,8,2));
#1073=IFCINDEXEDPOLYGONALFACE((2,8,7,3));
#1074=IFCINDEXEDPOLYGONALFACE((3,7,6,4));
#1075=IFCINDEXEDPOLYGONALFACE((4,6,5,1));
#1076=IFCCARTESIANPOINTLIST3D(((0.5,16.5,4.57),(5.5,16.5,4.57),(5.5,20.5,4.57),(0.5,20.5,4.57),(0.5,16.5,9.14),(0.5,20.5,9.14),(5.5,20.5,9.14),(5.5,16.5,9.14)));
#1077=IFCPOLYGONALFACESET(#1076,.T.,(#1070,#1071,#1072,#1073,#1074,#1075),$);
#1078=IFCSTYLEDITEM(#1077,(#478),$);
#1079=IFCSHAPEREPRESENTATION(#7,'Body','Tessellation',(#1077));
#1080=IFCPRODUCTDEFINITIONSHAPE($,$,(#1079));
#1081=IFCLOCALPLACEMENT($,#6);
#1082=IFCBUILDINGELEMENTPROXY('2XWdy3tn15wuNwzvR6G1Ov',#12,'Restroom_2F_2',$,'BuildingPart',#1081,#1080,$,$);
#1083=IFCINDEXEDPOLYGONALFACE((1,2,3,4));
#1084=IFCINDEXEDPOLYGONALFACE((5,6,7,8));
#1085=IFCINDEXEDPOLYGONALFACE((1,5,8,2));
#1086=IFCINDEXEDPOLYGONALFACE((2,8,7,3));
#1087=IFCINDEXEDPOLYGONALFACE((3,7,6,4));
#1088=IFCINDEXEDPOLYGONALFACE((4,6,5,1));
#1089=IFCCARTESIANPOINTLIST3D(((0.5,21.,4.57),(5.5,21.,4.57),(5.5,25.,4.57),(0.5,25.,4.57),(0.5,21.,9.14),(0.5,25.,9.14),(5.5,25.,9.14),(5.5,21.,9.14)));
#1090=IFCPOLYGONALFACESET(#1089,.T.,(#1083,#1084,#1085,#1086,#1087,#1088),$);
#1091=IFCSTYLEDITEM(#1090,(#478),$);
#1092=IFCSHAPEREPRESENTATION(#7,'Body','Tessellation',(#1090));
#1093=IFCPRODUCTDEFINITIONSHAPE($,$,(#1092));
#1094=IFCLOCALPLACEMENT($,#6);
#1095=IFCBUILDINGELEMENTPROXY('0BZZJPDgLCYAMPIzlIoiyK',#12,'Restroom_2F_3',$,'BuildingPart',#1094,#1093,$,$);
#1096=IFCINDEXEDPOLYGONALFACE((1,2,3,4));
#1097=IFCINDEXEDPOLYGONALFACE((5,6,7,8));
#1098=IFCINDEXEDPOLYGONALFACE((1,5,8,2));
#1099=IFCINDEXEDPOLYGONALFACE((2,8,7,3));
#1100=IFCINDEXEDPOLYGONALFACE((3,7,6,4));
#1101=IFCINDEXEDPOLYGONALFACE((4,6,5,1));
#1102=IFCCARTESIANPOINTLIST3D(((0.,0.,9.14),(60.96,0.,9.14),(60.96,36.58,9.14),(0.,36.58,9.14),(0.,0.,9.440000000000001),(0.,36.58,9.440000000000001),(60.96,36.58,9.440000000000001),(60.96,0.,9.440000000000001)));
#1103=IFCPOLYGONALFACESET(#1102,.T.,(#1096,#1097,#1098,#1099,#1100,#1101),$);
#1104=IFCSTYLEDITEM(#1103,(#35),$);
#1105=IFCSHAPEREPRESENTATION(#7,'Body','Tessellation',(#1103));
#1106=IFCPRODUCTDEFINITIONSHAPE($,$,(#1105));
#1107=IFCLOCALPLACEMENT($,#6);
#1108=IFCBUILDINGELEMENTPROXY('2lPzxmK0D2MwRVlPvdupsi',#12,'Third_Floor_Slab_1',$,'BuildingPart',#1107,#1106,$,$);
#1109=IFCINDEXEDPOLYGONALFACE((1,2,3,4));
#1110=IFCINDEXEDPOLYGONALFACE((5,6,7,8));
#1111=IFCINDEXEDPOLYGONALFACE((1,5,8,2));
#1112=IFCINDEXEDPOLYGONALFACE((2,8,7,3));
#1113=IFCINDEXEDPOLYGONALFACE((3,7,6,4));
#1114=IFCINDEXEDPOLYGONALFACE((4,6,5,1));
#1115=IFCCARTESIANPOINTLIST3D(((2.,2.,9.14),(20.,2.,9.14),(20.,14.,9.14),(2.,14.,9.14),(2.,2.,13.71),(2.,14.,13.71),(20.,14.,13.71),(20.,2.,13.71)));
#1116=IFCPOLYGONALFACESET(#1115,.T.,(#1109,#1110,#1111,#1112,#1113,#1114),$);
#1117=IFCSTYLEDITEM(#1116,(#478),$);
#1118=IFCSHAPEREPRESENTATION(#7,'Body','Tessellation',(#1116));
#1119=IFCPRODUCTDEFINITIONSHAPE($,$,(#1118));
#1120=IFCLOCALPLACEMENT($,#6);
#1121=IFCBUILDINGELEMENTPROXY('01AEdFFFH5eP6I3RXCiaBe',#12,'Cinema_Auditorium_1',$,'BuildingPart',#1120,#1119,$,$);
#1122=IFCINDEXEDPOLYGONALFACE((1,2,3,4));
#1123=IFCINDEXEDPOLYGONALFACE((5,6,7,8));
#1124=IFCINDEXEDPOLYGONALFACE((1,5,8,2));
#1125=IFCINDEXEDPOLYGONALFACE((2,8,7,3));
#1126=IFCINDEXEDPOLYGONALFACE((3,7,6,4));
#1127=IFCINDEXEDPOLYGONALFACE((4,6,5,1));
#1128=IFCCARTESIANPOINTLIST3D(((22.,2.,9.14),(40.,2.,9.14),(40.,14.,9.14),(22.,14.,9.14),(22.,2.,13.71),(22.,14.,13.71),(40.,14.,13.71),(40.,2.,13.71)));
#1129=IFCPOLYGONALFACESET(#1128,.T.,(#1122,#1123,#1124,#1125,#1126,#1127),$);
#1130=IFCSTYLEDITEM(#1129,(#478),$);
#1131=IFCSHAPEREPRESENTATION(#7,'Body','Tessellation',(#1129));
#1132=IFCPRODUCTDEFINITIONSHAPE($,$,(#1131));
#1133=IFCLOCALPLACEMENT($,#6);
#1134=IFCBUILDINGELEMENTPROXY('1JBYKTVbv8RQaLuCZ2s1H7',#12,'Cinema_Auditorium_2',$,'BuildingPart',#1133,#1132,$,$);
#1135=IFCINDEXEDPOLYGONALFACE((1,2,3,4));
#1136=IFCINDEXEDPOLYGONALFACE((5,6,7,8));
#1137=IFCINDEXEDPOLYGONALFACE((1,5,8,2));
#1138=IFCINDEXEDPOLYGONALFACE((2,8,7,3));
#1139=IFCINDEXEDPOLYGONALFACE((3,7,6,4));
#1140=IFCINDEXEDPOLYGONALFACE((4,6,5,1));
#1141=IFCCARTESIANPOINTLIST3D(((2.,18.,9.14),(20.,18.,9.14),(20.,30.,9.14),(2.,30.,9.14),(2.,18.,13.71),(2.,30.,13.71),(20.,30.,13.71),(20.,18.,13.71)));
#1142=IFCPOLYGONALFACESET(#1141,.T.,(#1135,#1136,#1137,#1138,#1139,#1140),$);
#1143=IFCSTYLEDITEM(#1142,(#478),$);
#1144=IFCSHAPEREPRESENTATION(#7,'Body','Tessellation',(#1142));
#1145=IFCPRODUCTDEFINITIONSHAPE($,$,(#1144));
#1146=IFCLOCALPLACEMENT($,#6);
#1147=IFCBUILDINGELEMENTPROXY('1WPS2IiM54z9LoFo278qNH',#12,'Cinema_Auditorium_3',$,'BuildingPart',#1146,#1145,$,$);
#1148=IFCINDEXEDPOLYGONALFACE((1,2,3,4));
#1149=IFCINDEXEDPOLYGONALFACE((5,6,7,8));
#1150=IFCINDEXEDPOLYGONALFACE((1,5,8,2));
#1151=IFCINDEXEDPOLYGONALFACE((2,8,7,3));
#1152=IFCINDEXEDPOLYGONALFACE((3,7,6,4));
#1153=IFCINDEXEDPOLYGONALFACE((4,6,5,1));
#1154=IFCCARTESIANPOINTLIST3D(((22.,18.,9.14),(40.,18.,9.14),(40.,30.,9.14),(22.,30.,9.14),(22.,18.,13.71),(22.,30.,13.71),(40.,30.,13.71),(40.,18.,13.71)));
#1155=IFCPOLYGONALFACESET(#1154,.T.,(#1148,#1149,#1150,#1151,#1152,#1153),$);
#1156=IFCSTYLEDITEM(#1155,(#478),$);
#1157=IFCSHAPEREPRESENTATION(#7,'Body','Tessellation',(#1155));
#1158=IFCPRODUCTDEFINITIONSHAPE($,$,(#1157));
#1159=IFCLOCALPLACEMENT($,#6);
#1160=IFCBUILDINGELEMENTPROXY('029tnud6j4Xx$IL6MRwT6c',#12,'Cinema_Auditorium_4',$,'BuildingPart',#1159,#1158,$,$);
#1161=IFCINDEXEDPOLYGONALFACE((1,2,3,4));
#1162=IFCINDEXEDPOLYGONALFACE((5,6,7,8));
#1163=IFCINDEXEDPOLYGONALFACE((1,5,8,2));
#1164=IFCINDEXEDPOLYGONALFACE((2,8,7,3));
#1165=IFCINDEXEDPOLYGONALFACE((3,7,6,4));
#1166=IFCINDEXEDPOLYGONALFACE((4,6,5,1));
#1167=IFCCARTESIANPOINTLIST3D(((42.,8.,9.14),(67.,8.,9.14),(67.,20.,9.14),(42.,20.,9.14),(42.,8.,13.71),(42.,20.,13.71),(67.,20.,13.71),(67.,8.,13.71)));
#1168=IFCPOLYGONALFACESET(#1167,.T.,(#1161,#1162,#1163,#1164,#1165,#1166),$);
#1169=IFCSTYLEDITEM(#1168,(#478),$);
#1170=IFCSHAPEREPRESENTATION(#7,'Body','Tessellation',(#1168));
#1171=IFCPRODUCTDEFINITIONSHAPE($,$,(#1170));
#1172=IFCLOCALPLACEMENT($,#6);
#1173=IFCBUILDINGELEMENTPROXY('2yfYsibm9AiQkgqPqwndPI',#12,'Cinema_Foyer_1',$,'BuildingPart',#1172,#1171,$,$);
#1174=IFCINDEXEDPOLYGONALFACE((1,2,3,4));
#1175=IFCINDEXEDPOLYGONALFACE((5,6,7,8));
#1176=IFCINDEXEDPOLYGONALFACE((1,5,8,2));
#1177=IFCINDEXEDPOLYGONALFACE((2,8,7,3));
#1178=IFCINDEXEDPOLYGONALFACE((3,7,6,4));
#1179=IFCINDEXEDPOLYGONALFACE((4,6,5,1));
#1180=IFCCARTESIANPOINTLIST3D(((0.5,12.,9.14),(5.5,12.,9.14),(5.5,16.,9.14),(0.5,16.,9.14),(0.5,12.,13.71),(0.5,16.,13.71),(5.5,16.,13.71),(5.5,12.,13.71)));
#1181=IFCPOLYGONALFACESET(#1180,.T.,(#1174,#1175,#1176,#1177,#1178,#1179),$);
#1182=IFCSTYLEDITEM(#1181,(#478),$);
#1183=IFCSHAPEREPRESENTATION(#7,'Body','Tessellation',(#1181));
#1184=IFCPRODUCTDEFINITIONSHAPE($,$,(#1183));
#1185=IFCLOCALPLACEMENT($,#6);
#1186=IFCBUILDINGELEMENTPROXY('0vOErCKrL65gJ2tv3oL4om',#12,'Restroom_3F_1',$,'BuildingPart',#1185,#1184,$,$);
#1187=IFCINDEXEDPOLYGONALFACE((1,2,3,4));
#1188=IFCINDEXEDPOLYGONALFACE((5,6,7,8));
#1189=IFCINDEXEDPOLYGONALFACE((1,5,8,2));
#1190=IFCINDEXEDPOLYGONALFACE((2,8,7,3));
#1191=IFCINDEXEDPOLYGONALFACE((3,7,6,4));
#1192=IFCINDEXEDPOLYGONALFACE((4,6,5,1));
#1193=IFCCARTESIANPOINTLIST3D(((0.5,16.5,9.14),(5.5,16.5,9.14),(5.5,20.5,9.14),(0.5,20.5,9.14),(0.5,16.5,13.71),(0.5,20.5,13.71),(5.5,20.5,13.71),(5.5,16.5,13.71)));
#1194=IFCPOLYGONALFACESET(#1193,.T.,(#1187,#1188,#1189,#1190,#1191,#1192),$);
#1195=IFCSTYLEDITEM(#1194,(#478),$);
#1196=IFCSHAPEREPRESENTATION(#7,'Body','Tessellation',(#1194));
#1197=IFCPRODUCTDEFINITIONSHAPE($,$,(#1196));
#1198=IFCLOCALPLACEMENT($,#6);
#1199=IFCBUILDINGELEMENTPROXY('178LEDnTnEkx1Ex63acwmL',#12,'Restroom_3F_2',$,'BuildingPart',#1198,#1197,$,$);
#1200=IFCINDEXEDPOLYGONALFACE((1,2,3,4));
#1201=IFCINDEXEDPOLYGONALFACE((5,6,7,8));
#1202=IFCINDEXEDPOLYGONALFACE((1,5,8,2));
#1203=IFCINDEXEDPOLYGONALFACE((2,8,7,3));
#1204=IFCINDEXEDPOLYGONALFACE((3,7,6,4));
#1205=IFCINDEXEDPOLYGONALFACE((4,6,5,1));
#1206=IFCCARTESIANPOINTLIST3D(((0.5,21.,9.14),(5.5,21.,9.14),(5.5,25.,9.14),(0.5,25.,9.14),(0.5,21.,13.71),(0.5,25.,13.71),(5.5,25.,13.71),(5.5,21.,13.71)));
#1207=IFCPOLYGONALFACESET(#1206,.T.,(#1200,#1201,#1202,#1203,#1204,#1205),$);
#1208=IFCSTYLEDITEM(#1207,(#478),$);
#1209=IFCSHAPEREPRESENTATION(#7,'Body','Tessellation',(#1207));
#1210=IFCPRODUCTDEFINITIONSHAPE($,$,(#1209));
#1211=IFCLOCALPLACEMENT($,#6);
#1212=IFCBUILDINGELEMENTPROXY('2pWQXzuR57nOmfwp6GwnYc',#12,'Restroom_3F_3',$,'BuildingPart',#1211,#1210,$,$);
#1213=IFCINDEXEDPOLYGONALFACE((1,2,3,4));
#1214=IFCINDEXEDPOLYGONALFACE((5,6,7,8));
#1215=IFCINDEXEDPOLYGONALFACE((1,5,8,2));
#1216=IFCINDEXEDPOLYGONALFACE((2,8,7,3));
#1217=IFCINDEXEDPOLYGONALFACE((3,7,6,4));
#1218=IFCINDEXEDPOLYGONALFACE((4,6,5,1));
#1219=IFCCARTESIANPOINTLIST3D(((0.,0.,13.71),(60.96,0.,13.71),(60.96,36.58,13.71),(0.,36.58,13.71),(0.,0.,14.010000000000002),(0.,36.58,14.010000000000002),(60.96,36.58,14.010000000000002),(60.96,0.,14.010000000000002)));
#1220=IFCPOLYGONALFACESET(#1219,.T.,(#1213,#1214,#1215,#1216,#1217,#1218),$);
#1221=IFCCOLOURRGB($,0.25,0.25,0.25);
#1222=IFCSURFACESTYLERENDERING(#1221,0.,$,$,$,$,$,$,.NOTDEFINED.);
#1223=IFCSURFACESTYLE('Roof - Dark Grey Tile',.BOTH.,(#1222));
#1224=IFCSTYLEDITEM(#1220,(#1223),$);
#1225=IFCSHAPEREPRESENTATION(#7,'Body','Tessellation',(#1220));
#1226=IFCPRODUCTDEFINITIONSHAPE($,$,(#1225));
#1227=IFCLOCALPLACEMENT($,#6);
#1228=IFCBUILDINGELEMENTPROXY('2rj8ZLU_rFpRqzhifTFuWY',#12,'Flat_Roof_Slab_1',$,'BuildingPart',#1227,#1226,$,$);
#1229=IFCINDEXEDPOLYGONALFACE((1,2,3,4));
#1230=IFCINDEXEDPOLYGONALFACE((5,6,7,8));
#1231=IFCINDEXEDPOLYGONALFACE((1,5,8,2));
#1232=IFCINDEXEDPOLYGONALFACE((2,8,7,3));
#1233=IFCINDEXEDPOLYGONALFACE((3,7,6,4));
#1234=IFCINDEXEDPOLYGONALFACE((4,6,5,1));
#1235=IFCCARTESIANPOINTLIST3D(((20.,13.,13.71),(40.,13.,13.71),(40.,23.,13.71),(20.,23.,13.71),(20.,13.,15.21),(20.,23.,15.21),(40.,23.,15.21),(40.,13.,15.21)));
#1236=IFCPOLYGONALFACESET(#1235,.T.,(#1229,#1230,#1231,#1232,#1233,#1234),$);
#1237=IFCCOLOURRGB($,0.75,0.88,0.95);
#1238=IFCSURFACESTYLERENDERING(#1237,0.35,$,$,$,$,$,$,.NOTDEFINED.);
#1239=IFCSURFACESTYLE('Window - Glass',.BOTH.,(#1238));
#1240=IFCSTYLEDITEM(#1236,(#1239),$);
#1241=IFCSHAPEREPRESENTATION(#7,'Body','Tessellation',(#1236));
#1242=IFCPRODUCTDEFINITIONSHAPE($,$,(#1241));
#1243=IFCLOCALPLACEMENT($,#6);
#1244=IFCBUILDINGELEMENTPROXY('2_SVE8DazDc8uEdUBjuFto',#12,'Atrium_Skylight_1',$,'BuildingInstallation',#1243,#1242,$,$);
#1245=IFCINDEXEDPOLYGONALFACE((1,2,3,4));
#1246=IFCINDEXEDPOLYGONALFACE((5,6,7,8));
#1247=IFCINDEXEDPOLYGONALFACE((1,5,8,2));
#1248=IFCINDEXEDPOLYGONALFACE((2,8,7,3));
#1249=IFCINDEXEDPOLYGONALFACE((3,7,6,4));
#1250=IFCINDEXEDPOLYGONALFACE((4,6,5,1));
#1251=IFCCARTESIANPOINTLIST3D(((8.,-8.,0.),(28.,-8.,0.),(28.,0.,0.),(8.,0.,0.),(8.,-8.,4.),(8.,0.,4.),(28.,0.,4.),(28.,-8.,4.)));
#1252=IFCPOLYGONALFACESET(#1251,.T.,(#1245,#1246,#1247,#1248,#1249,#1250),$);
#1253=IFCSTYLEDITEM(#1252,(#365),$);
#1254=IFCSHAPEREPRESENTATION(#7,'Body','Tessellation',(#1252));
#1255=IFCPRODUCTDEFINITIONSHAPE($,$,(#1254));
#1256=IFCLOCALPLACEMENT($,#6);
#1257=IFCBUILDINGELEMENTPROXY('0TnrA$i$f0txmDOh3ZC4AW',#12,'Drop_Off_Canopy_1',$,'BuildingInstallation',#1256,#1255,$,$);
#1258=IFCRELCONTAINEDINSPATIALSTRUCTURE('1GQ3u_Y4T8q8VAeJvloOQG',#12,$,$,(#24,#40,#56,#69,#82,#95,#108,#121,#134,#147,#160,#173,#186,#199,#212,#225,#238,#251,#264,#277,#290,#303,#316,#329,#342,#355,#370,#383,#399,#412,#425,#438,#454,#467,#483,#496,#509,#522,#535,#548,#561,#574,#587,#600,#613,#626,#639,#652,#665,#678,#691,#704,#717,#730,#743,#756,#769,#782,#795,#808,#821,#834,#847,#860,#875,#887,#900,#913,#926,#939,#952,#965,#978,#991,#1004,#1017,#1030,#1043,#1056,#1069,#1082,#1095,#1108,#1121,#1134,#1147,#1160,#1173,#1186,#1199,#1212,#1228,#1244,#1257),#19);
ENDSEC;
END-ISO-10303-21;
