ISO-10303-21;
HEADER;
FILE_DESCRIPTION(('ViewDefinition [CoordinationView]'),'2;1');
FILE_NAME('','2026-10-09T16:33:06',(''),(''),'IfcOpenShell 0.9.0alpha0-8c614fa','IfcOpenShell 0.9.0alpha0-8c614fa','');
FILE_SCHEMA(('IFC4'));
ENDSEC;
DATA;
#1=IFCSIUNIT(*,.LENGTHUNIT.,$,.METRE.);
#2=IFCUNITASSIGNMENT((#1));
#3=IFCCARTESIANPOINT((0.,0.,0.));
#4=IFCDIRECTION((0.,0.,1.));
#5=IFCDIRECTION((1.,0.,0.));
#6=IFCAXIS2PLACEMENT3D(#3,#4,#5);
#7=IFCGEOMETRICREPRESENTATIONCONTEXT($,'Model',3,1.E-05,#6,$);
#8=IFCPERSON($,'Converter',$,$,$,$,$,$);
#9=IFCORGANIZATION($,'CityJSON-to-IFC',$,$,$);
#10=IFCPERSONANDORGANIZATION(#8,#9,$);
#11=IFCAPPLICATION(#9,'1.0','CityJSON to IFC Converter','cityjson_to_ifc');
#12=IFCOWNERHISTORY(#10,#11,$,.ADDED.,$,$,$,1791543786);
#13=IFCPROJECT('16kCPsaWv7mvGia1tjdBor',#12,'CityJSON Conversion',$,$,$,$,(#7),#2);
#14=IFCLOCALPLACEMENT($,#6);
#15=IFCSITE('3AvSeJeyn53hyWBcc2_Zo9',#12,'Site',$,$,#14,$,$,.ELEMENT.,$,$,$,$,$);
#16=IFCLOCALPLACEMENT($,#6);
#17=IFCBUILDING('1JJ0tnbeH7ePcN$8PykE8Y',#12,'Building',$,$,#16,$,$,.ELEMENT.,$,$,$);
#18=IFCLOCALPLACEMENT($,#6);
#19=IFCBUILDINGSTOREY('0qWHDupLL2GwBzGkYuudyj',#12,'Storey',$,$,#18,$,$,.ELEMENT.,$);
#20=IFCRELAGGREGATES('1ZUt3bxH53QgBlxJH3wtET',#12,$,$,#13,(#15));
#21=IFCRELAGGREGATES('1U3RAQkYfFevCYOZnlyBbU',#12,$,$,#15,(#17));
#22=IFCRELAGGREGATES('1s3JUVgJbB_xVkONG0F9lB',#12,$,$,#17,(#19));
#23=IFCLOCALPLACEMENT($,#6);
#24=IFCBUILDINGELEMENTPROXY('15VQWLudTFpRdOS6mn4HPs',#12,'Building1',$,'Building',#23,$,$,$);
#25=IFCINDEXEDPOLYGONALFACE((1,2,3,4));
#26=IFCINDEXEDPOLYGONALFACE((5,6,7,8));
#27=IFCINDEXEDPOLYGONALFACE((1,5,8,2));
#28=IFCINDEXEDPOLYGONALFACE((2,8,7,3));
#29=IFCINDEXEDPOLYGONALFACE((3,7,6,4));
#30=IFCINDEXEDPOLYGONALFACE((4,6,5,1));
#31=IFCCARTESIANPOINTLIST3D(((0.,0.,0.),(9.14,0.,0.),(9.14,6.1,0.),(0.,6.1,0.),(0.,0.,0.15),(0.,6.1,0.15),(9.14,6.1,0.15),(9.14,0.,0.15)));
#32=IFCPOLYGONALFACESET(#31,.T.,(#25,#26,#27,#28,#29,#30),$);
#33=IFCCOLOURRGB($,0.75,0.75,0.75);
#34=IFCSURFACESTYLERENDERING(#33,0.,$,$,$,$,$,$,.NOTDEFINED.);
#35=IFCSURFACESTYLE('Slab - Concrete',.BOTH.,(#34));
#36=IFCSTYLEDITEM(#32,(#35),$);
#37=IFCSHAPEREPRESENTATION(#7,'Body','Tessellation',(#32));
#38=IFCPRODUCTDEFINITIONSHAPE($,$,(#37));
#39=IFCLOCALPLACEMENT($,#6);
#40=IFCBUILDINGELEMENTPROXY('1QxjkbKO57IOc7BkdF0tER',#12,'GroundFloorSlab',$,'BuildingPart',#39,#38,$,$);
#41=IFCINDEXEDPOLYGONALFACE((1,2,3,4));
#42=IFCINDEXEDPOLYGONALFACE((5,6,7,8));
#43=IFCINDEXEDPOLYGONALFACE((1,5,8,2));
#44=IFCINDEXEDPOLYGONALFACE((2,8,7,3));
#45=IFCINDEXEDPOLYGONALFACE((3,7,6,4));
#46=IFCINDEXEDPOLYGONALFACE((4,6,5,1));
#47=IFCCARTESIANPOINTLIST3D(((0.,0.,0.),(9.14,0.,0.),(9.14,0.2,0.),(0.,0.2,0.),(0.,0.,3.05),(0.,0.2,3.05),(9.14,0.2,3.05),(9.14,0.,3.05)));
#48=IFCPOLYGONALFACESET(#47,.T.,(#41,#42,#43,#44,#45,#46),$);
#49=IFCCOLOURRGB($,0.96,0.91,0.8);
#50=IFCSURFACESTYLERENDERING(#49,0.,$,$,$,$,$,$,.NOTDEFINED.);
#51=IFCSURFACESTYLE('Wall - Light Cream',.BOTH.,(#50));
#52=IFCSTYLEDITEM(#48,(#51),$);
#53=IFCSHAPEREPRESENTATION(#7,'Body','Tessellation',(#48));
#54=IFCPRODUCTDEFINITIONSHAPE($,$,(#53));
#55=IFCLOCALPLACEMENT($,#6);
#56=IFCBUILDINGELEMENTPROXY('08xoJgRGH01PePJp6u05sg',#12,'ExteriorWall_GF_Front',$,'BuildingPart',#55,#54,$,$);
#57=IFCINDEXEDPOLYGONALFACE((1,2,3,4));
#58=IFCINDEXEDPOLYGONALFACE((5,6,7,8));
#59=IFCINDEXEDPOLYGONALFACE((1,5,8,2));
#60=IFCINDEXEDPOLYGONALFACE((2,8,7,3));
#61=IFCINDEXEDPOLYGONALFACE((3,7,6,4));
#62=IFCINDEXEDPOLYGONALFACE((4,6,5,1));
#63=IFCCARTESIANPOINTLIST3D(((0.,5.9,0.),(9.14,5.9,0.),(9.14,6.1000000000000005,0.),(0.,6.1000000000000005,0.),(0.,5.9,3.05),(0.,6.1000000000000005,3.05),(9.14,6.1000000000000005,3.05),(9.14,5.9,3.05)));
#64=IFCPOLYGONALFACESET(#63,.T.,(#57,#58,#59,#60,#61,#62),$);
#65=IFCSTYLEDITEM(#64,(#51),$);
#66=IFCSHAPEREPRESENTATION(#7,'Body','Tessellation',(#64));
#67=IFCPRODUCTDEFINITIONSHAPE($,$,(#66));
#68=IFCLOCALPLACEMENT($,#6);
#69=IFCBUILDINGELEMENTPROXY('1KB$7VcELApwnHYCWdhUsv',#12,'ExteriorWall_GF_Rear',$,'BuildingPart',#68,#67,$,$);
#70=IFCINDEXEDPOLYGONALFACE((1,2,3,4));
#71=IFCINDEXEDPOLYGONALFACE((5,6,7,8));
#72=IFCINDEXEDPOLYGONALFACE((1,5,8,2));
#73=IFCINDEXEDPOLYGONALFACE((2,8,7,3));
#74=IFCINDEXEDPOLYGONALFACE((3,7,6,4));
#75=IFCINDEXEDPOLYGONALFACE((4,6,5,1));
#76=IFCCARTESIANPOINTLIST3D(((0.2,0.,0.),(0.2,6.1,0.),(0.,6.1,0.),(0.,0.,0.),(0.2,0.,3.05),(0.,0.,3.05),(0.,6.1,3.05),(0.2,6.1,3.05)));
#77=IFCPOLYGONALFACESET(#76,.T.,(#70,#71,#72,#73,#74,#75),$);
#78=IFCSTYLEDITEM(#77,(#51),$);
#79=IFCSHAPEREPRESENTATION(#7,'Body','Tessellation',(#77));
#80=IFCPRODUCTDEFINITIONSHAPE($,$,(#79));
#81=IFCLOCALPLACEMENT($,#6);
#82=IFCBUILDINGELEMENTPROXY('1o1ZvHBfD59gATejYqefOz',#12,'ExteriorWall_GF_Left',$,'BuildingPart',#81,#80,$,$);
#83=IFCINDEXEDPOLYGONALFACE((1,2,3,4));
#84=IFCINDEXEDPOLYGONALFACE((5,6,7,8));
#85=IFCINDEXEDPOLYGONALFACE((1,5,8,2));
#86=IFCINDEXEDPOLYGONALFACE((2,8,7,3));
#87=IFCINDEXEDPOLYGONALFACE((3,7,6,4));
#88=IFCINDEXEDPOLYGONALFACE((4,6,5,1));
#89=IFCCARTESIANPOINTLIST3D(((9.14,0.,0.),(9.14,6.1,0.),(8.940000000000001,6.1,0.),(8.940000000000001,0.,0.),(9.14,0.,3.05),(8.940000000000001,0.,3.05),(8.940000000000001,6.1,3.05),(9.14,6.1,3.05)));
#90=IFCPOLYGONALFACESET(#89,.T.,(#83,#84,#85,#86,#87,#88),$);
#91=IFCSTYLEDITEM(#90,(#51),$);
#92=IFCSHAPEREPRESENTATION(#7,'Body','Tessellation',(#90));
#93=IFCPRODUCTDEFINITIONSHAPE($,$,(#92));
#94=IFCLOCALPLACEMENT($,#6);
#95=IFCBUILDINGELEMENTPROXY('0pI$nvLjjBuR6EGcfPBv0Y',#12,'ExteriorWall_GF_Right',$,'BuildingPart',#94,#93,$,$);
#96=IFCINDEXEDPOLYGONALFACE((1,2,3,4));
#97=IFCINDEXEDPOLYGONALFACE((5,6,7,8));
#98=IFCINDEXEDPOLYGONALFACE((1,5,8,2));
#99=IFCINDEXEDPOLYGONALFACE((2,8,7,3));
#100=IFCINDEXEDPOLYGONALFACE((3,7,6,4));
#101=IFCINDEXEDPOLYGONALFACE((4,6,5,1));
#102=IFCCARTESIANPOINTLIST3D(((4.57,0.,0.),(4.57,6.1,0.),(4.42,6.1,0.),(4.42,0.,0.),(4.57,0.,3.05),(4.42,0.,3.05),(4.42,6.1,3.05),(4.57,6.1,3.05)));
#103=IFCPOLYGONALFACESET(#102,.T.,(#96,#97,#98,#99,#100,#101),$);
#104=IFCSTYLEDITEM(#103,(#51),$);
#105=IFCSHAPEREPRESENTATION(#7,'Body','Tessellation',(#103));
#106=IFCPRODUCTDEFINITIONSHAPE($,$,(#105));
#107=IFCLOCALPLACEMENT($,#6);
#108=IFCBUILDINGELEMENTPROXY('1z$b3KbDXBkfORRvfc8_Fa',#12,'InteriorWall_GF_1',$,'BuildingPart',#107,#106,$,$);
#109=IFCINDEXEDPOLYGONALFACE((1,2,3,4));
#110=IFCINDEXEDPOLYGONALFACE((5,6,7,8));
#111=IFCINDEXEDPOLYGONALFACE((1,5,8,2));
#112=IFCINDEXEDPOLYGONALFACE((2,8,7,3));
#113=IFCINDEXEDPOLYGONALFACE((3,7,6,4));
#114=IFCINDEXEDPOLYGONALFACE((4,6,5,1));
#115=IFCCARTESIANPOINTLIST3D(((0.2,3.5,0.),(4.57,3.5,0.),(4.57,3.65,0.),(0.2,3.65,0.),(0.2,3.5,3.05),(0.2,3.65,3.05),(4.57,3.65,3.05),(4.57,3.5,3.05)));
#116=IFCPOLYGONALFACESET(#115,.T.,(#109,#110,#111,#112,#113,#114),$);
#117=IFCSTYLEDITEM(#116,(#51),$);
#118=IFCSHAPEREPRESENTATION(#7,'Body','Tessellation',(#116));
#119=IFCPRODUCTDEFINITIONSHAPE($,$,(#118));
#120=IFCLOCALPLACEMENT($,#6);
#121=IFCBUILDINGELEMENTPROXY('0KNFYzi9LB_uSbxy6A7Q60',#12,'InteriorWall_GF_2',$,'BuildingPart',#120,#119,$,$);
#122=IFCINDEXEDPOLYGONALFACE((1,2,3,4));
#123=IFCINDEXEDPOLYGONALFACE((5,6,7,8));
#124=IFCINDEXEDPOLYGONALFACE((1,5,8,2));
#125=IFCINDEXEDPOLYGONALFACE((2,8,7,3));
#126=IFCINDEXEDPOLYGONALFACE((3,7,6,4));
#127=IFCINDEXEDPOLYGONALFACE((4,6,5,1));
#128=IFCCARTESIANPOINTLIST3D(((0.2,0.2,0.),(4.57,0.2,0.),(4.57,3.5,0.),(0.2,3.5,0.),(0.2,0.2,3.05),(0.2,3.5,3.05),(4.57,3.5,3.05),(4.57,0.2,3.05)));
#129=IFCPOLYGONALFACESET(#128,.T.,(#122,#123,#124,#125,#126,#127),$);
#130=IFCCOLOURRGB($,0.9,0.95,0.85);
#131=IFCSURFACESTYLERENDERING(#130,0.75,$,$,$,$,$,$,.NOTDEFINED.);
#132=IFCSURFACESTYLE('Room Volume',.BOTH.,(#131));
#133=IFCSTYLEDITEM(#129,(#132),$);
#134=IFCSHAPEREPRESENTATION(#7,'Body','Tessellation',(#129));
#135=IFCPRODUCTDEFINITIONSHAPE($,$,(#134));
#136=IFCLOCALPLACEMENT($,#6);
#137=IFCBUILDINGELEMENTPROXY('2qumuVM5f4SugQ2zTZxwtz',#12,'LivingRoom',$,'BuildingPart',#136,#135,$,$);
#138=IFCINDEXEDPOLYGONALFACE((1,2,3,4));
#139=IFCINDEXEDPOLYGONALFACE((5,6,7,8));
#140=IFCINDEXEDPOLYGONALFACE((1,5,8,2));
#141=IFCINDEXEDPOLYGONALFACE((2,8,7,3));
#142=IFCINDEXEDPOLYGONALFACE((3,7,6,4));
#143=IFCINDEXEDPOLYGONALFACE((4,6,5,1));
#144=IFCCARTESIANPOINTLIST3D(((0.2,3.65,0.),(4.57,3.65,0.),(4.57,5.949999999999999,0.),(0.2,5.949999999999999,0.),(0.2,3.65,3.05),(0.2,5.949999999999999,3.05),(4.57,5.949999999999999,3.05),(4.57,3.65,3.05)));
#145=IFCPOLYGONALFACESET(#144,.T.,(#138,#139,#140,#141,#142,#143),$);
#146=IFCSTYLEDITEM(#145,(#132),$);
#147=IFCSHAPEREPRESENTATION(#7,'Body','Tessellation',(#145));
#148=IFCPRODUCTDEFINITIONSHAPE($,$,(#147));
#149=IFCLOCALPLACEMENT($,#6);
#150=IFCBUILDINGELEMENTPROXY('0PJNdy_kf21v5jxzTSWorA',#12,'Bedroom',$,'BuildingPart',#149,#148,$,$);
#151=IFCINDEXEDPOLYGONALFACE((1,2,3,4));
#152=IFCINDEXEDPOLYGONALFACE((5,6,7,8));
#153=IFCINDEXEDPOLYGONALFACE((1,5,8,2));
#154=IFCINDEXEDPOLYGONALFACE((2,8,7,3));
#155=IFCINDEXEDPOLYGONALFACE((3,7,6,4));
#156=IFCINDEXEDPOLYGONALFACE((4,6,5,1));
#157=IFCCARTESIANPOINTLIST3D(((4.72,0.2,0.),(9.09,0.2,0.),(9.09,5.9,0.),(4.72,5.9,0.),(4.72,0.2,3.05),(4.72,5.9,3.05),(9.09,5.9,3.05),(9.09,0.2,3.05)));
#158=IFCPOLYGONALFACESET(#157,.T.,(#151,#152,#153,#154,#155,#156),$);
#159=IFCSTYLEDITEM(#158,(#132),$);
#160=IFCSHAPEREPRESENTATION(#7,'Body','Tessellation',(#158));
#161=IFCPRODUCTDEFINITIONSHAPE($,$,(#160));
#162=IFCLOCALPLACEMENT($,#6);
#163=IFCBUILDINGELEMENTPROXY('3L3f5zMD95VQXHkYGoT_SF',#12,'Kitchen',$,'BuildingPart',#162,#161,$,$);
#164=IFCINDEXEDPOLYGONALFACE((1,2,3,4));
#165=IFCINDEXEDPOLYGONALFACE((5,6,7,8));
#166=IFCINDEXEDPOLYGONALFACE((1,5,8,2));
#167=IFCINDEXEDPOLYGONALFACE((2,8,7,3));
#168=IFCINDEXEDPOLYGONALFACE((3,7,6,4));
#169=IFCINDEXEDPOLYGONALFACE((4,6,5,1));
#170=IFCCARTESIANPOINTLIST3D(((1.8,-0.01,0.),(2.71,-0.01,0.),(2.71,0.07,0.),(1.8,0.07,0.),(1.8,-0.01,2.13),(1.8,0.07,2.13),(2.71,0.07,2.13),(2.71,-0.01,2.13)));
#171=IFCPOLYGONALFACESET(#170,.T.,(#164,#165,#166,#167,#168,#169),$);
#172=IFCCOLOURRGB($,0.4,0.26,0.13);
#173=IFCSURFACESTYLERENDERING(#172,0.,$,$,$,$,$,$,.NOTDEFINED.);
#174=IFCSURFACESTYLE('Door - Brown',.BOTH.,(#173));
#175=IFCSTYLEDITEM(#171,(#174),$);
#176=IFCSHAPEREPRESENTATION(#7,'Body','Tessellation',(#171));
#177=IFCPRODUCTDEFINITIONSHAPE($,$,(#176));
#178=IFCLOCALPLACEMENT($,#6);
#179=IFCBUILDINGELEMENTPROXY('2bvkiY1bfDBA3Gws6PyICE',#12,'MainEntranceDoor',$,'BuildingPart',#178,#177,$,$);
#180=IFCINDEXEDPOLYGONALFACE((1,2,3,4));
#181=IFCINDEXEDPOLYGONALFACE((5,6,7,8));
#182=IFCINDEXEDPOLYGONALFACE((1,5,8,2));
#183=IFCINDEXEDPOLYGONALFACE((2,8,7,3));
#184=IFCINDEXEDPOLYGONALFACE((3,7,6,4));
#185=IFCINDEXEDPOLYGONALFACE((4,6,5,1));
#186=IFCCARTESIANPOINTLIST3D(((2.,3.46,0.),(2.85,3.46,0.),(2.85,3.54,0.),(2.,3.54,0.),(2.,3.46,2.1),(2.,3.54,2.1),(2.85,3.54,2.1),(2.85,3.46,2.1)));
#187=IFCPOLYGONALFACESET(#186,.T.,(#180,#181,#182,#183,#184,#185),$);
#188=IFCSTYLEDITEM(#187,(#174),$);
#189=IFCSHAPEREPRESENTATION(#7,'Body','Tessellation',(#187));
#190=IFCPRODUCTDEFINITIONSHAPE($,$,(#189));
#191=IFCLOCALPLACEMENT($,#6);
#192=IFCBUILDINGELEMENTPROXY('12yXBYVmf8rwgCsr88QGjU',#12,'InteriorBedroomDoor',$,'BuildingPart',#191,#190,$,$);
#193=IFCINDEXEDPOLYGONALFACE((1,2,3,4));
#194=IFCINDEXEDPOLYGONALFACE((5,6,7,8));
#195=IFCINDEXEDPOLYGONALFACE((1,5,8,2));
#196=IFCINDEXEDPOLYGONALFACE((2,8,7,3));
#197=IFCINDEXEDPOLYGONALFACE((3,7,6,4));
#198=IFCINDEXEDPOLYGONALFACE((4,6,5,1));
#199=IFCCARTESIANPOINTLIST3D(((4.53,1.5,0.),(4.61,1.5,0.),(4.61,2.4,0.),(4.53,2.4,0.),(4.53,1.5,2.1),(4.53,2.4,2.1),(4.61,2.4,2.1),(4.61,1.5,2.1)));
#200=IFCPOLYGONALFACESET(#199,.T.,(#193,#194,#195,#196,#197,#198),$);
#201=IFCSTYLEDITEM(#200,(#174),$);
#202=IFCSHAPEREPRESENTATION(#7,'Body','Tessellation',(#200));
#203=IFCPRODUCTDEFINITIONSHAPE($,$,(#202));
#204=IFCLOCALPLACEMENT($,#6);
#205=IFCBUILDINGELEMENTPROXY('3GHhZPPY50v8VslG9FgAP7',#12,'KitchenDoorway',$,'BuildingPart',#204,#203,$,$);
#206=IFCINDEXEDPOLYGONALFACE((1,2,3,4));
#207=IFCINDEXEDPOLYGONALFACE((5,6,7,8));
#208=IFCINDEXEDPOLYGONALFACE((1,5,8,2));
#209=IFCINDEXEDPOLYGONALFACE((2,8,7,3));
#210=IFCINDEXEDPOLYGONALFACE((3,7,6,4));
#211=IFCINDEXEDPOLYGONALFACE((4,6,5,1));
#212=IFCCARTESIANPOINTLIST3D(((0.4,-0.01,0.91),(1.62,-0.01,0.91),(1.62,0.07,0.91),(0.4,0.07,0.91),(0.4,-0.01,1.82),(0.4,0.07,1.82),(1.62,0.07,1.82),(1.62,-0.01,1.82)));
#213=IFCPOLYGONALFACESET(#212,.T.,(#206,#207,#208,#209,#210,#211),$);
#214=IFCCOLOURRGB($,0.75,0.88,0.95);
#215=IFCSURFACESTYLERENDERING(#214,0.35,$,$,$,$,$,$,.NOTDEFINED.);
#216=IFCSURFACESTYLE('Window - Glass',.BOTH.,(#215));
#217=IFCSTYLEDITEM(#213,(#216),$);
#218=IFCSHAPEREPRESENTATION(#7,'Body','Tessellation',(#213));
#219=IFCPRODUCTDEFINITIONSHAPE($,$,(#218));
#220=IFCLOCALPLACEMENT($,#6);
#221=IFCBUILDINGELEMENTPROXY('0QMQ2luMTBg9K2llAWjFlK',#12,'FrontWindow_1',$,'BuildingPart',#220,#219,$,$);
#222=IFCINDEXEDPOLYGONALFACE((1,2,3,4));
#223=IFCINDEXEDPOLYGONALFACE((5,6,7,8));
#224=IFCINDEXEDPOLYGONALFACE((1,5,8,2));
#225=IFCINDEXEDPOLYGONALFACE((2,8,7,3));
#226=IFCINDEXEDPOLYGONALFACE((3,7,6,4));
#227=IFCINDEXEDPOLYGONALFACE((4,6,5,1));
#228=IFCCARTESIANPOINTLIST3D(((3.,-0.01,0.91),(4.22,-0.01,0.91),(4.22,0.07,0.91),(3.,0.07,0.91),(3.,-0.01,1.82),(3.,0.07,1.82),(4.22,0.07,1.82),(4.22,-0.01,1.82)));
#229=IFCPOLYGONALFACESET(#228,.T.,(#222,#223,#224,#225,#226,#227),$);
#230=IFCSTYLEDITEM(#229,(#216),$);
#231=IFCSHAPEREPRESENTATION(#7,'Body','Tessellation',(#229));
#232=IFCPRODUCTDEFINITIONSHAPE($,$,(#231));
#233=IFCLOCALPLACEMENT($,#6);
#234=IFCBUILDINGELEMENTPROXY('1G$tmcKuf28AzoURWQKaqL',#12,'FrontWindow_2',$,'BuildingPart',#233,#232,$,$);
#235=IFCINDEXEDPOLYGONALFACE((1,2,3,4));
#236=IFCINDEXEDPOLYGONALFACE((5,6,7,8));
#237=IFCINDEXEDPOLYGONALFACE((1,5,8,2));
#238=IFCINDEXEDPOLYGONALFACE((2,8,7,3));
#239=IFCINDEXEDPOLYGONALFACE((3,7,6,4));
#240=IFCINDEXEDPOLYGONALFACE((4,6,5,1));
#241=IFCCARTESIANPOINTLIST3D(((-0.01,2.5,0.91),(0.07,2.5,0.91),(0.07,3.7199999999999998,0.91),(-0.01,3.7199999999999998,0.91),(-0.01,2.5,1.82),(-0.01,3.7199999999999998,1.82),(0.07,3.7199999999999998,1.82),(0.07,2.5,1.82)));
#242=IFCPOLYGONALFACESET(#241,.T.,(#235,#236,#237,#238,#239,#240),$);
#243=IFCSTYLEDITEM(#242,(#216),$);
#244=IFCSHAPEREPRESENTATION(#7,'Body','Tessellation',(#242));
#245=IFCPRODUCTDEFINITIONSHAPE($,$,(#244));
#246=IFCLOCALPLACEMENT($,#6);
#247=IFCBUILDINGELEMENTPROXY('3Vmsyoecz5UxRwS$iM1A8u',#12,'SideWindow_1',$,'BuildingPart',#246,#245,$,$);
#248=IFCINDEXEDPOLYGONALFACE((1,2,3,4));
#249=IFCINDEXEDPOLYGONALFACE((5,6,7,8));
#250=IFCINDEXEDPOLYGONALFACE((1,5,8,2));
#251=IFCINDEXEDPOLYGONALFACE((2,8,7,3));
#252=IFCINDEXEDPOLYGONALFACE((3,7,6,4));
#253=IFCINDEXEDPOLYGONALFACE((4,6,5,1));
#254=IFCCARTESIANPOINTLIST3D(((9.07,2.5,0.91),(9.15,2.5,0.91),(9.15,3.7199999999999998,0.91),(9.07,3.7199999999999998,0.91),(9.07,2.5,1.82),(9.07,3.7199999999999998,1.82),(9.15,3.7199999999999998,1.82),(9.15,2.5,1.82)));
#255=IFCPOLYGONALFACESET(#254,.T.,(#248,#249,#250,#251,#252,#253),$);
#256=IFCSTYLEDITEM(#255,(#216),$);
#257=IFCSHAPEREPRESENTATION(#7,'Body','Tessellation',(#255));
#258=IFCPRODUCTDEFINITIONSHAPE($,$,(#257));
#259=IFCLOCALPLACEMENT($,#6);
#260=IFCBUILDINGELEMENTPROXY('0feG1QT9nFIfjN4pjJ_FRc',#12,'SideWindow_2',$,'BuildingPart',#259,#258,$,$);
#261=IFCINDEXEDPOLYGONALFACE((1,2,3,4));
#262=IFCINDEXEDPOLYGONALFACE((1,4,5));
#263=IFCINDEXEDPOLYGONALFACE((2,6,3));
#264=IFCINDEXEDPOLYGONALFACE((4,3,6,5));
#265=IFCINDEXEDPOLYGONALFACE((1,5,6,2));
#266=IFCCARTESIANPOINTLIST3D(((3.5,1.,0.),(3.5,2.,0.),(6.5,2.,0.),(6.5,1.,0.),(6.5,1.,3.05),(6.5,2.,3.05)));
#267=IFCPOLYGONALFACESET(#266,.T.,(#261,#262,#263,#264,#265),$);
#268=IFCCOLOURRGB($,0.8,0.8,0.8);
#269=IFCSURFACESTYLERENDERING(#268,0.,$,$,$,$,$,$,.NOTDEFINED.);
#270=IFCSURFACESTYLE('Staircase - Light Grey',.BOTH.,(#269));
#271=IFCSTYLEDITEM(#267,(#270),$);
#272=IFCSHAPEREPRESENTATION(#7,'Body','Tessellation',(#267));
#273=IFCPRODUCTDEFINITIONSHAPE($,$,(#272));
#274=IFCLOCALPLACEMENT($,#6);
#275=IFCBUILDINGELEMENTPROXY('0zOFn8YIL2L9IXMGznYd0Q',#12,'InteriorStaircase',$,'BuildingInstallation',#274,#273,$,$);
#276=IFCINDEXEDPOLYGONALFACE((1,2,3,4));
#277=IFCINDEXEDPOLYGONALFACE((5,6,7,8));
#278=IFCINDEXEDPOLYGONALFACE((1,5,8,2));
#279=IFCINDEXEDPOLYGONALFACE((2,8,7,3));
#280=IFCINDEXEDPOLYGONALFACE((3,7,6,4));
#281=IFCINDEXEDPOLYGONALFACE((4,6,5,1));
#282=IFCCARTESIANPOINTLIST3D(((1.5,-1.5,0.),(4.,-1.5,0.),(4.,0.,0.),(1.5,0.,0.),(1.5,-1.5,0.15),(1.5,0.,0.15),(4.,0.,0.15),(4.,-1.5,0.15)));
#283=IFCPOLYGONALFACESET(#282,.T.,(#276,#277,#278,#279,#280,#281),$);
#284=IFCSTYLEDITEM(#283,(#35),$);
#285=IFCSHAPEREPRESENTATION(#7,'Body','Tessellation',(#283));
#286=IFCPRODUCTDEFINITIONSHAPE($,$,(#285));
#287=IFCLOCALPLACEMENT($,#6);
#288=IFCBUILDINGELEMENTPROXY('3$5yPU8rb3R8LuCzzEvl3b',#12,'FrontPorchSlab',$,'BuildingPart',#287,#286,$,$);
#289=IFCINDEXEDPOLYGONALFACE((1,2,3,4));
#290=IFCINDEXEDPOLYGONALFACE((5,6,7,8));
#291=IFCINDEXEDPOLYGONALFACE((1,5,8,2));
#292=IFCINDEXEDPOLYGONALFACE((2,8,7,3));
#293=IFCINDEXEDPOLYGONALFACE((3,7,6,4));
#294=IFCINDEXEDPOLYGONALFACE((4,6,5,1));
#295=IFCCARTESIANPOINTLIST3D(((1.5,-1.5,0.),(1.7,-1.5,0.),(1.7,-1.3,0.),(1.5,-1.3,0.),(1.5,-1.5,3.05),(1.5,-1.3,3.05),(1.7,-1.3,3.05),(1.7,-1.5,3.05)));
#296=IFCPOLYGONALFACESET(#295,.T.,(#289,#290,#291,#292,#293,#294),$);
#297=IFCCOLOURRGB($,0.75,0.75,0.75);
#298=IFCSURFACESTYLERENDERING(#297,0.,$,$,$,$,$,$,.NOTDEFINED.);
#299=IFCSURFACESTYLE('Column - Concrete',.BOTH.,(#298));
#300=IFCSTYLEDITEM(#296,(#299),$);
#301=IFCSHAPEREPRESENTATION(#7,'Body','Tessellation',(#296));
#302=IFCPRODUCTDEFINITIONSHAPE($,$,(#301));
#303=IFCLOCALPLACEMENT($,#6);
#304=IFCBUILDINGELEMENTPROXY('3ik0PiON98rheDj6edvGCq',#12,'PorchColumn_1',$,'BuildingPart',#303,#302,$,$);
#305=IFCINDEXEDPOLYGONALFACE((1,2,3,4));
#306=IFCINDEXEDPOLYGONALFACE((5,6,7,8));
#307=IFCINDEXEDPOLYGONALFACE((1,5,8,2));
#308=IFCINDEXEDPOLYGONALFACE((2,8,7,3));
#309=IFCINDEXEDPOLYGONALFACE((3,7,6,4));
#310=IFCINDEXEDPOLYGONALFACE((4,6,5,1));
#311=IFCCARTESIANPOINTLIST3D(((3.8,-1.5,0.),(4.,-1.5,0.),(4.,-1.3,0.),(3.8,-1.3,0.),(3.8,-1.5,3.05),(3.8,-1.3,3.05),(4.,-1.3,3.05),(4.,-1.5,3.05)));
#312=IFCPOLYGONALFACESET(#311,.T.,(#305,#306,#307,#308,#309,#310),$);
#313=IFCSTYLEDITEM(#312,(#299),$);
#314=IFCSHAPEREPRESENTATION(#7,'Body','Tessellation',(#312));
#315=IFCPRODUCTDEFINITIONSHAPE($,$,(#314));
#316=IFCLOCALPLACEMENT($,#6);
#317=IFCBUILDINGELEMENTPROXY('2wxkJPhhnC99zW_pxm8lZ0',#12,'PorchColumn_2',$,'BuildingPart',#316,#315,$,$);
#318=IFCINDEXEDPOLYGONALFACE((1,2,3,4));
#319=IFCINDEXEDPOLYGONALFACE((1,4,5));
#320=IFCINDEXEDPOLYGONALFACE((2,6,3));
#321=IFCINDEXEDPOLYGONALFACE((4,3,6,5));
#322=IFCINDEXEDPOLYGONALFACE((1,5,6,2));
#323=IFCCARTESIANPOINTLIST3D(((2.,-2.4,0.),(2.,-1.5,0.),(3.5,-1.5,0.),(3.5,-2.4,0.),(3.5,-2.4,0.45),(3.5,-1.5,0.45)));
#324=IFCPOLYGONALFACESET(#323,.T.,(#318,#319,#320,#321,#322),$);
#325=IFCSTYLEDITEM(#324,(#270),$);
#326=IFCSHAPEREPRESENTATION(#7,'Body','Tessellation',(#324));
#327=IFCPRODUCTDEFINITIONSHAPE($,$,(#326));
#328=IFCLOCALPLACEMENT($,#6);
#329=IFCBUILDINGELEMENTPROXY('23RWUMYkTEWOqwEjrQAh38',#12,'PorchSteps',$,'BuildingInstallation',#328,#327,$,$);
#330=IFCINDEXEDPOLYGONALFACE((1,2,3,4));
#331=IFCINDEXEDPOLYGONALFACE((5,6,7,8));
#332=IFCINDEXEDPOLYGONALFACE((1,5,8,2));
#333=IFCINDEXEDPOLYGONALFACE((2,8,7,3));
#334=IFCINDEXEDPOLYGONALFACE((3,7,6,4));
#335=IFCINDEXEDPOLYGONALFACE((4,6,5,1));
#336=IFCCARTESIANPOINTLIST3D(((2.25,-6.4,0.),(3.25,-6.4,0.),(3.25,-2.4000000000000004,0.),(2.25,-2.4000000000000004,0.),(2.25,-6.4,0.05),(2.25,-2.4000000000000004,0.05),(3.25,-2.4000000000000004,0.05),(3.25,-6.4,0.05)));
#337=IFCPOLYGONALFACESET(#336,.T.,(#330,#331,#332,#333,#334,#335),$);
#338=IFCCOLOURRGB($,0.7,0.7,0.7);
#339=IFCSURFACESTYLERENDERING(#338,0.,$,$,$,$,$,$,.NOTDEFINED.);
#340=IFCSURFACESTYLE('Generic Element',.BOTH.,(#339));
#341=IFCSTYLEDITEM(#337,(#340),$);
#342=IFCSHAPEREPRESENTATION(#7,'Body','Tessellation',(#337));
#343=IFCPRODUCTDEFINITIONSHAPE($,$,(#342));
#344=IFCLOCALPLACEMENT($,#6);
#345=IFCBUILDINGELEMENTPROXY('0X9$zKTL5CPfIh_vP5MZIe',#12,'EntrancePathway',$,'BuildingInstallation',#344,#343,$,$);
#346=IFCINDEXEDPOLYGONALFACE((1,2,3,4));
#347=IFCINDEXEDPOLYGONALFACE((5,6,7,8));
#348=IFCINDEXEDPOLYGONALFACE((1,5,8,2));
#349=IFCINDEXEDPOLYGONALFACE((2,8,7,3));
#350=IFCINDEXEDPOLYGONALFACE((3,7,6,4));
#351=IFCINDEXEDPOLYGONALFACE((4,6,5,1));
#352=IFCCARTESIANPOINTLIST3D(((0.,0.,3.05),(9.14,0.,3.05),(9.14,6.1,3.05),(0.,6.1,3.05),(0.,0.,3.25),(0.,6.1,3.25),(9.14,6.1,3.25),(9.14,0.,3.25)));
#353=IFCPOLYGONALFACESET(#352,.T.,(#346,#347,#348,#349,#350,#351),$);
#354=IFCSTYLEDITEM(#353,(#35),$);
#355=IFCSHAPEREPRESENTATION(#7,'Body','Tessellation',(#353));
#356=IFCPRODUCTDEFINITIONSHAPE($,$,(#355));
#357=IFCLOCALPLACEMENT($,#6);
#358=IFCBUILDINGELEMENTPROXY('3PpRBNxmT1yhUkCZradWL0',#12,'FirstFloorSlab',$,'BuildingPart',#357,#356,$,$);
#359=IFCINDEXEDPOLYGONALFACE((1,2,3,4));
#360=IFCINDEXEDPOLYGONALFACE((5,6,7,8));
#361=IFCINDEXEDPOLYGONALFACE((1,5,8,2));
#362=IFCINDEXEDPOLYGONALFACE((2,8,7,3));
#363=IFCINDEXEDPOLYGONALFACE((3,7,6,4));
#364=IFCINDEXEDPOLYGONALFACE((4,6,5,1));
#365=IFCCARTESIANPOINTLIST3D(((0.,0.,3.05),(9.14,0.,3.05),(9.14,0.2,3.05),(0.,0.2,3.05),(0.,0.,6.1),(0.,0.2,6.1),(9.14,0.2,6.1),(9.14,0.,6.1)));
#366=IFCPOLYGONALFACESET(#365,.T.,(#359,#360,#361,#362,#363,#364),$);
#367=IFCSTYLEDITEM(#366,(#51),$);
#368=IFCSHAPEREPRESENTATION(#7,'Body','Tessellation',(#366));
#369=IFCPRODUCTDEFINITIONSHAPE($,$,(#368));
#370=IFCLOCALPLACEMENT($,#6);
#371=IFCBUILDINGELEMENTPROXY('3$oRgvCdH3Wutbf3F1QjAK',#12,'ExteriorWall_FF_Front',$,'BuildingPart',#370,#369,$,$);
#372=IFCINDEXEDPOLYGONALFACE((1,2,3,4));
#373=IFCINDEXEDPOLYGONALFACE((5,6,7,8));
#374=IFCINDEXEDPOLYGONALFACE((1,5,8,2));
#375=IFCINDEXEDPOLYGONALFACE((2,8,7,3));
#376=IFCINDEXEDPOLYGONALFACE((3,7,6,4));
#377=IFCINDEXEDPOLYGONALFACE((4,6,5,1));
#378=IFCCARTESIANPOINTLIST3D(((0.,5.9,3.05),(9.14,5.9,3.05),(9.14,6.1000000000000005,3.05),(0.,6.1000000000000005,3.05),(0.,5.9,6.1),(0.,6.1000000000000005,6.1),(9.14,6.1000000000000005,6.1),(9.14,5.9,6.1)));
#379=IFCPOLYGONALFACESET(#378,.T.,(#372,#373,#374,#375,#376,#377),$);
#380=IFCSTYLEDITEM(#379,(#51),$);
#381=IFCSHAPEREPRESENTATION(#7,'Body','Tessellation',(#379));
#382=IFCPRODUCTDEFINITIONSHAPE($,$,(#381));
#383=IFCLOCALPLACEMENT($,#6);
#384=IFCBUILDINGELEMENTPROXY('3G4jcrlLb6ivbFwaZR92Q4',#12,'ExteriorWall_FF_Rear',$,'BuildingPart',#383,#382,$,$);
#385=IFCINDEXEDPOLYGONALFACE((1,2,3,4));
#386=IFCINDEXEDPOLYGONALFACE((5,6,7,8));
#387=IFCINDEXEDPOLYGONALFACE((1,5,8,2));
#388=IFCINDEXEDPOLYGONALFACE((2,8,7,3));
#389=IFCINDEXEDPOLYGONALFACE((3,7,6,4));
#390=IFCINDEXEDPOLYGONALFACE((4,6,5,1));
#391=IFCCARTESIANPOINTLIST3D(((0.2,0.,3.05),(0.2,6.1,3.05),(0.,6.1,3.05),(0.,0.,3.05),(0.2,0.,6.1),(0.,0.,6.1),(0.,6.1,6.1),(0.2,6.1,6.1)));
#392=IFCPOLYGONALFACESET(#391,.T.,(#385,#386,#387,#388,#389,#390),$);
#393=IFCSTYLEDITEM(#392,(#51),$);
#394=IFCSHAPEREPRESENTATION(#7,'Body','Tessellation',(#392));
#395=IFCPRODUCTDEFINITIONSHAPE($,$,(#394));
#396=IFCLOCALPLACEMENT($,#6);
#397=IFCBUILDINGELEMENTPROXY('1469XXcM9DkQ4Sky65s6yg',#12,'ExteriorWall_FF_Left',$,'BuildingPart',#396,#395,$,$);
#398=IFCINDEXEDPOLYGONALFACE((1,2,3,4));
#399=IFCINDEXEDPOLYGONALFACE((5,6,7,8));
#400=IFCINDEXEDPOLYGONALFACE((1,5,8,2));
#401=IFCINDEXEDPOLYGONALFACE((2,8,7,3));
#402=IFCINDEXEDPOLYGONALFACE((3,7,6,4));
#403=IFCINDEXEDPOLYGONALFACE((4,6,5,1));
#404=IFCCARTESIANPOINTLIST3D(((9.14,0.,3.05),(9.14,6.1,3.05),(8.940000000000001,6.1,3.05),(8.940000000000001,0.,3.05),(9.14,0.,6.1),(8.940000000000001,0.,6.1),(8.940000000000001,6.1,6.1),(9.14,6.1,6.1)));
#405=IFCPOLYGONALFACESET(#404,.T.,(#398,#399,#400,#401,#402,#403),$);
#406=IFCSTYLEDITEM(#405,(#51),$);
#407=IFCSHAPEREPRESENTATION(#7,'Body','Tessellation',(#405));
#408=IFCPRODUCTDEFINITIONSHAPE($,$,(#407));
#409=IFCLOCALPLACEMENT($,#6);
#410=IFCBUILDINGELEMENTPROXY('34XIjrojb2APo1BByhBQTA',#12,'ExteriorWall_FF_Right',$,'BuildingPart',#409,#408,$,$);
#411=IFCINDEXEDPOLYGONALFACE((1,2,3,4));
#412=IFCINDEXEDPOLYGONALFACE((5,6,7,8));
#413=IFCINDEXEDPOLYGONALFACE((1,5,8,2));
#414=IFCINDEXEDPOLYGONALFACE((2,8,7,3));
#415=IFCINDEXEDPOLYGONALFACE((3,7,6,4));
#416=IFCINDEXEDPOLYGONALFACE((4,6,5,1));
#417=IFCCARTESIANPOINTLIST3D(((1.5,-1.2,3.05),(4.,-1.2,3.05),(4.,0.,3.05),(1.5,0.,3.05),(1.5,-1.2,3.1999999999999997),(1.5,0.,3.1999999999999997),(4.,0.,3.1999999999999997),(4.,-1.2,3.1999999999999997)));
#418=IFCPOLYGONALFACESET(#417,.T.,(#411,#412,#413,#414,#415,#416),$);
#419=IFCSTYLEDITEM(#418,(#35),$);
#420=IFCSHAPEREPRESENTATION(#7,'Body','Tessellation',(#418));
#421=IFCPRODUCTDEFINITIONSHAPE($,$,(#420));
#422=IFCLOCALPLACEMENT($,#6);
#423=IFCBUILDINGELEMENTPROXY('3QVur20356jxkOOgHQO8$w',#12,'BalconySlab',$,'BuildingPart',#422,#421,$,$);
#424=IFCINDEXEDPOLYGONALFACE((1,2,3,4));
#425=IFCINDEXEDPOLYGONALFACE((5,6,7,8));
#426=IFCINDEXEDPOLYGONALFACE((1,5,8,2));
#427=IFCINDEXEDPOLYGONALFACE((2,8,7,3));
#428=IFCINDEXEDPOLYGONALFACE((3,7,6,4));
#429=IFCINDEXEDPOLYGONALFACE((4,6,5,1));
#430=IFCCARTESIANPOINTLIST3D(((1.8,-0.01,3.05),(2.71,-0.01,3.05),(2.71,0.07,3.05),(1.8,0.07,3.05),(1.8,-0.01,5.18),(1.8,0.07,5.18),(2.71,0.07,5.18),(2.71,-0.01,5.18)));
#431=IFCPOLYGONALFACESET(#430,.T.,(#424,#425,#426,#427,#428,#429),$);
#432=IFCSTYLEDITEM(#431,(#174),$);
#433=IFCSHAPEREPRESENTATION(#7,'Body','Tessellation',(#431));
#434=IFCPRODUCTDEFINITIONSHAPE($,$,(#433));
#435=IFCLOCALPLACEMENT($,#6);
#436=IFCBUILDINGELEMENTPROXY('1ci8ax_RT3C99aG4QCABHi',#12,'BalconyDoor',$,'BuildingPart',#435,#434,$,$);
#437=IFCINDEXEDPOLYGONALFACE((1,2,3,4));
#438=IFCINDEXEDPOLYGONALFACE((5,6,7,8));
#439=IFCINDEXEDPOLYGONALFACE((1,5,8,2));
#440=IFCINDEXEDPOLYGONALFACE((2,8,7,3));
#441=IFCINDEXEDPOLYGONALFACE((3,7,6,4));
#442=IFCINDEXEDPOLYGONALFACE((4,6,5,1));
#443=IFCCARTESIANPOINTLIST3D(((0.4,-0.01,3.96),(1.62,-0.01,3.96),(1.62,0.07,3.96),(0.4,0.07,3.96),(0.4,-0.01,4.87),(0.4,0.07,4.87),(1.62,0.07,4.87),(1.62,-0.01,4.87)));
#444=IFCPOLYGONALFACESET(#443,.T.,(#437,#438,#439,#440,#441,#442),$);
#445=IFCSTYLEDITEM(#444,(#216),$);
#446=IFCSHAPEREPRESENTATION(#7,'Body','Tessellation',(#444));
#447=IFCPRODUCTDEFINITIONSHAPE($,$,(#446));
#448=IFCLOCALPLACEMENT($,#6);
#449=IFCBUILDINGELEMENTPROXY('1bub3ogP9Byeb39F8lJZhI',#12,'UpperFloorWindow_1',$,'BuildingPart',#448,#447,$,$);
#450=IFCINDEXEDPOLYGONALFACE((1,2,3,4));
#451=IFCINDEXEDPOLYGONALFACE((5,6,7,8));
#452=IFCINDEXEDPOLYGONALFACE((1,5,8,2));
#453=IFCINDEXEDPOLYGONALFACE((2,8,7,3));
#454=IFCINDEXEDPOLYGONALFACE((3,7,6,4));
#455=IFCINDEXEDPOLYGONALFACE((4,6,5,1));
#456=IFCCARTESIANPOINTLIST3D(((3.,-0.01,3.96),(4.22,-0.01,3.96),(4.22,0.07,3.96),(3.,0.07,3.96),(3.,-0.01,4.87),(3.,0.07,4.87),(4.22,0.07,4.87),(4.22,-0.01,4.87)));
#457=IFCPOLYGONALFACESET(#456,.T.,(#450,#451,#452,#453,#454,#455),$);
#458=IFCSTYLEDITEM(#457,(#216),$);
#459=IFCSHAPEREPRESENTATION(#7,'Body','Tessellation',(#457));
#460=IFCPRODUCTDEFINITIONSHAPE($,$,(#459));
#461=IFCLOCALPLACEMENT($,#6);
#462=IFCBUILDINGELEMENTPROXY('1lfMFkNkP3pxjRBw9H$LKw',#12,'UpperFloorWindow_2',$,'BuildingPart',#461,#460,$,$);
#463=IFCINDEXEDPOLYGONALFACE((1,2,3,4));
#464=IFCINDEXEDPOLYGONALFACE((5,6,7,8));
#465=IFCINDEXEDPOLYGONALFACE((1,5,8,2));
#466=IFCINDEXEDPOLYGONALFACE((2,8,7,3));
#467=IFCINDEXEDPOLYGONALFACE((3,7,6,4));
#468=IFCINDEXEDPOLYGONALFACE((4,6,5,1));
#469=IFCCARTESIANPOINTLIST3D(((6.,-0.01,3.96),(7.22,-0.01,3.96),(7.22,0.07,3.96),(6.,0.07,3.96),(6.,-0.01,4.87),(6.,0.07,4.87),(7.22,0.07,4.87),(7.22,-0.01,4.87)));
#470=IFCPOLYGONALFACESET(#469,.T.,(#463,#464,#465,#466,#467,#468),$);
#471=IFCSTYLEDITEM(#470,(#216),$);
#472=IFCSHAPEREPRESENTATION(#7,'Body','Tessellation',(#470));
#473=IFCPRODUCTDEFINITIONSHAPE($,$,(#472));
#474=IFCLOCALPLACEMENT($,#6);
#475=IFCBUILDINGELEMENTPROXY('2G0iw9b0H9jeaK7YblVvA3',#12,'UpperFloorWindow_3',$,'BuildingPart',#474,#473,$,$);
#476=IFCINDEXEDPOLYGONALFACE((1,2,3,4));
#477=IFCINDEXEDPOLYGONALFACE((1,4,5,6));
#478=IFCINDEXEDPOLYGONALFACE((2,6,5,3));
#479=IFCINDEXEDPOLYGONALFACE((1,6,2));
#480=IFCINDEXEDPOLYGONALFACE((4,3,5));
#481=IFCCARTESIANPOINTLIST3D(((-0.18,-0.2,6.1),(-0.18,6.3,6.1),(9.32,6.3,6.1),(9.32,-0.2,6.1),(9.32,3.05,7.8999999999999995),(-0.18,3.05,7.8999999999999995)));
#482=IFCPOLYGONALFACESET(#481,.T.,(#476,#477,#478,#479,#480),$);
#483=IFCCOLOURRGB($,0.25,0.25,0.25);
#484=IFCSURFACESTYLERENDERING(#483,0.,$,$,$,$,$,$,.NOTDEFINED.);
#485=IFCSURFACESTYLE('Roof - Dark Grey Tile',.BOTH.,(#484));
#486=IFCSTYLEDITEM(#482,(#485),$);
#487=IFCSHAPEREPRESENTATION(#7,'Body','Tessellation',(#482));
#488=IFCPRODUCTDEFINITIONSHAPE($,$,(#487));
#489=IFCLOCALPLACEMENT($,#6);
#490=IFCBUILDINGELEMENTPROXY('3VUZgeTE9BZ9qym7nN1ziF',#12,'SlopedRoof',$,'BuildingPart',#489,#488,$,$);
#491=IFCRELCONTAINEDINSPATIALSTRUCTURE('0lfsWttvbCHQZ_FCdBVV2i',#12,$,$,(#24,#40,#56,#69,#82,#95,#108,#121,#137,#150,#163,#179,#192,#205,#221,#234,#247,#260,#275,#288,#304,#317,#329,#345,#358,#371,#384,#397,#410,#423,#436,#449,#462,#475,#490),#19);
ENDSEC;
END-ISO-10303-21;
