ISO-10303-21;
HEADER;
FILE_DESCRIPTION(('ViewDefinition [CoordinationView]'),'2;1');
FILE_NAME('','2026-10-09T16:16:15',(''),(''),'IfcOpenShell 0.9.0alpha0-8c614fa','IfcOpenShell 0.9.0alpha0-8c614fa','');
FILE_SCHEMA(('IFC4'));
ENDSEC;
DATA;
#1=IFCSIUNIT(*,.LENGTHUNIT.,$,.METRE.);
#2=IFCUNITASSIGNMENT((#1));
#3=IFCCARTESIANPOINT((0.,0.,0.));
#4=IFCDIRECTION((0.,0.,1.));
#5=IFCDIRECTION((1.,0.,0.));
#6=IFCAXIS2PLACEMENT3D(#3,#4,#5);
#7=IFCGEOMETRICREPRESENTATIONCONTEXT($,'Model',3,1.E-05,#6,$);
#8=IFCPERSON($,'Converter',$,$,$,$,$,$);
#9=IFCORGANIZATION($,'CityJSON-to-IFC',$,$,$);
#10=IFCPERSONANDORGANIZATION(#8,#9,$);
#11=IFCAPPLICATION(#9,'1.0','CityJSON to IFC Converter','cityjson_to_ifc');
#12=IFCOWNERHISTORY(#10,#11,$,.ADDED.,$,$,$,1791542775);
#13=IFCPROJECT('0pLyoopLPC1QV5EEFfa1NP',#12,'CityJSON Conversion',$,$,$,$,(#7),#2);
#14=IFCLOCALPLACEMENT($,#6);
#15=IFCSITE('0JHSMaE_bFKRchajMsGkzU',#12,'Site',$,$,#14,$,$,.ELEMENT.,$,$,$,$,$);
#16=IFCLOCALPLACEMENT($,#6);
#17=IFCBUILDING('1zFY7Czg5BGBpSt2OaNq6h',#12,'Building',$,$,#16,$,$,.ELEMENT.,$,$,$);
#18=IFCLOCALPLACEMENT($,#6);
#19=IFCBUILDINGSTOREY('2DBJKfLC17yPAT7tcOxOhO',#12,'Storey',$,$,#18,$,$,.ELEMENT.,$);
#20=IFCRELAGGREGATES('1xwwlp8iLE0w2GoyBU3ZsM',#12,$,$,#13,(#15));
#21=IFCRELAGGREGATES('1TpyNTHlf2R9nBucgbnrlB',#12,$,$,#15,(#17));
#22=IFCRELAGGREGATES('2shba1jWzC$ArzQ$pNPQVp',#12,$,$,#17,(#19));
#23=IFCLOCALPLACEMENT($,#6);
#24=IFCBUILDINGELEMENTPROXY('2Hab$ua0X6987oSEN3wMwy',#12,'House',$,'Building',#23,$,$,$);
#25=IFCINDEXEDPOLYGONALFACE((1,2,3,4));
#26=IFCINDEXEDPOLYGONALFACE((5,6,7,8));
#27=IFCINDEXEDPOLYGONALFACE((1,5,8,2));
#28=IFCINDEXEDPOLYGONALFACE((2,8,7,3));
#29=IFCINDEXEDPOLYGONALFACE((3,7,6,4));
#30=IFCINDEXEDPOLYGONALFACE((4,6,5,1));
#31=IFCCARTESIANPOINTLIST3D(((0.,0.,0.),(9.144,0.,0.),(9.144,6.096,0.),(0.,6.096,0.),(0.,0.,0.2),(0.,6.096,0.2),(9.144,6.096,0.2),(9.144,0.,0.2)));
#32=IFCPOLYGONALFACESET(#31,.T.,(#25,#26,#27,#28,#29,#30),$);
#33=IFCCOLOURRGB($,0.72,0.73,0.71);
#34=IFCSURFACESTYLERENDERING(#33,0.,$,$,$,$,$,$,.NOTDEFINED.);
#35=IFCSURFACESTYLE('Concrete - soft grey',.BOTH.,(#34));
#36=IFCSTYLEDITEM(#32,(#35),$);
#37=IFCSHAPEREPRESENTATION(#7,'Body','Tessellation',(#32));
#38=IFCPRODUCTDEFINITIONSHAPE($,$,(#37));
#39=IFCLOCALPLACEMENT($,#6);
#40=IFCBUILDINGELEMENTPROXY('3CLk968sXDIxVXBGanNmzH',#12,'GroundSlab',$,'BuildingPart',#39,#38,$,$);
#41=IFCINDEXEDPOLYGONALFACE((1,2,3,4));
#42=IFCINDEXEDPOLYGONALFACE((5,6,7,8));
#43=IFCINDEXEDPOLYGONALFACE((1,5,8,2));
#44=IFCINDEXEDPOLYGONALFACE((2,8,7,3));
#45=IFCINDEXEDPOLYGONALFACE((3,7,6,4));
#46=IFCINDEXEDPOLYGONALFACE((4,6,5,1));
#47=IFCCARTESIANPOINTLIST3D(((0.,0.,0.2),(9.144,0.,0.2),(9.144,0.203,0.2),(0.,0.203,0.2),(0.,0.,3.048),(0.,0.203,3.048),(9.144,0.203,3.048),(9.144,0.,3.048)));
#48=IFCPOLYGONALFACESET(#47,.T.,(#41,#42,#43,#44,#45,#46),$);
#49=IFCCOLOURRGB($,0.96,0.91,0.8);
#50=IFCSURFACESTYLERENDERING(#49,0.,$,$,$,$,$,$,.NOTDEFINED.);
#51=IFCSURFACESTYLE('Exterior wall - light cream',.BOTH.,(#50));
#52=IFCSTYLEDITEM(#48,(#51),$);
#53=IFCSHAPEREPRESENTATION(#7,'Body','Tessellation',(#48));
#54=IFCPRODUCTDEFINITIONSHAPE($,$,(#53));
#55=IFCLOCALPLACEMENT($,#6);
#56=IFCBUILDINGELEMENTPROXY('33BDVo_qr0cPWgEG0OY3uP',#12,'GroundFrontWall',$,'BuildingPart',#55,#54,$,$);
#57=IFCINDEXEDPOLYGONALFACE((1,2,3,4));
#58=IFCINDEXEDPOLYGONALFACE((5,6,7,8));
#59=IFCINDEXEDPOLYGONALFACE((1,5,8,2));
#60=IFCINDEXEDPOLYGONALFACE((2,8,7,3));
#61=IFCINDEXEDPOLYGONALFACE((3,7,6,4));
#62=IFCINDEXEDPOLYGONALFACE((4,6,5,1));
#63=IFCCARTESIANPOINTLIST3D(((0.,5.893,0.2),(9.144,5.893,0.2),(9.144,6.096,0.2),(0.,6.096,0.2),(0.,5.893,3.048),(0.,6.096,3.048),(9.144,6.096,3.048),(9.144,5.893,3.048)));
#64=IFCPOLYGONALFACESET(#63,.T.,(#57,#58,#59,#60,#61,#62),$);
#65=IFCSTYLEDITEM(#64,(#51),$);
#66=IFCSHAPEREPRESENTATION(#7,'Body','Tessellation',(#64));
#67=IFCPRODUCTDEFINITIONSHAPE($,$,(#66));
#68=IFCLOCALPLACEMENT($,#6);
#69=IFCBUILDINGELEMENTPROXY('28fyYYmYb2Y8JjVewGZXfu',#12,'GroundRearWall',$,'BuildingPart',#68,#67,$,$);
#70=IFCINDEXEDPOLYGONALFACE((1,2,3,4));
#71=IFCINDEXEDPOLYGONALFACE((5,6,7,8));
#72=IFCINDEXEDPOLYGONALFACE((1,5,8,2));
#73=IFCINDEXEDPOLYGONALFACE((2,8,7,3));
#74=IFCINDEXEDPOLYGONALFACE((3,7,6,4));
#75=IFCINDEXEDPOLYGONALFACE((4,6,5,1));
#76=IFCCARTESIANPOINTLIST3D(((0.203,0.,0.2),(0.203,6.096,0.2),(0.,6.096,0.2),(0.,0.,0.2),(0.203,0.,3.048),(0.,0.,3.048),(0.,6.096,3.048),(0.203,6.096,3.048)));
#77=IFCPOLYGONALFACESET(#76,.T.,(#70,#71,#72,#73,#74,#75),$);
#78=IFCSTYLEDITEM(#77,(#51),$);
#79=IFCSHAPEREPRESENTATION(#7,'Body','Tessellation',(#77));
#80=IFCPRODUCTDEFINITIONSHAPE($,$,(#79));
#81=IFCLOCALPLACEMENT($,#6);
#82=IFCBUILDINGELEMENTPROXY('1DELILtvLBD9NA9EyLTJ_Y',#12,'GroundLeftWall',$,'BuildingPart',#81,#80,$,$);
#83=IFCINDEXEDPOLYGONALFACE((1,2,3,4));
#84=IFCINDEXEDPOLYGONALFACE((5,6,7,8));
#85=IFCINDEXEDPOLYGONALFACE((1,5,8,2));
#86=IFCINDEXEDPOLYGONALFACE((2,8,7,3));
#87=IFCINDEXEDPOLYGONALFACE((3,7,6,4));
#88=IFCINDEXEDPOLYGONALFACE((4,6,5,1));
#89=IFCCARTESIANPOINTLIST3D(((9.144,0.,0.2),(9.144,6.096,0.2),(8.941,6.096,0.2),(8.941,0.,0.2),(9.144,0.,3.048),(8.941,0.,3.048),(8.941,6.096,3.048),(9.144,6.096,3.048)));
#90=IFCPOLYGONALFACESET(#89,.T.,(#83,#84,#85,#86,#87,#88),$);
#91=IFCSTYLEDITEM(#90,(#51),$);
#92=IFCSHAPEREPRESENTATION(#7,'Body','Tessellation',(#90));
#93=IFCPRODUCTDEFINITIONSHAPE($,$,(#92));
#94=IFCLOCALPLACEMENT($,#6);
#95=IFCBUILDINGELEMENTPROXY('2SgRZKa4v6LwlyzpkIv3c4',#12,'GroundRightWall',$,'BuildingPart',#94,#93,$,$);
#96=IFCINDEXEDPOLYGONALFACE((1,2,3,4));
#97=IFCINDEXEDPOLYGONALFACE((5,6,7,8));
#98=IFCINDEXEDPOLYGONALFACE((1,5,8,2));
#99=IFCINDEXEDPOLYGONALFACE((2,8,7,3));
#100=IFCINDEXEDPOLYGONALFACE((3,7,6,4));
#101=IFCINDEXEDPOLYGONALFACE((4,6,5,1));
#102=IFCCARTESIANPOINTLIST3D(((0.203,3.55,0.2),(6.003,3.55,0.2),(6.003,3.67,0.2),(0.203,3.67,0.2),(0.203,3.55,3.048),(0.203,3.67,3.048),(6.003,3.67,3.048),(6.003,3.55,3.048)));
#103=IFCPOLYGONALFACESET(#102,.T.,(#96,#97,#98,#99,#100,#101),$);
#104=IFCSTYLEDITEM(#103,(#51),$);
#105=IFCSHAPEREPRESENTATION(#7,'Body','Tessellation',(#103));
#106=IFCPRODUCTDEFINITIONSHAPE($,$,(#105));
#107=IFCLOCALPLACEMENT($,#6);
#108=IFCBUILDINGELEMENTPROXY('3oSnPk5YrDbQJ3ez7nxhi_',#12,'LivingBedroomPartition',$,'BuildingPart',#107,#106,$,$);
#109=IFCINDEXEDPOLYGONALFACE((1,2,3,4));
#110=IFCINDEXEDPOLYGONALFACE((5,6,7,8));
#111=IFCINDEXEDPOLYGONALFACE((1,5,8,2));
#112=IFCINDEXEDPOLYGONALFACE((2,8,7,3));
#113=IFCINDEXEDPOLYGONALFACE((3,7,6,4));
#114=IFCINDEXEDPOLYGONALFACE((4,6,5,1));
#115=IFCCARTESIANPOINTLIST3D(((6.12,0.203,0.2),(6.12,5.893000000000001,0.2),(6.,5.893000000000001,0.2),(6.,0.203,0.2),(6.12,0.203,3.048),(6.,0.203,3.048),(6.,5.893000000000001,3.048),(6.12,5.893000000000001,3.048)));
#116=IFCPOLYGONALFACESET(#115,.T.,(#109,#110,#111,#112,#113,#114),$);
#117=IFCSTYLEDITEM(#116,(#51),$);
#118=IFCSHAPEREPRESENTATION(#7,'Body','Tessellation',(#116));
#119=IFCPRODUCTDEFINITIONSHAPE($,$,(#118));
#120=IFCLOCALPLACEMENT($,#6);
#121=IFCBUILDINGELEMENTPROXY('3TPbpnus16DAbBE2PTgTtV',#12,'KitchenPartition',$,'BuildingPart',#120,#119,$,$);
#122=IFCINDEXEDPOLYGONALFACE((1,2,3,4));
#123=IFCINDEXEDPOLYGONALFACE((5,6,7,8));
#124=IFCINDEXEDPOLYGONALFACE((1,5,8,2));
#125=IFCINDEXEDPOLYGONALFACE((2,8,7,3));
#126=IFCINDEXEDPOLYGONALFACE((3,7,6,4));
#127=IFCINDEXEDPOLYGONALFACE((4,6,5,1));
#128=IFCCARTESIANPOINTLIST3D(((4.115,-0.03,0.2),(5.029,-0.03,0.2),(5.029,0.05,0.2),(4.115,0.05,0.2),(4.115,-0.03,2.334),(4.115,0.05,2.334),(5.029,0.05,2.334),(5.029,-0.03,2.334)));
#129=IFCPOLYGONALFACESET(#128,.T.,(#122,#123,#124,#125,#126,#127),$);
#130=IFCCOLOURRGB($,0.4,0.26,0.13);
#131=IFCSURFACESTYLERENDERING(#130,0.,$,$,$,$,$,$,.NOTDEFINED.);
#132=IFCSURFACESTYLE('Doors - warm brown timber',.BOTH.,(#131));
#133=IFCSTYLEDITEM(#129,(#132),$);
#134=IFCSHAPEREPRESENTATION(#7,'Body','Tessellation',(#129));
#135=IFCPRODUCTDEFINITIONSHAPE($,$,(#134));
#136=IFCLOCALPLACEMENT($,#6);
#137=IFCBUILDINGELEMENTPROXY('1pyl3NMmH9dP9ERqjwS32u',#12,'MainDoor',$,'BuildingPart',#136,#135,$,$);
#138=IFCINDEXEDPOLYGONALFACE((1,2,3,4));
#139=IFCINDEXEDPOLYGONALFACE((5,6,7,8));
#140=IFCINDEXEDPOLYGONALFACE((1,5,8,2));
#141=IFCINDEXEDPOLYGONALFACE((2,8,7,3));
#142=IFCINDEXEDPOLYGONALFACE((3,7,6,4));
#143=IFCINDEXEDPOLYGONALFACE((4,6,5,1));
#144=IFCCARTESIANPOINTLIST3D(((1.,-0.03,1.114),(2.2190000000000003,-0.03,1.114),(2.2190000000000003,0.05,1.114),(1.,0.05,1.114),(1.,-0.03,2.028),(1.,0.05,2.028),(2.2190000000000003,0.05,2.028),(2.2190000000000003,-0.03,2.028)));
#145=IFCPOLYGONALFACESET(#144,.T.,(#138,#139,#140,#141,#142,#143),$);
#146=IFCCOLOURRGB($,0.68,0.84,0.91);
#147=IFCSURFACESTYLERENDERING(#146,0.3,$,$,$,$,$,$,.NOTDEFINED.);
#148=IFCSURFACESTYLE('Glazing - pale blue glass',.BOTH.,(#147));
#149=IFCSTYLEDITEM(#145,(#148),$);
#150=IFCSHAPEREPRESENTATION(#7,'Body','Tessellation',(#145));
#151=IFCPRODUCTDEFINITIONSHAPE($,$,(#150));
#152=IFCLOCALPLACEMENT($,#6);
#153=IFCBUILDINGELEMENTPROXY('1bImY7NCf7retAM5tx$DLh',#12,'FrontWindowLeft',$,'BuildingPart',#152,#151,$,$);
#154=IFCINDEXEDPOLYGONALFACE((1,2,3,4));
#155=IFCINDEXEDPOLYGONALFACE((5,6,7,8));
#156=IFCINDEXEDPOLYGONALFACE((1,5,8,2));
#157=IFCINDEXEDPOLYGONALFACE((2,8,7,3));
#158=IFCINDEXEDPOLYGONALFACE((3,7,6,4));
#159=IFCINDEXEDPOLYGONALFACE((4,6,5,1));
#160=IFCCARTESIANPOINTLIST3D(((6.925,-0.03,1.114),(8.144,-0.03,1.114),(8.144,0.05,1.114),(6.925,0.05,1.114),(6.925,-0.03,2.028),(6.925,0.05,2.028),(8.144,0.05,2.028),(8.144,-0.03,2.028)));
#161=IFCPOLYGONALFACESET(#160,.T.,(#154,#155,#156,#157,#158,#159),$);
#162=IFCSTYLEDITEM(#161,(#148),$);
#163=IFCSHAPEREPRESENTATION(#7,'Body','Tessellation',(#161));
#164=IFCPRODUCTDEFINITIONSHAPE($,$,(#163));
#165=IFCLOCALPLACEMENT($,#6);
#166=IFCBUILDINGELEMENTPROXY('0$gK6IUf54vgJ3LHq92kE$',#12,'FrontWindowRight',$,'BuildingPart',#165,#164,$,$);
#167=IFCINDEXEDPOLYGONALFACE((1,2,3,4));
#168=IFCINDEXEDPOLYGONALFACE((5,6,7,8));
#169=IFCINDEXEDPOLYGONALFACE((1,5,8,2));
#170=IFCINDEXEDPOLYGONALFACE((2,8,7,3));
#171=IFCINDEXEDPOLYGONALFACE((3,7,6,4));
#172=IFCINDEXEDPOLYGONALFACE((4,6,5,1));
#173=IFCCARTESIANPOINTLIST3D(((-0.03,2.,1.114),(0.05,2.,1.114),(0.05,3.2190000000000003,1.114),(-0.03,3.2190000000000003,1.114),(-0.03,2.,2.028),(-0.03,3.2190000000000003,2.028),(0.05,3.2190000000000003,2.028),(0.05,2.,2.028)));
#174=IFCPOLYGONALFACESET(#173,.T.,(#167,#168,#169,#170,#171,#172),$);
#175=IFCSTYLEDITEM(#174,(#148),$);
#176=IFCSHAPEREPRESENTATION(#7,'Body','Tessellation',(#174));
#177=IFCPRODUCTDEFINITIONSHAPE($,$,(#176));
#178=IFCLOCALPLACEMENT($,#6);
#179=IFCBUILDINGELEMENTPROXY('2BxpnxQrbBJ8Oi1g4AZHy3',#12,'SideWindowLeft',$,'BuildingPart',#178,#177,$,$);
#180=IFCINDEXEDPOLYGONALFACE((1,2,3,4));
#181=IFCINDEXEDPOLYGONALFACE((5,6,7,8));
#182=IFCINDEXEDPOLYGONALFACE((1,5,8,2));
#183=IFCINDEXEDPOLYGONALFACE((2,8,7,3));
#184=IFCINDEXEDPOLYGONALFACE((3,7,6,4));
#185=IFCINDEXEDPOLYGONALFACE((4,6,5,1));
#186=IFCCARTESIANPOINTLIST3D(((9.174,3.4,1.114),(9.254,3.4,1.114),(9.254,4.619,1.114),(9.174,4.619,1.114),(9.174,3.4,2.028),(9.174,4.619,2.028),(9.254,4.619,2.028),(9.254,3.4,2.028)));
#187=IFCPOLYGONALFACESET(#186,.T.,(#180,#181,#182,#183,#184,#185),$);
#188=IFCSTYLEDITEM(#187,(#148),$);
#189=IFCSHAPEREPRESENTATION(#7,'Body','Tessellation',(#187));
#190=IFCPRODUCTDEFINITIONSHAPE($,$,(#189));
#191=IFCLOCALPLACEMENT($,#6);
#192=IFCBUILDINGELEMENTPROXY('2Z5IiWHCv1NApsqLK_xgZB',#12,'SideWindowRight',$,'BuildingPart',#191,#190,$,$);
#193=IFCINDEXEDPOLYGONALFACE((1,2,3,4));
#194=IFCINDEXEDPOLYGONALFACE((1,4,5));
#195=IFCINDEXEDPOLYGONALFACE((2,6,3));
#196=IFCINDEXEDPOLYGONALFACE((4,3,6,5));
#197=IFCINDEXEDPOLYGONALFACE((1,5,6,2));
#198=IFCCARTESIANPOINTLIST3D(((1.2,1.,0.2),(1.2,1.9,0.2),(3.5999999999999996,1.9,0.2),(3.5999999999999996,1.,0.2),(3.5999999999999996,1.,1.65),(3.5999999999999996,1.9,1.65)));
#199=IFCPOLYGONALFACESET(#198,.T.,(#193,#194,#195,#196,#197),$);
#200=IFCCOLOURRGB($,0.83,0.84,0.82);
#201=IFCSURFACESTYLERENDERING(#200,0.,$,$,$,$,$,$,.NOTDEFINED.);
#202=IFCSURFACESTYLE('Stair - pale grey stone',.BOTH.,(#201));
#203=IFCSTYLEDITEM(#199,(#202),$);
#204=IFCSHAPEREPRESENTATION(#7,'Body','Tessellation',(#199));
#205=IFCPRODUCTDEFINITIONSHAPE($,$,(#204));
#206=IFCLOCALPLACEMENT($,#6);
#207=IFCBUILDINGELEMENTPROXY('2uOJUooor6UBwEauIWJ6o$',#12,'LowerStairFlight',$,'BuildingInstallation',#206,#205,$,$);
#208=IFCINDEXEDPOLYGONALFACE((1,2,3,4));
#209=IFCINDEXEDPOLYGONALFACE((1,4,5));
#210=IFCINDEXEDPOLYGONALFACE((2,6,3));
#211=IFCINDEXEDPOLYGONALFACE((4,3,6,5));
#212=IFCINDEXEDPOLYGONALFACE((1,5,6,2));
#213=IFCCARTESIANPOINTLIST3D(((3.5,2.,1.65),(2.6,2.,1.65),(2.6,4.2,1.65),(3.5,4.2,1.65),(3.5,4.2,3.0999999999999996),(2.6,4.2,3.0999999999999996)));
#214=IFCPOLYGONALFACESET(#213,.T.,(#208,#209,#210,#211,#212),$);
#215=IFCSTYLEDITEM(#214,(#202),$);
#216=IFCSHAPEREPRESENTATION(#7,'Body','Tessellation',(#214));
#217=IFCPRODUCTDEFINITIONSHAPE($,$,(#216));
#218=IFCLOCALPLACEMENT($,#6);
#219=IFCBUILDINGELEMENTPROXY('25veMR2nX6Ux80JuRu8bgo',#12,'UpperStairFlight',$,'BuildingInstallation',#218,#217,$,$);
#220=IFCINDEXEDPOLYGONALFACE((1,2,3,4));
#221=IFCINDEXEDPOLYGONALFACE((5,6,7,8));
#222=IFCINDEXEDPOLYGONALFACE((1,5,8,2));
#223=IFCINDEXEDPOLYGONALFACE((2,8,7,3));
#224=IFCINDEXEDPOLYGONALFACE((3,7,6,4));
#225=IFCINDEXEDPOLYGONALFACE((4,6,5,1));
#226=IFCCARTESIANPOINTLIST3D(((3.1,1.7,1.65),(4.1,1.7,1.65),(4.1,2.7,1.65),(3.1,2.7,1.65),(3.1,1.7,1.8099999999999998),(3.1,2.7,1.8099999999999998),(4.1,2.7,1.8099999999999998),(4.1,1.7,1.8099999999999998)));
#227=IFCPOLYGONALFACESET(#226,.T.,(#220,#221,#222,#223,#224,#225),$);
#228=IFCSTYLEDITEM(#227,(#202),$);
#229=IFCSHAPEREPRESENTATION(#7,'Body','Tessellation',(#227));
#230=IFCPRODUCTDEFINITIONSHAPE($,$,(#229));
#231=IFCLOCALPLACEMENT($,#6);
#232=IFCBUILDINGELEMENTPROXY('31vwi6FJn9EPJ6rwpLLsc6',#12,'StairLanding',$,'BuildingInstallation',#231,#230,$,$);
#233=IFCINDEXEDPOLYGONALFACE((1,2,3,4));
#234=IFCINDEXEDPOLYGONALFACE((5,6,7,8));
#235=IFCINDEXEDPOLYGONALFACE((1,5,8,2));
#236=IFCINDEXEDPOLYGONALFACE((2,8,7,3));
#237=IFCINDEXEDPOLYGONALFACE((3,7,6,4));
#238=IFCINDEXEDPOLYGONALFACE((4,6,5,1));
#239=IFCCARTESIANPOINTLIST3D(((1.2,0.97,1.),(3.7,0.97,1.),(3.7,1.03,1.),(1.2,1.03,1.),(1.2,0.97,1.08),(1.2,1.03,1.08),(3.7,1.03,1.08),(3.7,0.97,1.08)));
#240=IFCPOLYGONALFACESET(#239,.T.,(#233,#234,#235,#236,#237,#238),$);
#241=IFCCOLOURRGB($,0.78,0.8,0.81);
#242=IFCSURFACESTYLERENDERING(#241,0.,$,$,$,$,$,$,.NOTDEFINED.);
#243=IFCSURFACESTYLE('Stair rails - light grey metal',.BOTH.,(#242));
#244=IFCSTYLEDITEM(#240,(#243),$);
#245=IFCSHAPEREPRESENTATION(#7,'Body','Tessellation',(#240));
#246=IFCPRODUCTDEFINITIONSHAPE($,$,(#245));
#247=IFCLOCALPLACEMENT($,#6);
#248=IFCBUILDINGELEMENTPROXY('3t89Jc4gfEhOkpQdKLvIIQ',#12,'StairRailLeft',$,'BuildingInstallation',#247,#246,$,$);
#249=IFCINDEXEDPOLYGONALFACE((1,2,3,4));
#250=IFCINDEXEDPOLYGONALFACE((5,6,7,8));
#251=IFCINDEXEDPOLYGONALFACE((1,5,8,2));
#252=IFCINDEXEDPOLYGONALFACE((2,8,7,3));
#253=IFCINDEXEDPOLYGONALFACE((3,7,6,4));
#254=IFCINDEXEDPOLYGONALFACE((4,6,5,1));
#255=IFCCARTESIANPOINTLIST3D(((1.2,1.87,1.65),(3.7,1.87,1.65),(3.7,1.9300000000000002,1.65),(1.2,1.9300000000000002,1.65),(1.2,1.87,1.73),(1.2,1.9300000000000002,1.73),(3.7,1.9300000000000002,1.73),(3.7,1.87,1.73)));
#256=IFCPOLYGONALFACESET(#255,.T.,(#249,#250,#251,#252,#253,#254),$);
#257=IFCSTYLEDITEM(#256,(#243),$);
#258=IFCSHAPEREPRESENTATION(#7,'Body','Tessellation',(#256));
#259=IFCPRODUCTDEFINITIONSHAPE($,$,(#258));
#260=IFCLOCALPLACEMENT($,#6);
#261=IFCBUILDINGELEMENTPROXY('1NdfrJMcjA4QYvUHncK9X5',#12,'StairRailRight',$,'BuildingInstallation',#260,#259,$,$);
#262=IFCINDEXEDPOLYGONALFACE((1,2,3,4));
#263=IFCINDEXEDPOLYGONALFACE((5,6,7,8));
#264=IFCINDEXEDPOLYGONALFACE((1,5,8,2));
#265=IFCINDEXEDPOLYGONALFACE((2,8,7,3));
#266=IFCINDEXEDPOLYGONALFACE((3,7,6,4));
#267=IFCINDEXEDPOLYGONALFACE((4,6,5,1));
#268=IFCCARTESIANPOINTLIST3D(((0.,0.,3.048),(9.144,0.,3.048),(9.144,6.096,3.048),(0.,6.096,3.048),(0.,0.,3.248),(0.,6.096,3.248),(9.144,6.096,3.248),(9.144,0.,3.248)));
#269=IFCPOLYGONALFACESET(#268,.T.,(#262,#263,#264,#265,#266,#267),$);
#270=IFCSTYLEDITEM(#269,(#35),$);
#271=IFCSHAPEREPRESENTATION(#7,'Body','Tessellation',(#269));
#272=IFCPRODUCTDEFINITIONSHAPE($,$,(#271));
#273=IFCLOCALPLACEMENT($,#6);
#274=IFCBUILDINGELEMENTPROXY('11IEnIITD6NAAceGasM384',#12,'UpperSlab',$,'BuildingPart',#273,#272,$,$);
#275=IFCINDEXEDPOLYGONALFACE((1,2,3,4));
#276=IFCINDEXEDPOLYGONALFACE((5,6,7,8));
#277=IFCINDEXEDPOLYGONALFACE((1,5,8,2));
#278=IFCINDEXEDPOLYGONALFACE((2,8,7,3));
#279=IFCINDEXEDPOLYGONALFACE((3,7,6,4));
#280=IFCINDEXEDPOLYGONALFACE((4,6,5,1));
#281=IFCCARTESIANPOINTLIST3D(((3.322,-1.2,3.248),(5.822,-1.2,3.248),(5.822,0.,3.248),(3.322,0.,3.248),(3.322,-1.2,3.4280000000000004),(3.322,0.,3.4280000000000004),(5.822,0.,3.4280000000000004),(5.822,-1.2,3.4280000000000004)));
#282=IFCPOLYGONALFACESET(#281,.T.,(#275,#276,#277,#278,#279,#280),$);
#283=IFCSTYLEDITEM(#282,(#35),$);
#284=IFCSHAPEREPRESENTATION(#7,'Body','Tessellation',(#282));
#285=IFCPRODUCTDEFINITIONSHAPE($,$,(#284));
#286=IFCLOCALPLACEMENT($,#6);
#287=IFCBUILDINGELEMENTPROXY('2GO_qaOez0IxaTK5C_Ocqe',#12,'BalconySlab',$,'BuildingPart',#286,#285,$,$);
#288=IFCINDEXEDPOLYGONALFACE((1,2,3,4));
#289=IFCINDEXEDPOLYGONALFACE((5,6,7,8));
#290=IFCINDEXEDPOLYGONALFACE((1,5,8,2));
#291=IFCINDEXEDPOLYGONALFACE((2,8,7,3));
#292=IFCINDEXEDPOLYGONALFACE((3,7,6,4));
#293=IFCINDEXEDPOLYGONALFACE((4,6,5,1));
#294=IFCCARTESIANPOINTLIST3D(((0.,0.,3.248),(9.144,0.,3.248),(9.144,0.203,3.248),(0.,0.203,3.248),(0.,0.,6.296),(0.,0.203,6.296),(9.144,0.203,6.296),(9.144,0.,6.296)));
#295=IFCPOLYGONALFACESET(#294,.T.,(#288,#289,#290,#291,#292,#293),$);
#296=IFCSTYLEDITEM(#295,(#51),$);
#297=IFCSHAPEREPRESENTATION(#7,'Body','Tessellation',(#295));
#298=IFCPRODUCTDEFINITIONSHAPE($,$,(#297));
#299=IFCLOCALPLACEMENT($,#6);
#300=IFCBUILDINGELEMENTPROXY('15baBCiir0nRt2BHhaA3MM',#12,'UpperFrontWall',$,'BuildingPart',#299,#298,$,$);
#301=IFCINDEXEDPOLYGONALFACE((1,2,3,4));
#302=IFCINDEXEDPOLYGONALFACE((5,6,7,8));
#303=IFCINDEXEDPOLYGONALFACE((1,5,8,2));
#304=IFCINDEXEDPOLYGONALFACE((2,8,7,3));
#305=IFCINDEXEDPOLYGONALFACE((3,7,6,4));
#306=IFCINDEXEDPOLYGONALFACE((4,6,5,1));
#307=IFCCARTESIANPOINTLIST3D(((0.,5.893,3.248),(9.144,5.893,3.248),(9.144,6.096,3.248),(0.,6.096,3.248),(0.,5.893,6.296),(0.,6.096,6.296),(9.144,6.096,6.296),(9.144,5.893,6.296)));
#308=IFCPOLYGONALFACESET(#307,.T.,(#301,#302,#303,#304,#305,#306),$);
#309=IFCSTYLEDITEM(#308,(#51),$);
#310=IFCSHAPEREPRESENTATION(#7,'Body','Tessellation',(#308));
#311=IFCPRODUCTDEFINITIONSHAPE($,$,(#310));
#312=IFCLOCALPLACEMENT($,#6);
#313=IFCBUILDINGELEMENTPROXY('1oVnWn9qjBJf8XalB8HWpC',#12,'UpperRearWall',$,'BuildingPart',#312,#311,$,$);
#314=IFCINDEXEDPOLYGONALFACE((1,2,3,4));
#315=IFCINDEXEDPOLYGONALFACE((5,6,7,8));
#316=IFCINDEXEDPOLYGONALFACE((1,5,8,2));
#317=IFCINDEXEDPOLYGONALFACE((2,8,7,3));
#318=IFCINDEXEDPOLYGONALFACE((3,7,6,4));
#319=IFCINDEXEDPOLYGONALFACE((4,6,5,1));
#320=IFCCARTESIANPOINTLIST3D(((0.203,0.,3.248),(0.203,6.096,3.248),(0.,6.096,3.248),(0.,0.,3.248),(0.203,0.,6.296),(0.,0.,6.296),(0.,6.096,6.296),(0.203,6.096,6.296)));
#321=IFCPOLYGONALFACESET(#320,.T.,(#314,#315,#316,#317,#318,#319),$);
#322=IFCSTYLEDITEM(#321,(#51),$);
#323=IFCSHAPEREPRESENTATION(#7,'Body','Tessellation',(#321));
#324=IFCPRODUCTDEFINITIONSHAPE($,$,(#323));
#325=IFCLOCALPLACEMENT($,#6);
#326=IFCBUILDINGELEMENTPROXY('03TjREk6X2XxIx6wKjJtoU',#12,'UpperLeftWall',$,'BuildingPart',#325,#324,$,$);
#327=IFCINDEXEDPOLYGONALFACE((1,2,3,4));
#328=IFCINDEXEDPOLYGONALFACE((5,6,7,8));
#329=IFCINDEXEDPOLYGONALFACE((1,5,8,2));
#330=IFCINDEXEDPOLYGONALFACE((2,8,7,3));
#331=IFCINDEXEDPOLYGONALFACE((3,7,6,4));
#332=IFCINDEXEDPOLYGONALFACE((4,6,5,1));
#333=IFCCARTESIANPOINTLIST3D(((9.144,0.,3.248),(9.144,6.096,3.248),(8.941,6.096,3.248),(8.941,0.,3.248),(9.144,0.,6.296),(8.941,0.,6.296),(8.941,6.096,6.296),(9.144,6.096,6.296)));
#334=IFCPOLYGONALFACESET(#333,.T.,(#327,#328,#329,#330,#331,#332),$);
#335=IFCSTYLEDITEM(#334,(#51),$);
#336=IFCSHAPEREPRESENTATION(#7,'Body','Tessellation',(#334));
#337=IFCPRODUCTDEFINITIONSHAPE($,$,(#336));
#338=IFCLOCALPLACEMENT($,#6);
#339=IFCBUILDINGELEMENTPROXY('1bXI4qEhjF$BKoBb4XWxzm',#12,'UpperRightWall',$,'BuildingPart',#338,#337,$,$);
#340=IFCINDEXEDPOLYGONALFACE((1,2,3,4));
#341=IFCINDEXEDPOLYGONALFACE((5,6,7,8));
#342=IFCINDEXEDPOLYGONALFACE((1,5,8,2));
#343=IFCINDEXEDPOLYGONALFACE((2,8,7,3));
#344=IFCINDEXEDPOLYGONALFACE((3,7,6,4));
#345=IFCINDEXEDPOLYGONALFACE((4,6,5,1));
#346=IFCCARTESIANPOINTLIST3D(((1.45,-0.03,4.16),(2.669,-0.03,4.16),(2.669,0.05,4.16),(1.45,0.05,4.16),(1.45,-0.03,5.074),(1.45,0.05,5.074),(2.669,0.05,5.074),(2.669,-0.03,5.074)));
#347=IFCPOLYGONALFACESET(#346,.T.,(#340,#341,#342,#343,#344,#345),$);
#348=IFCSTYLEDITEM(#347,(#148),$);
#349=IFCSHAPEREPRESENTATION(#7,'Body','Tessellation',(#347));
#350=IFCPRODUCTDEFINITIONSHAPE($,$,(#349));
#351=IFCLOCALPLACEMENT($,#6);
#352=IFCBUILDINGELEMENTPROXY('2xfpN05cHESQi4$t3jcEyI',#12,'UpperWindowLeft',$,'BuildingPart',#351,#350,$,$);
#353=IFCINDEXEDPOLYGONALFACE((1,2,3,4));
#354=IFCINDEXEDPOLYGONALFACE((5,6,7,8));
#355=IFCINDEXEDPOLYGONALFACE((1,5,8,2));
#356=IFCINDEXEDPOLYGONALFACE((2,8,7,3));
#357=IFCINDEXEDPOLYGONALFACE((3,7,6,4));
#358=IFCINDEXEDPOLYGONALFACE((4,6,5,1));
#359=IFCCARTESIANPOINTLIST3D(((4.,-0.03,4.16),(5.219,-0.03,4.16),(5.219,0.05,4.16),(4.,0.05,4.16),(4.,-0.03,5.074),(4.,0.05,5.074),(5.219,0.05,5.074),(5.219,-0.03,5.074)));
#360=IFCPOLYGONALFACESET(#359,.T.,(#353,#354,#355,#356,#357,#358),$);
#361=IFCSTYLEDITEM(#360,(#148),$);
#362=IFCSHAPEREPRESENTATION(#7,'Body','Tessellation',(#360));
#363=IFCPRODUCTDEFINITIONSHAPE($,$,(#362));
#364=IFCLOCALPLACEMENT($,#6);
#365=IFCBUILDINGELEMENTPROXY('3wGE40goXDEveoeeIUaEBN',#12,'UpperWindowCenter',$,'BuildingPart',#364,#363,$,$);
#366=IFCINDEXEDPOLYGONALFACE((1,2,3,4));
#367=IFCINDEXEDPOLYGONALFACE((5,6,7,8));
#368=IFCINDEXEDPOLYGONALFACE((1,5,8,2));
#369=IFCINDEXEDPOLYGONALFACE((2,8,7,3));
#370=IFCINDEXEDPOLYGONALFACE((3,7,6,4));
#371=IFCINDEXEDPOLYGONALFACE((4,6,5,1));
#372=IFCCARTESIANPOINTLIST3D(((6.7,-0.03,4.16),(7.9190000000000005,-0.03,4.16),(7.9190000000000005,0.05,4.16),(6.7,0.05,4.16),(6.7,-0.03,5.074),(6.7,0.05,5.074),(7.9190000000000005,0.05,5.074),(7.9190000000000005,-0.03,5.074)));
#373=IFCPOLYGONALFACESET(#372,.T.,(#366,#367,#368,#369,#370,#371),$);
#374=IFCSTYLEDITEM(#373,(#148),$);
#375=IFCSHAPEREPRESENTATION(#7,'Body','Tessellation',(#373));
#376=IFCPRODUCTDEFINITIONSHAPE($,$,(#375));
#377=IFCLOCALPLACEMENT($,#6);
#378=IFCBUILDINGELEMENTPROXY('01YJrmjBD9bRU3Fu1VIWIh',#12,'UpperWindowRight',$,'BuildingPart',#377,#376,$,$);
#379=IFCINDEXEDPOLYGONALFACE((1,2,3,4));
#380=IFCINDEXEDPOLYGONALFACE((5,6,7,8));
#381=IFCINDEXEDPOLYGONALFACE((1,5,8,2));
#382=IFCINDEXEDPOLYGONALFACE((2,8,7,3));
#383=IFCINDEXEDPOLYGONALFACE((3,7,6,4));
#384=IFCINDEXEDPOLYGONALFACE((4,6,5,1));
#385=IFCCARTESIANPOINTLIST3D(((4.115,-0.03,3.248),(5.029,-0.03,3.248),(5.029,0.05,3.248),(4.115,0.05,3.248),(4.115,-0.03,5.382),(4.115,0.05,5.382),(5.029,0.05,5.382),(5.029,-0.03,5.382)));
#386=IFCPOLYGONALFACESET(#385,.T.,(#379,#380,#381,#382,#383,#384),$);
#387=IFCSTYLEDITEM(#386,(#132),$);
#388=IFCSHAPEREPRESENTATION(#7,'Body','Tessellation',(#386));
#389=IFCPRODUCTDEFINITIONSHAPE($,$,(#388));
#390=IFCLOCALPLACEMENT($,#6);
#391=IFCBUILDINGELEMENTPROXY('05l78MNfjES9cZD6mX_qi8',#12,'BalconyDoor',$,'BuildingPart',#390,#389,$,$);
#392=IFCINDEXEDPOLYGONALFACE((1,2,3,4));
#393=IFCINDEXEDPOLYGONALFACE((1,4,5,6));
#394=IFCINDEXEDPOLYGONALFACE((2,6,5,3));
#395=IFCINDEXEDPOLYGONALFACE((1,6,2));
#396=IFCINDEXEDPOLYGONALFACE((4,3,5));
#397=IFCCARTESIANPOINTLIST3D(((-0.2,-0.2,6.296),(-0.2,6.296,6.296),(9.344000000000001,6.296,6.296),(9.344000000000001,-0.2,6.296),(9.344000000000001,3.048,8.096),(-0.2,3.048,8.096)));
#398=IFCPOLYGONALFACESET(#397,.T.,(#392,#393,#394,#395,#396),$);
#399=IFCCOLOURRGB($,0.22,0.24,0.26);
#400=IFCSURFACESTYLERENDERING(#399,0.,$,$,$,$,$,$,.NOTDEFINED.);
#401=IFCSURFACESTYLE('Roof - charcoal grey tiles',.BOTH.,(#400));
#402=IFCSTYLEDITEM(#398,(#401),$);
#403=IFCSHAPEREPRESENTATION(#7,'Body','Tessellation',(#398));
#404=IFCPRODUCTDEFINITIONSHAPE($,$,(#403));
#405=IFCLOCALPLACEMENT($,#6);
#406=IFCBUILDINGELEMENTPROXY('0eU4TfLRL1W9AZp_5bFUcU',#12,'PitchedRoof',$,'BuildingPart',#405,#404,$,$);
#407=IFCINDEXEDPOLYGONALFACE((1,2,3,4));
#408=IFCINDEXEDPOLYGONALFACE((5,6,7,8));
#409=IFCINDEXEDPOLYGONALFACE((1,5,8,2));
#410=IFCINDEXEDPOLYGONALFACE((2,8,7,3));
#411=IFCINDEXEDPOLYGONALFACE((3,7,6,4));
#412=IFCINDEXEDPOLYGONALFACE((4,6,5,1));
#413=IFCCARTESIANPOINTLIST3D(((3.,-1.5,0.2),(6.2,-1.5,0.2),(6.2,0.,0.2),(3.,0.,0.2),(3.,-1.5,0.4),(3.,0.,0.4),(6.2,0.,0.4),(6.2,-1.5,0.4)));
#414=IFCPOLYGONALFACESET(#413,.T.,(#407,#408,#409,#410,#411,#412),$);
#415=IFCSTYLEDITEM(#414,(#35),$);
#416=IFCSHAPEREPRESENTATION(#7,'Body','Tessellation',(#414));
#417=IFCPRODUCTDEFINITIONSHAPE($,$,(#416));
#418=IFCLOCALPLACEMENT($,#6);
#419=IFCBUILDINGELEMENTPROXY('1SkT34aKDFFA2FUvx8FHrA',#12,'PorchSlab',$,'BuildingPart',#418,#417,$,$);
#420=IFCINDEXEDPOLYGONALFACE((1,2,3,4));
#421=IFCINDEXEDPOLYGONALFACE((5,6,7,8));
#422=IFCINDEXEDPOLYGONALFACE((1,5,8,2));
#423=IFCINDEXEDPOLYGONALFACE((2,8,7,3));
#424=IFCINDEXEDPOLYGONALFACE((3,7,6,4));
#425=IFCINDEXEDPOLYGONALFACE((4,6,5,1));
#426=IFCCARTESIANPOINTLIST3D(((3.3,-1.4,0.2),(3.55,-1.4,0.2),(3.55,-1.15,0.2),(3.3,-1.15,0.2),(3.3,-1.4,3.),(3.3,-1.15,3.),(3.55,-1.15,3.),(3.55,-1.4,3.)));
#427=IFCPOLYGONALFACESET(#426,.T.,(#420,#421,#422,#423,#424,#425),$);
#428=IFCSTYLEDITEM(#427,(#35),$);
#429=IFCSHAPEREPRESENTATION(#7,'Body','Tessellation',(#427));
#430=IFCPRODUCTDEFINITIONSHAPE($,$,(#429));
#431=IFCLOCALPLACEMENT($,#6);
#432=IFCBUILDINGELEMENTPROXY('0pQZD$Kkz5ZxR2nkS74fKp',#12,'PorchColumnLeft',$,'BuildingPart',#431,#430,$,$);
#433=IFCINDEXEDPOLYGONALFACE((1,2,3,4));
#434=IFCINDEXEDPOLYGONALFACE((5,6,7,8));
#435=IFCINDEXEDPOLYGONALFACE((1,5,8,2));
#436=IFCINDEXEDPOLYGONALFACE((2,8,7,3));
#437=IFCINDEXEDPOLYGONALFACE((3,7,6,4));
#438=IFCINDEXEDPOLYGONALFACE((4,6,5,1));
#439=IFCCARTESIANPOINTLIST3D(((5.65,-1.4,0.2),(5.9,-1.4,0.2),(5.9,-1.15,0.2),(5.65,-1.15,0.2),(5.65,-1.4,3.),(5.65,-1.15,3.),(5.9,-1.15,3.),(5.9,-1.4,3.)));
#440=IFCPOLYGONALFACESET(#439,.T.,(#433,#434,#435,#436,#437,#438),$);
#441=IFCSTYLEDITEM(#440,(#35),$);
#442=IFCSHAPEREPRESENTATION(#7,'Body','Tessellation',(#440));
#443=IFCPRODUCTDEFINITIONSHAPE($,$,(#442));
#444=IFCLOCALPLACEMENT($,#6);
#445=IFCBUILDINGELEMENTPROXY('1tr969XE59_fr$LEjz1YTY',#12,'PorchColumnRight',$,'BuildingPart',#444,#443,$,$);
#446=IFCINDEXEDPOLYGONALFACE((1,2,3,4));
#447=IFCINDEXEDPOLYGONALFACE((5,6,7,8));
#448=IFCINDEXEDPOLYGONALFACE((1,5,8,2));
#449=IFCINDEXEDPOLYGONALFACE((2,8,7,3));
#450=IFCINDEXEDPOLYGONALFACE((3,7,6,4));
#451=IFCINDEXEDPOLYGONALFACE((4,6,5,1));
#452=IFCCARTESIANPOINTLIST3D(((3.65,-1.95,0.2),(5.45,-1.95,0.2),(5.45,-1.2999999999999998,0.2),(3.65,-1.2999999999999998,0.2),(3.65,-1.95,0.5),(3.65,-1.2999999999999998,0.5),(5.45,-1.2999999999999998,0.5),(5.45,-1.95,0.5)));
#453=IFCPOLYGONALFACESET(#452,.T.,(#446,#447,#448,#449,#450,#451),$);
#454=IFCSTYLEDITEM(#453,(#35),$);
#455=IFCSHAPEREPRESENTATION(#7,'Body','Tessellation',(#453));
#456=IFCPRODUCTDEFINITIONSHAPE($,$,(#455));
#457=IFCLOCALPLACEMENT($,#6);
#458=IFCBUILDINGELEMENTPROXY('2GRB5vJsT11fOtfegB7gLU',#12,'EntrySteps',$,'BuildingPart',#457,#456,$,$);
#459=IFCINDEXEDPOLYGONALFACE((1,2,3,4));
#460=IFCINDEXEDPOLYGONALFACE((5,6,7,8));
#461=IFCINDEXEDPOLYGONALFACE((1,5,8,2));
#462=IFCINDEXEDPOLYGONALFACE((2,8,7,3));
#463=IFCINDEXEDPOLYGONALFACE((3,7,6,4));
#464=IFCINDEXEDPOLYGONALFACE((4,6,5,1));
#465=IFCCARTESIANPOINTLIST3D(((3.972,-5.5,0.),(5.172,-5.5,0.),(5.172,-1.5,0.),(3.972,-1.5,0.),(3.972,-5.5,0.12),(3.972,-1.5,0.12),(5.172,-1.5,0.12),(5.172,-5.5,0.12)));
#466=IFCPOLYGONALFACESET(#465,.T.,(#459,#460,#461,#462,#463,#464),$);
#467=IFCCOLOURRGB($,0.62,0.65,0.65);
#468=IFCSURFACESTYLERENDERING(#467,0.,$,$,$,$,$,$,.NOTDEFINED.);
#469=IFCSURFACESTYLE('Path - light grey pavers',.BOTH.,(#468));
#470=IFCSTYLEDITEM(#466,(#469),$);
#471=IFCSHAPEREPRESENTATION(#7,'Body','Tessellation',(#466));
#472=IFCPRODUCTDEFINITIONSHAPE($,$,(#471));
#473=IFCLOCALPLACEMENT($,#6);
#474=IFCBUILDINGELEMENTPROXY('0rPtKwaA952PLjnUk0VDWN',#12,'FrontPath',$,'BuildingPart',#473,#472,$,$);
#475=IFCINDEXEDPOLYGONALFACE((1,2,3,4));
#476=IFCINDEXEDPOLYGONALFACE((5,6,7,8));
#477=IFCINDEXEDPOLYGONALFACE((1,5,8,2));
#478=IFCINDEXEDPOLYGONALFACE((2,8,7,3));
#479=IFCINDEXEDPOLYGONALFACE((3,7,6,4));
#480=IFCINDEXEDPOLYGONALFACE((4,6,5,1));
#481=IFCCARTESIANPOINTLIST3D(((2.,3.52,0.2),(2.85,3.52,0.2),(2.85,3.6,0.2),(2.,3.6,0.2),(2.,3.52,2.3000000000000003),(2.,3.6,2.3000000000000003),(2.85,3.6,2.3000000000000003),(2.85,3.52,2.3000000000000003)));
#482=IFCPOLYGONALFACESET(#481,.T.,(#475,#476,#477,#478,#479,#480),$);
#483=IFCSTYLEDITEM(#482,(#132),$);
#484=IFCSHAPEREPRESENTATION(#7,'Body','Tessellation',(#482));
#485=IFCPRODUCTDEFINITIONSHAPE($,$,(#484));
#486=IFCLOCALPLACEMENT($,#6);
#487=IFCBUILDINGELEMENTPROXY('2gOkzZH$54xPFiDEO$KkP9',#12,'BedroomDoor',$,'BuildingPart',#486,#485,$,$);
#488=IFCINDEXEDPOLYGONALFACE((1,2,3,4));
#489=IFCINDEXEDPOLYGONALFACE((5,6,7,8));
#490=IFCINDEXEDPOLYGONALFACE((1,5,8,2));
#491=IFCINDEXEDPOLYGONALFACE((2,8,7,3));
#492=IFCINDEXEDPOLYGONALFACE((3,7,6,4));
#493=IFCINDEXEDPOLYGONALFACE((4,6,5,1));
#494=IFCCARTESIANPOINTLIST3D(((5.9,0.5,0.2),(6.75,0.5,0.2),(6.75,0.58,0.2),(5.9,0.58,0.2),(5.9,0.5,2.3000000000000003),(5.9,0.58,2.3000000000000003),(6.75,0.58,2.3000000000000003),(6.75,0.5,2.3000000000000003)));
#495=IFCPOLYGONALFACESET(#494,.T.,(#488,#489,#490,#491,#492,#493),$);
#496=IFCSTYLEDITEM(#495,(#132),$);
#497=IFCSHAPEREPRESENTATION(#7,'Body','Tessellation',(#495));
#498=IFCPRODUCTDEFINITIONSHAPE($,$,(#497));
#499=IFCLOCALPLACEMENT($,#6);
#500=IFCBUILDINGELEMENTPROXY('3TXVU3GQz6SvHQ5VPq_QgR',#12,'KitchenDoor',$,'BuildingPart',#499,#498,$,$);
#501=IFCINDEXEDPOLYGONALFACE((1,2,3,4));
#502=IFCINDEXEDPOLYGONALFACE((5,6,7,8));
#503=IFCINDEXEDPOLYGONALFACE((1,5,8,2));
#504=IFCINDEXEDPOLYGONALFACE((2,8,7,3));
#505=IFCINDEXEDPOLYGONALFACE((3,7,6,4));
#506=IFCINDEXEDPOLYGONALFACE((4,6,5,1));
#507=IFCCARTESIANPOINTLIST3D(((0.3,0.3,0.2),(4.3,0.3,0.2),(4.3,3.5,0.2),(0.3,3.5,0.2),(0.3,0.3,2.9000000000000004),(0.3,3.5,2.9000000000000004),(4.3,3.5,2.9000000000000004),(4.3,0.3,2.9000000000000004)));
#508=IFCPOLYGONALFACESET(#507,.T.,(#501,#502,#503,#504,#505,#506),$);
#509=IFCCOLOURRGB($,0.72,0.84,0.7);
#510=IFCSURFACESTYLERENDERING(#509,0.82,$,$,$,$,$,$,.NOTDEFINED.);
#511=IFCSURFACESTYLE('Room volumes - translucent sage',.BOTH.,(#510));
#512=IFCSTYLEDITEM(#508,(#511),$);
#513=IFCSHAPEREPRESENTATION(#7,'Body','Tessellation',(#508));
#514=IFCPRODUCTDEFINITIONSHAPE($,$,(#513));
#515=IFCLOCALPLACEMENT($,#6);
#516=IFCBUILDINGELEMENTPROXY('3Eahssz6L5xh1uXLJ_Bdyj',#12,'LivingRoomVolume',$,'BuildingPart',#515,#514,$,$);
#517=IFCINDEXEDPOLYGONALFACE((1,2,3,4));
#518=IFCINDEXEDPOLYGONALFACE((5,6,7,8));
#519=IFCINDEXEDPOLYGONALFACE((1,5,8,2));
#520=IFCINDEXEDPOLYGONALFACE((2,8,7,3));
#521=IFCINDEXEDPOLYGONALFACE((3,7,6,4));
#522=IFCINDEXEDPOLYGONALFACE((4,6,5,1));
#523=IFCCARTESIANPOINTLIST3D(((0.4,3.8,0.2),(3.6,3.8,0.2),(3.6,6.199999999999999,0.2),(0.4,6.199999999999999,0.2),(0.4,3.8,2.9000000000000004),(0.4,6.199999999999999,2.9000000000000004),(3.6,6.199999999999999,2.9000000000000004),(3.6,3.8,2.9000000000000004)));
#524=IFCPOLYGONALFACESET(#523,.T.,(#517,#518,#519,#520,#521,#522),$);
#525=IFCSTYLEDITEM(#524,(#511),$);
#526=IFCSHAPEREPRESENTATION(#7,'Body','Tessellation',(#524));
#527=IFCPRODUCTDEFINITIONSHAPE($,$,(#526));
#528=IFCLOCALPLACEMENT($,#6);
#529=IFCBUILDINGELEMENTPROXY('1a88lyP1bCiAYQVch0UKLW',#12,'BedroomVolume',$,'BuildingPart',#528,#527,$,$);
#530=IFCINDEXEDPOLYGONALFACE((1,2,3,4));
#531=IFCINDEXEDPOLYGONALFACE((5,6,7,8));
#532=IFCINDEXEDPOLYGONALFACE((1,5,8,2));
#533=IFCINDEXEDPOLYGONALFACE((2,8,7,3));
#534=IFCINDEXEDPOLYGONALFACE((3,7,6,4));
#535=IFCINDEXEDPOLYGONALFACE((4,6,5,1));
#536=IFCCARTESIANPOINTLIST3D(((6.1,0.4,0.2),(8.899999999999999,0.4,0.2),(8.899999999999999,5.2,0.2),(6.1,5.2,0.2),(6.1,0.4,2.9000000000000004),(6.1,5.2,2.9000000000000004),(8.899999999999999,5.2,2.9000000000000004),(8.899999999999999,0.4,2.9000000000000004)));
#537=IFCPOLYGONALFACESET(#536,.T.,(#530,#531,#532,#533,#534,#535),$);
#538=IFCSTYLEDITEM(#537,(#511),$);
#539=IFCSHAPEREPRESENTATION(#7,'Body','Tessellation',(#537));
#540=IFCPRODUCTDEFINITIONSHAPE($,$,(#539));
#541=IFCLOCALPLACEMENT($,#6);
#542=IFCBUILDINGELEMENTPROXY('0a2Wgtxxr86ROdX$_GYR86',#12,'KitchenVolume',$,'BuildingPart',#541,#540,$,$);
#543=IFCRELCONTAINEDINSPATIALSTRUCTURE('0HmUJV1x98qPyzTpjVAVXV',#12,$,$,(#24,#40,#56,#69,#82,#95,#108,#121,#137,#153,#166,#179,#192,#207,#219,#232,#248,#261,#274,#287,#300,#313,#326,#339,#352,#365,#378,#391,#406,#419,#432,#445,#458,#474,#487,#500,#516,#529,#542),#19);
ENDSEC;
END-ISO-10303-21;
