ISO-10303-21;
HEADER;
FILE_DESCRIPTION(('ViewDefinition [CoordinationView]'),'2;1');
FILE_NAME('','2026-10-09T16:10:18',(''),(''),'IfcOpenShell 0.9.0alpha0-8c614fa','IfcOpenShell 0.9.0alpha0-8c614fa','');
FILE_SCHEMA(('IFC4'));
ENDSEC;
DATA;
#1=IFCSIUNIT(*,.LENGTHUNIT.,$,.METRE.);
#2=IFCUNITASSIGNMENT((#1));
#3=IFCCARTESIANPOINT((0.,0.,0.));
#4=IFCDIRECTION((0.,0.,1.));
#5=IFCDIRECTION((1.,0.,0.));
#6=IFCAXIS2PLACEMENT3D(#3,#4,#5);
#7=IFCGEOMETRICREPRESENTATIONCONTEXT($,'Model',3,1.E-05,#6,$);
#8=IFCPERSON($,'Converter',$,$,$,$,$,$);
#9=IFCORGANIZATION($,'CityJSON-to-IFC',$,$,$);
#10=IFCPERSONANDORGANIZATION(#8,#9,$);
#11=IFCAPPLICATION(#9,'1.0','CityJSON to IFC Converter','cityjson_to_ifc');
#12=IFCOWNERHISTORY(#10,#11,$,.ADDED.,$,$,$,1791542418);
#13=IFCPROJECT('1WOv6SjRbACR2DavrV_j9m',#12,'CityJSON Conversion',$,$,$,$,(#7),#2);
#14=IFCLOCALPLACEMENT($,#6);
#15=IFCSITE('3sm_gBlZ98AesKXV4AGSJ3',#12,'Site',$,$,#14,$,$,.ELEMENT.,$,$,$,$,$);
#16=IFCLOCALPLACEMENT($,#6);
#17=IFCBUILDING('0ca1x2mrv7MeUTWXs1LCPR',#12,'Building',$,$,#16,$,$,.ELEMENT.,$,$,$);
#18=IFCLOCALPLACEMENT($,#6);
#19=IFCBUILDINGSTOREY('3xUBb_14H7nu01vAawGVZt',#12,'Storey',$,$,#18,$,$,.ELEMENT.,$);
#20=IFCRELAGGREGATES('04ukekdOf6XxU08XY0BWZs',#12,$,$,#13,(#15));
#21=IFCRELAGGREGATES('12uQH6LSX1k8LSx34So9cS',#12,$,$,#15,(#17));
#22=IFCRELAGGREGATES('1NPHBz16vFGhcjWhKNtfdR',#12,$,$,#17,(#19));
#23=IFCLOCALPLACEMENT($,#6);
#24=IFCBUILDINGELEMENTPROXY('1OsyGm4CLDJBKgXldT7fkk',#12,'Building1',$,'Building',#23,$,$,$);
#25=IFCINDEXEDPOLYGONALFACE((1,2,3,4));
#26=IFCINDEXEDPOLYGONALFACE((5,6,7,8));
#27=IFCINDEXEDPOLYGONALFACE((1,2,6,5));
#28=IFCINDEXEDPOLYGONALFACE((2,3,7,6));
#29=IFCINDEXEDPOLYGONALFACE((3,4,8,7));
#30=IFCINDEXEDPOLYGONALFACE((4,1,5,8));
#31=IFCCARTESIANPOINTLIST3D(((0.,0.,0.),(9.14,0.,0.),(9.14,6.1,0.),(0.,6.1,0.),(0.,0.,0.25),(9.14,0.,0.25),(9.14,6.1,0.25),(0.,6.1,0.25)));
#32=IFCPOLYGONALFACESET(#31,.T.,(#25,#26,#27,#28,#29,#30),$);
#33=IFCCOLOURRGB($,0.75,0.75,0.75);
#34=IFCSURFACESTYLERENDERING(#33,0.,$,$,$,$,$,$,.NOTDEFINED.);
#35=IFCSURFACESTYLE('Slab - Concrete',.BOTH.,(#34));
#36=IFCSTYLEDITEM(#32,(#35),$);
#37=IFCSHAPEREPRESENTATION(#7,'Body','Tessellation',(#32));
#38=IFCPRODUCTDEFINITIONSHAPE($,$,(#37));
#39=IFCLOCALPLACEMENT($,#6);
#40=IFCBUILDINGELEMENTPROXY('21iuNZHJnA5QrJFA24x3oW',#12,'Slab1',$,'BuildingPart',#39,#38,$,$);
#41=IFCINDEXEDPOLYGONALFACE((1,2,3,4));
#42=IFCINDEXEDPOLYGONALFACE((5,6,7,8));
#43=IFCINDEXEDPOLYGONALFACE((1,2,6,5));
#44=IFCINDEXEDPOLYGONALFACE((2,3,7,6));
#45=IFCINDEXEDPOLYGONALFACE((3,4,8,7));
#46=IFCINDEXEDPOLYGONALFACE((4,1,5,8));
#47=IFCCARTESIANPOINTLIST3D(((0.,0.,0.),(9.14,0.,0.),(9.14,0.2,0.),(0.,0.2,0.),(0.,0.,3.05),(9.14,0.,3.05),(9.14,0.2,3.05),(0.,0.2,3.05)));
#48=IFCPOLYGONALFACESET(#47,.T.,(#41,#42,#43,#44,#45,#46),$);
#49=IFCCOLOURRGB($,0.96,0.91,0.8);
#50=IFCSURFACESTYLERENDERING(#49,0.,$,$,$,$,$,$,.NOTDEFINED.);
#51=IFCSURFACESTYLE('Wall - Light Cream',.BOTH.,(#50));
#52=IFCSTYLEDITEM(#48,(#51),$);
#53=IFCSHAPEREPRESENTATION(#7,'Body','Tessellation',(#48));
#54=IFCPRODUCTDEFINITIONSHAPE($,$,(#53));
#55=IFCLOCALPLACEMENT($,#6);
#56=IFCBUILDINGELEMENTPROXY('3oIlE_U699NRnOJkQXHaLR',#12,'Wall1',$,'BuildingPart',#55,#54,$,$);
#57=IFCINDEXEDPOLYGONALFACE((1,2,3,4));
#58=IFCINDEXEDPOLYGONALFACE((5,6,7,8));
#59=IFCINDEXEDPOLYGONALFACE((1,2,6,5));
#60=IFCINDEXEDPOLYGONALFACE((2,3,7,6));
#61=IFCINDEXEDPOLYGONALFACE((3,4,8,7));
#62=IFCINDEXEDPOLYGONALFACE((4,1,5,8));
#63=IFCCARTESIANPOINTLIST3D(((0.,0.3,0.),(9.14,0.3,0.),(9.14,0.5,0.),(0.,0.5,0.),(0.,0.3,3.05),(9.14,0.3,3.05),(9.14,0.5,3.05),(0.,0.5,3.05)));
#64=IFCPOLYGONALFACESET(#63,.T.,(#57,#58,#59,#60,#61,#62),$);
#65=IFCSTYLEDITEM(#64,(#51),$);
#66=IFCSHAPEREPRESENTATION(#7,'Body','Tessellation',(#64));
#67=IFCPRODUCTDEFINITIONSHAPE($,$,(#66));
#68=IFCLOCALPLACEMENT($,#6);
#69=IFCBUILDINGELEMENTPROXY('2OivNz9hTCzuxgllZavrEs',#12,'Wall2',$,'BuildingPart',#68,#67,$,$);
#70=IFCINDEXEDPOLYGONALFACE((1,2,3,4));
#71=IFCINDEXEDPOLYGONALFACE((5,6,7,8));
#72=IFCINDEXEDPOLYGONALFACE((1,2,6,5));
#73=IFCINDEXEDPOLYGONALFACE((2,3,7,6));
#74=IFCINDEXEDPOLYGONALFACE((3,4,8,7));
#75=IFCINDEXEDPOLYGONALFACE((4,1,5,8));
#76=IFCCARTESIANPOINTLIST3D(((0.,0.6,0.),(9.14,0.6,0.),(9.14,0.8,0.),(0.,0.8,0.),(0.,0.6,3.05),(9.14,0.6,3.05),(9.14,0.8,3.05),(0.,0.8,3.05)));
#77=IFCPOLYGONALFACESET(#76,.T.,(#70,#71,#72,#73,#74,#75),$);
#78=IFCSTYLEDITEM(#77,(#51),$);
#79=IFCSHAPEREPRESENTATION(#7,'Body','Tessellation',(#77));
#80=IFCPRODUCTDEFINITIONSHAPE($,$,(#79));
#81=IFCLOCALPLACEMENT($,#6);
#82=IFCBUILDINGELEMENTPROXY('2JzjPIy_51MeLdaAP511Aw',#12,'Wall3',$,'BuildingPart',#81,#80,$,$);
#83=IFCINDEXEDPOLYGONALFACE((1,2,3,4));
#84=IFCINDEXEDPOLYGONALFACE((5,6,7,8));
#85=IFCINDEXEDPOLYGONALFACE((1,2,6,5));
#86=IFCINDEXEDPOLYGONALFACE((2,3,7,6));
#87=IFCINDEXEDPOLYGONALFACE((3,4,8,7));
#88=IFCINDEXEDPOLYGONALFACE((4,1,5,8));
#89=IFCCARTESIANPOINTLIST3D(((0.,0.9,0.),(9.14,0.9,0.),(9.14,1.1,0.),(0.,1.1,0.),(0.,0.9,3.05),(9.14,0.9,3.05),(9.14,1.1,3.05),(0.,1.1,3.05)));
#90=IFCPOLYGONALFACESET(#89,.T.,(#83,#84,#85,#86,#87,#88),$);
#91=IFCSTYLEDITEM(#90,(#51),$);
#92=IFCSHAPEREPRESENTATION(#7,'Body','Tessellation',(#90));
#93=IFCPRODUCTDEFINITIONSHAPE($,$,(#92));
#94=IFCLOCALPLACEMENT($,#6);
#95=IFCBUILDINGELEMENTPROXY('0ZMqB6yf19cObtIEblVTVP',#12,'Wall4',$,'BuildingPart',#94,#93,$,$);
#96=IFCINDEXEDPOLYGONALFACE((1,2,3,4));
#97=IFCINDEXEDPOLYGONALFACE((5,6,7,8));
#98=IFCINDEXEDPOLYGONALFACE((1,2,6,5));
#99=IFCINDEXEDPOLYGONALFACE((2,3,7,6));
#100=IFCINDEXEDPOLYGONALFACE((3,4,8,7));
#101=IFCINDEXEDPOLYGONALFACE((4,1,5,8));
#102=IFCCARTESIANPOINTLIST3D(((0.,1.2,0.),(5.,1.2,0.),(5.,1.4,0.),(0.,1.4,0.),(0.,1.2,3.05),(5.,1.2,3.05),(5.,1.4,3.05),(0.,1.4,3.05)));
#103=IFCPOLYGONALFACESET(#102,.T.,(#96,#97,#98,#99,#100,#101),$);
#104=IFCSTYLEDITEM(#103,(#51),$);
#105=IFCSHAPEREPRESENTATION(#7,'Body','Tessellation',(#103));
#106=IFCPRODUCTDEFINITIONSHAPE($,$,(#105));
#107=IFCLOCALPLACEMENT($,#6);
#108=IFCBUILDINGELEMENTPROXY('0HhkifEz9E9gDTSReo8JjS',#12,'Wall5',$,'BuildingPart',#107,#106,$,$);
#109=IFCINDEXEDPOLYGONALFACE((1,2,3,4));
#110=IFCINDEXEDPOLYGONALFACE((5,6,7,8));
#111=IFCINDEXEDPOLYGONALFACE((1,2,6,5));
#112=IFCINDEXEDPOLYGONALFACE((2,3,7,6));
#113=IFCINDEXEDPOLYGONALFACE((3,4,8,7));
#114=IFCINDEXEDPOLYGONALFACE((4,1,5,8));
#115=IFCCARTESIANPOINTLIST3D(((0.,1.5,0.),(5.,1.5,0.),(5.,1.7,0.),(0.,1.7,0.),(0.,1.5,3.05),(5.,1.5,3.05),(5.,1.7,3.05),(0.,1.7,3.05)));
#116=IFCPOLYGONALFACESET(#115,.T.,(#109,#110,#111,#112,#113,#114),$);
#117=IFCSTYLEDITEM(#116,(#51),$);
#118=IFCSHAPEREPRESENTATION(#7,'Body','Tessellation',(#116));
#119=IFCPRODUCTDEFINITIONSHAPE($,$,(#118));
#120=IFCLOCALPLACEMENT($,#6);
#121=IFCBUILDINGELEMENTPROXY('1WaaqbBd9DgP72HjkTD2yT',#12,'Wall6',$,'BuildingPart',#120,#119,$,$);
#122=IFCINDEXEDPOLYGONALFACE((1,2,3,4));
#123=IFCINDEXEDPOLYGONALFACE((5,6,7,8));
#124=IFCINDEXEDPOLYGONALFACE((1,2,6,5));
#125=IFCINDEXEDPOLYGONALFACE((2,3,7,6));
#126=IFCINDEXEDPOLYGONALFACE((3,4,8,7));
#127=IFCINDEXEDPOLYGONALFACE((4,1,5,8));
#128=IFCCARTESIANPOINTLIST3D(((0.,2.,0.),(4.,2.,0.),(4.,5.,0.),(0.,5.,0.),(0.,2.,3.05),(4.,2.,3.05),(4.,5.,3.05),(0.,5.,3.05)));
#129=IFCPOLYGONALFACESET(#128,.T.,(#122,#123,#124,#125,#126,#127),$);
#130=IFCCOLOURRGB($,0.9,0.95,0.85);
#131=IFCSURFACESTYLERENDERING(#130,0.75,$,$,$,$,$,$,.NOTDEFINED.);
#132=IFCSURFACESTYLE('Room Volume',.BOTH.,(#131));
#133=IFCSTYLEDITEM(#129,(#132),$);
#134=IFCSHAPEREPRESENTATION(#7,'Body','Tessellation',(#129));
#135=IFCPRODUCTDEFINITIONSHAPE($,$,(#134));
#136=IFCLOCALPLACEMENT($,#6);
#137=IFCBUILDINGELEMENTPROXY('04_IAUSov73Q6pUsL6oNVJ',#12,'Room1',$,'BuildingPart',#136,#135,$,$);
#138=IFCINDEXEDPOLYGONALFACE((1,2,3,4));
#139=IFCINDEXEDPOLYGONALFACE((5,6,7,8));
#140=IFCINDEXEDPOLYGONALFACE((1,2,6,5));
#141=IFCINDEXEDPOLYGONALFACE((2,3,7,6));
#142=IFCINDEXEDPOLYGONALFACE((3,4,8,7));
#143=IFCINDEXEDPOLYGONALFACE((4,1,5,8));
#144=IFCCARTESIANPOINTLIST3D(((0.,5.2,0.),(4.,5.2,0.),(4.,8.2,0.),(0.,8.2,0.),(0.,5.2,3.05),(4.,5.2,3.05),(4.,8.2,3.05),(0.,8.2,3.05)));
#145=IFCPOLYGONALFACESET(#144,.T.,(#138,#139,#140,#141,#142,#143),$);
#146=IFCSTYLEDITEM(#145,(#132),$);
#147=IFCSHAPEREPRESENTATION(#7,'Body','Tessellation',(#145));
#148=IFCPRODUCTDEFINITIONSHAPE($,$,(#147));
#149=IFCLOCALPLACEMENT($,#6);
#150=IFCBUILDINGELEMENTPROXY('35sWkHuGbF7BT2Opcl1GH$',#12,'Room2',$,'BuildingPart',#149,#148,$,$);
#151=IFCINDEXEDPOLYGONALFACE((1,2,3,4));
#152=IFCINDEXEDPOLYGONALFACE((5,6,7,8));
#153=IFCINDEXEDPOLYGONALFACE((1,2,6,5));
#154=IFCINDEXEDPOLYGONALFACE((2,3,7,6));
#155=IFCINDEXEDPOLYGONALFACE((3,4,8,7));
#156=IFCINDEXEDPOLYGONALFACE((4,1,5,8));
#157=IFCCARTESIANPOINTLIST3D(((4.2,2.,0.),(8.2,2.,0.),(8.2,5.,0.),(4.2,5.,0.),(4.2,2.,3.05),(8.2,2.,3.05),(8.2,5.,3.05),(4.2,5.,3.05)));
#158=IFCPOLYGONALFACESET(#157,.T.,(#151,#152,#153,#154,#155,#156),$);
#159=IFCSTYLEDITEM(#158,(#132),$);
#160=IFCSHAPEREPRESENTATION(#7,'Body','Tessellation',(#158));
#161=IFCPRODUCTDEFINITIONSHAPE($,$,(#160));
#162=IFCLOCALPLACEMENT($,#6);
#163=IFCBUILDINGELEMENTPROXY('0Bykhy0g16cQ$T1QjJAN6u',#12,'Room3',$,'BuildingPart',#162,#161,$,$);
#164=IFCINDEXEDPOLYGONALFACE((1,2,3,4));
#165=IFCINDEXEDPOLYGONALFACE((5,6,7,8));
#166=IFCINDEXEDPOLYGONALFACE((1,2,6,5));
#167=IFCINDEXEDPOLYGONALFACE((2,3,7,6));
#168=IFCINDEXEDPOLYGONALFACE((3,4,8,7));
#169=IFCINDEXEDPOLYGONALFACE((4,1,5,8));
#170=IFCCARTESIANPOINTLIST3D(((0.,0.,0.),(0.2,0.,0.),(0.2,0.91,0.),(0.,0.91,0.),(0.,0.,2.13),(0.2,0.,2.13),(0.2,0.91,2.13),(0.,0.91,2.13)));
#171=IFCPOLYGONALFACESET(#170,.T.,(#164,#165,#166,#167,#168,#169),$);
#172=IFCCOLOURRGB($,0.4,0.26,0.13);
#173=IFCSURFACESTYLERENDERING(#172,0.,$,$,$,$,$,$,.NOTDEFINED.);
#174=IFCSURFACESTYLE('Door - Brown',.BOTH.,(#173));
#175=IFCSTYLEDITEM(#171,(#174),$);
#176=IFCSHAPEREPRESENTATION(#7,'Body','Tessellation',(#171));
#177=IFCPRODUCTDEFINITIONSHAPE($,$,(#176));
#178=IFCLOCALPLACEMENT($,#6);
#179=IFCBUILDINGELEMENTPROXY('0nmyQJSub4OBvB5pvFJ8o2',#12,'Door1',$,'BuildingPart',#178,#177,$,$);
#180=IFCINDEXEDPOLYGONALFACE((1,2,3,4));
#181=IFCINDEXEDPOLYGONALFACE((5,6,7,8));
#182=IFCINDEXEDPOLYGONALFACE((1,2,6,5));
#183=IFCINDEXEDPOLYGONALFACE((2,3,7,6));
#184=IFCINDEXEDPOLYGONALFACE((3,4,8,7));
#185=IFCINDEXEDPOLYGONALFACE((4,1,5,8));
#186=IFCCARTESIANPOINTLIST3D(((0.,1.,0.),(0.2,1.,0.),(0.2,1.91,0.),(0.,1.91,0.),(0.,1.,2.13),(0.2,1.,2.13),(0.2,1.91,2.13),(0.,1.91,2.13)));
#187=IFCPOLYGONALFACESET(#186,.T.,(#180,#181,#182,#183,#184,#185),$);
#188=IFCSTYLEDITEM(#187,(#174),$);
#189=IFCSHAPEREPRESENTATION(#7,'Body','Tessellation',(#187));
#190=IFCPRODUCTDEFINITIONSHAPE($,$,(#189));
#191=IFCLOCALPLACEMENT($,#6);
#192=IFCBUILDINGELEMENTPROXY('24AgDaKsD9Gu31teNYfw2N',#12,'Door2',$,'BuildingPart',#191,#190,$,$);
#193=IFCINDEXEDPOLYGONALFACE((1,2,3,4));
#194=IFCINDEXEDPOLYGONALFACE((5,6,7,8));
#195=IFCINDEXEDPOLYGONALFACE((1,2,6,5));
#196=IFCINDEXEDPOLYGONALFACE((2,3,7,6));
#197=IFCINDEXEDPOLYGONALFACE((3,4,8,7));
#198=IFCINDEXEDPOLYGONALFACE((4,1,5,8));
#199=IFCCARTESIANPOINTLIST3D(((0.,2.,0.),(0.2,2.,0.),(0.2,2.91,0.),(0.,2.91,0.),(0.,2.,2.13),(0.2,2.,2.13),(0.2,2.91,2.13),(0.,2.91,2.13)));
#200=IFCPOLYGONALFACESET(#199,.T.,(#193,#194,#195,#196,#197,#198),$);
#201=IFCSTYLEDITEM(#200,(#174),$);
#202=IFCSHAPEREPRESENTATION(#7,'Body','Tessellation',(#200));
#203=IFCPRODUCTDEFINITIONSHAPE($,$,(#202));
#204=IFCLOCALPLACEMENT($,#6);
#205=IFCBUILDINGELEMENTPROXY('0k3a4Pd65EOPMcsA6zpnZo',#12,'Door3',$,'BuildingPart',#204,#203,$,$);
#206=IFCINDEXEDPOLYGONALFACE((1,2,3,4));
#207=IFCINDEXEDPOLYGONALFACE((5,6,7,8));
#208=IFCINDEXEDPOLYGONALFACE((1,2,6,5));
#209=IFCINDEXEDPOLYGONALFACE((2,3,7,6));
#210=IFCINDEXEDPOLYGONALFACE((3,4,8,7));
#211=IFCINDEXEDPOLYGONALFACE((4,1,5,8));
#212=IFCCARTESIANPOINTLIST3D(((0.,3.,0.),(0.2,3.,0.),(0.2,4.22,0.),(0.,4.22,0.),(0.,3.,0.91),(0.2,3.,0.91),(0.2,4.22,0.91),(0.,4.22,0.91)));
#213=IFCPOLYGONALFACESET(#212,.T.,(#206,#207,#208,#209,#210,#211),$);
#214=IFCCOLOURRGB($,0.75,0.88,0.95);
#215=IFCSURFACESTYLERENDERING(#214,0.35,$,$,$,$,$,$,.NOTDEFINED.);
#216=IFCSURFACESTYLE('Window - Glass',.BOTH.,(#215));
#217=IFCSTYLEDITEM(#213,(#216),$);
#218=IFCSHAPEREPRESENTATION(#7,'Body','Tessellation',(#213));
#219=IFCPRODUCTDEFINITIONSHAPE($,$,(#218));
#220=IFCLOCALPLACEMENT($,#6);
#221=IFCBUILDINGELEMENTPROXY('2Aa_oxz3bCjR3P_VnjnwE5',#12,'Window1',$,'BuildingPart',#220,#219,$,$);
#222=IFCINDEXEDPOLYGONALFACE((1,2,3,4));
#223=IFCINDEXEDPOLYGONALFACE((5,6,7,8));
#224=IFCINDEXEDPOLYGONALFACE((1,2,6,5));
#225=IFCINDEXEDPOLYGONALFACE((2,3,7,6));
#226=IFCINDEXEDPOLYGONALFACE((3,4,8,7));
#227=IFCINDEXEDPOLYGONALFACE((4,1,5,8));
#228=IFCCARTESIANPOINTLIST3D(((0.,4.5,0.),(0.2,4.5,0.),(0.2,5.72,0.),(0.,5.72,0.),(0.,4.5,0.91),(0.2,4.5,0.91),(0.2,5.72,0.91),(0.,5.72,0.91)));
#229=IFCPOLYGONALFACESET(#228,.T.,(#222,#223,#224,#225,#226,#227),$);
#230=IFCSTYLEDITEM(#229,(#216),$);
#231=IFCSHAPEREPRESENTATION(#7,'Body','Tessellation',(#229));
#232=IFCPRODUCTDEFINITIONSHAPE($,$,(#231));
#233=IFCLOCALPLACEMENT($,#6);
#234=IFCBUILDINGELEMENTPROXY('2YUKWjxZb62ev9pDZcdgQ8',#12,'Window2',$,'BuildingPart',#233,#232,$,$);
#235=IFCINDEXEDPOLYGONALFACE((1,2,3,4));
#236=IFCINDEXEDPOLYGONALFACE((5,6,7,8));
#237=IFCINDEXEDPOLYGONALFACE((1,2,6,5));
#238=IFCINDEXEDPOLYGONALFACE((2,3,7,6));
#239=IFCINDEXEDPOLYGONALFACE((3,4,8,7));
#240=IFCINDEXEDPOLYGONALFACE((4,1,5,8));
#241=IFCCARTESIANPOINTLIST3D(((0.,6.,0.),(0.2,6.,0.),(0.2,7.22,0.),(0.,7.22,0.),(0.,6.,0.91),(0.2,6.,0.91),(0.2,7.22,0.91),(0.,7.22,0.91)));
#242=IFCPOLYGONALFACESET(#241,.T.,(#235,#236,#237,#238,#239,#240),$);
#243=IFCSTYLEDITEM(#242,(#216),$);
#244=IFCSHAPEREPRESENTATION(#7,'Body','Tessellation',(#242));
#245=IFCPRODUCTDEFINITIONSHAPE($,$,(#244));
#246=IFCLOCALPLACEMENT($,#6);
#247=IFCBUILDINGELEMENTPROXY('0AXzuvzLL8HBRk2YWQISHB',#12,'Window3',$,'BuildingPart',#246,#245,$,$);
#248=IFCINDEXEDPOLYGONALFACE((1,2,3,4));
#249=IFCINDEXEDPOLYGONALFACE((5,6,7,8));
#250=IFCINDEXEDPOLYGONALFACE((1,2,6,5));
#251=IFCINDEXEDPOLYGONALFACE((2,3,7,6));
#252=IFCINDEXEDPOLYGONALFACE((3,4,8,7));
#253=IFCINDEXEDPOLYGONALFACE((4,1,5,8));
#254=IFCCARTESIANPOINTLIST3D(((0.,7.5,0.),(0.2,7.5,0.),(0.2,8.72,0.),(0.,8.72,0.),(0.,7.5,0.91),(0.2,7.5,0.91),(0.2,8.72,0.91),(0.,8.72,0.91)));
#255=IFCPOLYGONALFACESET(#254,.T.,(#248,#249,#250,#251,#252,#253),$);
#256=IFCSTYLEDITEM(#255,(#216),$);
#257=IFCSHAPEREPRESENTATION(#7,'Body','Tessellation',(#255));
#258=IFCPRODUCTDEFINITIONSHAPE($,$,(#257));
#259=IFCLOCALPLACEMENT($,#6);
#260=IFCBUILDINGELEMENTPROXY('04JndVB3f4BwF4F6tUQJEG',#12,'Window4',$,'BuildingPart',#259,#258,$,$);
#261=IFCINDEXEDPOLYGONALFACE((1,2,3,4));
#262=IFCINDEXEDPOLYGONALFACE((5,6,7,8));
#263=IFCINDEXEDPOLYGONALFACE((1,2,6,5));
#264=IFCINDEXEDPOLYGONALFACE((2,3,7,6));
#265=IFCINDEXEDPOLYGONALFACE((3,4,8,7));
#266=IFCINDEXEDPOLYGONALFACE((4,1,5,8));
#267=IFCCARTESIANPOINTLIST3D(((6.,0.,0.),(9.,0.,0.),(9.,1.,0.),(6.,1.,0.),(6.,0.,3.05),(9.,0.,3.05),(9.,1.,3.05),(6.,1.,3.05)));
#268=IFCPOLYGONALFACESET(#267,.T.,(#261,#262,#263,#264,#265,#266),$);
#269=IFCCOLOURRGB($,0.8,0.8,0.8);
#270=IFCSURFACESTYLERENDERING(#269,0.,$,$,$,$,$,$,.NOTDEFINED.);
#271=IFCSURFACESTYLE('Staircase - Light Grey',.BOTH.,(#270));
#272=IFCSTYLEDITEM(#268,(#271),$);
#273=IFCSHAPEREPRESENTATION(#7,'Body','Tessellation',(#268));
#274=IFCPRODUCTDEFINITIONSHAPE($,$,(#273));
#275=IFCLOCALPLACEMENT($,#6);
#276=IFCBUILDINGELEMENTPROXY('2QR6PV0wT8zwhL6$r$WwHi',#12,'Stair1',$,'BuildingInstallation',#275,#274,$,$);
#277=IFCINDEXEDPOLYGONALFACE((1,2,3,4));
#278=IFCINDEXEDPOLYGONALFACE((5,6,7,8));
#279=IFCINDEXEDPOLYGONALFACE((1,2,6,5));
#280=IFCINDEXEDPOLYGONALFACE((2,3,7,6));
#281=IFCINDEXEDPOLYGONALFACE((3,4,8,7));
#282=IFCINDEXEDPOLYGONALFACE((4,1,5,8));
#283=IFCCARTESIANPOINTLIST3D(((0.,-2.,0.),(2.,-2.,0.),(2.,-0.5,0.),(0.,-0.5,0.),(0.,-2.,0.25),(2.,-2.,0.25),(2.,-0.5,0.25),(0.,-0.5,0.25)));
#284=IFCPOLYGONALFACESET(#283,.T.,(#277,#278,#279,#280,#281,#282),$);
#285=IFCSTYLEDITEM(#284,(#35),$);
#286=IFCSHAPEREPRESENTATION(#7,'Body','Tessellation',(#284));
#287=IFCPRODUCTDEFINITIONSHAPE($,$,(#286));
#288=IFCLOCALPLACEMENT($,#6);
#289=IFCBUILDINGELEMENTPROXY('1tH7zIGLLBfRE8RKwgkbuX',#12,'Slab2',$,'BuildingPart',#288,#287,$,$);
#290=IFCINDEXEDPOLYGONALFACE((1,2,3,4));
#291=IFCINDEXEDPOLYGONALFACE((5,6,7,8));
#292=IFCINDEXEDPOLYGONALFACE((1,2,6,5));
#293=IFCINDEXEDPOLYGONALFACE((2,3,7,6));
#294=IFCINDEXEDPOLYGONALFACE((3,4,8,7));
#295=IFCINDEXEDPOLYGONALFACE((4,1,5,8));
#296=IFCCARTESIANPOINTLIST3D(((0.,-2.,0.),(0.3,-2.,0.),(0.3,-1.7,0.),(0.,-1.7,0.),(0.,-2.,3.05),(0.3,-2.,3.05),(0.3,-1.7,3.05),(0.,-1.7,3.05)));
#297=IFCPOLYGONALFACESET(#296,.T.,(#290,#291,#292,#293,#294,#295),$);
#298=IFCCOLOURRGB($,0.75,0.75,0.75);
#299=IFCSURFACESTYLERENDERING(#298,0.,$,$,$,$,$,$,.NOTDEFINED.);
#300=IFCSURFACESTYLE('Column - Concrete',.BOTH.,(#299));
#301=IFCSTYLEDITEM(#297,(#300),$);
#302=IFCSHAPEREPRESENTATION(#7,'Body','Tessellation',(#297));
#303=IFCPRODUCTDEFINITIONSHAPE($,$,(#302));
#304=IFCLOCALPLACEMENT($,#6);
#305=IFCBUILDINGELEMENTPROXY('2T9QXQcn93UwtPaUQVyowt',#12,'Column1',$,'BuildingPart',#304,#303,$,$);
#306=IFCINDEXEDPOLYGONALFACE((1,2,3,4));
#307=IFCINDEXEDPOLYGONALFACE((5,6,7,8));
#308=IFCINDEXEDPOLYGONALFACE((1,2,6,5));
#309=IFCINDEXEDPOLYGONALFACE((2,3,7,6));
#310=IFCINDEXEDPOLYGONALFACE((3,4,8,7));
#311=IFCINDEXEDPOLYGONALFACE((4,1,5,8));
#312=IFCCARTESIANPOINTLIST3D(((1.7,-2.,0.),(2.,-2.,0.),(2.,-1.7,0.),(1.7,-1.7,0.),(1.7,-2.,3.05),(2.,-2.,3.05),(2.,-1.7,3.05),(1.7,-1.7,3.05)));
#313=IFCPOLYGONALFACESET(#312,.T.,(#306,#307,#308,#309,#310,#311),$);
#314=IFCSTYLEDITEM(#313,(#300),$);
#315=IFCSHAPEREPRESENTATION(#7,'Body','Tessellation',(#313));
#316=IFCPRODUCTDEFINITIONSHAPE($,$,(#315));
#317=IFCLOCALPLACEMENT($,#6);
#318=IFCBUILDINGELEMENTPROXY('1L0LlzW0zFAONyW4KmENxk',#12,'Column2',$,'BuildingPart',#317,#316,$,$);
#319=IFCINDEXEDPOLYGONALFACE((1,2,3,4));
#320=IFCINDEXEDPOLYGONALFACE((5,6,7,8));
#321=IFCINDEXEDPOLYGONALFACE((1,2,6,5));
#322=IFCINDEXEDPOLYGONALFACE((2,3,7,6));
#323=IFCINDEXEDPOLYGONALFACE((3,4,8,7));
#324=IFCINDEXEDPOLYGONALFACE((4,1,5,8));
#325=IFCCARTESIANPOINTLIST3D(((6.,-2.,0.),(7.5,-2.,0.),(7.5,-1.1,0.),(6.,-1.1,0.),(6.,-2.,0.45),(7.5,-2.,0.45),(7.5,-1.1,0.45),(6.,-1.1,0.45)));
#326=IFCPOLYGONALFACESET(#325,.T.,(#319,#320,#321,#322,#323,#324),$);
#327=IFCSTYLEDITEM(#326,(#271),$);
#328=IFCSHAPEREPRESENTATION(#7,'Body','Tessellation',(#326));
#329=IFCPRODUCTDEFINITIONSHAPE($,$,(#328));
#330=IFCLOCALPLACEMENT($,#6);
#331=IFCBUILDINGELEMENTPROXY('1j7bestEb8AO1snfkVaFD7',#12,'Stair2',$,'BuildingInstallation',#330,#329,$,$);
#332=IFCINDEXEDPOLYGONALFACE((1,2,3,4));
#333=IFCINDEXEDPOLYGONALFACE((5,6,7,8));
#334=IFCINDEXEDPOLYGONALFACE((1,2,6,5));
#335=IFCINDEXEDPOLYGONALFACE((2,3,7,6));
#336=IFCINDEXEDPOLYGONALFACE((3,4,8,7));
#337=IFCINDEXEDPOLYGONALFACE((4,1,5,8));
#338=IFCCARTESIANPOINTLIST3D(((0.,-4.,0.),(4.,-4.,0.),(4.,-3.,0.),(0.,-3.,0.),(0.,-4.,0.15),(4.,-4.,0.15),(4.,-3.,0.15),(0.,-3.,0.15)));
#339=IFCPOLYGONALFACESET(#338,.T.,(#332,#333,#334,#335,#336,#337),$);
#340=IFCCOLOURRGB($,0.7,0.7,0.7);
#341=IFCSURFACESTYLERENDERING(#340,0.,$,$,$,$,$,$,.NOTDEFINED.);
#342=IFCSURFACESTYLE('Generic Element',.BOTH.,(#341));
#343=IFCSTYLEDITEM(#339,(#342),$);
#344=IFCSHAPEREPRESENTATION(#7,'Body','Tessellation',(#339));
#345=IFCPRODUCTDEFINITIONSHAPE($,$,(#344));
#346=IFCLOCALPLACEMENT($,#6);
#347=IFCBUILDINGELEMENTPROXY('2e1DWHyofBnAuOaw9VObEs',#12,'Other1',$,'BuildingPart',#346,#345,$,$);
#348=IFCINDEXEDPOLYGONALFACE((1,2,3,4));
#349=IFCINDEXEDPOLYGONALFACE((5,6,7,8));
#350=IFCINDEXEDPOLYGONALFACE((1,2,6,5));
#351=IFCINDEXEDPOLYGONALFACE((2,3,7,6));
#352=IFCINDEXEDPOLYGONALFACE((3,4,8,7));
#353=IFCINDEXEDPOLYGONALFACE((4,1,5,8));
#354=IFCCARTESIANPOINTLIST3D(((0.,0.,3.05),(9.14,0.,3.05),(9.14,6.1,3.05),(0.,6.1,3.05),(0.,0.,3.3),(9.14,0.,3.3),(9.14,6.1,3.3),(0.,6.1,3.3)));
#355=IFCPOLYGONALFACESET(#354,.T.,(#348,#349,#350,#351,#352,#353),$);
#356=IFCSTYLEDITEM(#355,(#35),$);
#357=IFCSHAPEREPRESENTATION(#7,'Body','Tessellation',(#355));
#358=IFCPRODUCTDEFINITIONSHAPE($,$,(#357));
#359=IFCLOCALPLACEMENT($,#6);
#360=IFCBUILDINGELEMENTPROXY('0z_y$oaqPD1R3CHCZtKCkP',#12,'Slab3',$,'BuildingPart',#359,#358,$,$);
#361=IFCINDEXEDPOLYGONALFACE((1,2,3,4));
#362=IFCINDEXEDPOLYGONALFACE((5,6,7,8));
#363=IFCINDEXEDPOLYGONALFACE((1,2,6,5));
#364=IFCINDEXEDPOLYGONALFACE((2,3,7,6));
#365=IFCINDEXEDPOLYGONALFACE((3,4,8,7));
#366=IFCINDEXEDPOLYGONALFACE((4,1,5,8));
#367=IFCCARTESIANPOINTLIST3D(((0.,0.,3.05),(9.14,0.,3.05),(9.14,0.2,3.05),(0.,0.2,3.05),(0.,0.,6.1),(9.14,0.,6.1),(9.14,0.2,6.1),(0.,0.2,6.1)));
#368=IFCPOLYGONALFACESET(#367,.T.,(#361,#362,#363,#364,#365,#366),$);
#369=IFCSTYLEDITEM(#368,(#51),$);
#370=IFCSHAPEREPRESENTATION(#7,'Body','Tessellation',(#368));
#371=IFCPRODUCTDEFINITIONSHAPE($,$,(#370));
#372=IFCLOCALPLACEMENT($,#6);
#373=IFCBUILDINGELEMENTPROXY('0V$M8bV$zDEfnv$eM8oIdx',#12,'Wall7',$,'BuildingPart',#372,#371,$,$);
#374=IFCINDEXEDPOLYGONALFACE((1,2,3,4));
#375=IFCINDEXEDPOLYGONALFACE((5,6,7,8));
#376=IFCINDEXEDPOLYGONALFACE((1,2,6,5));
#377=IFCINDEXEDPOLYGONALFACE((2,3,7,6));
#378=IFCINDEXEDPOLYGONALFACE((3,4,8,7));
#379=IFCINDEXEDPOLYGONALFACE((4,1,5,8));
#380=IFCCARTESIANPOINTLIST3D(((0.,0.3,3.05),(9.14,0.3,3.05),(9.14,0.5,3.05),(0.,0.5,3.05),(0.,0.3,6.1),(9.14,0.3,6.1),(9.14,0.5,6.1),(0.,0.5,6.1)));
#381=IFCPOLYGONALFACESET(#380,.T.,(#374,#375,#376,#377,#378,#379),$);
#382=IFCSTYLEDITEM(#381,(#51),$);
#383=IFCSHAPEREPRESENTATION(#7,'Body','Tessellation',(#381));
#384=IFCPRODUCTDEFINITIONSHAPE($,$,(#383));
#385=IFCLOCALPLACEMENT($,#6);
#386=IFCBUILDINGELEMENTPROXY('1J_DwglpX4ufhRgQD1DroO',#12,'Wall8',$,'BuildingPart',#385,#384,$,$);
#387=IFCINDEXEDPOLYGONALFACE((1,2,3,4));
#388=IFCINDEXEDPOLYGONALFACE((5,6,7,8));
#389=IFCINDEXEDPOLYGONALFACE((1,2,6,5));
#390=IFCINDEXEDPOLYGONALFACE((2,3,7,6));
#391=IFCINDEXEDPOLYGONALFACE((3,4,8,7));
#392=IFCINDEXEDPOLYGONALFACE((4,1,5,8));
#393=IFCCARTESIANPOINTLIST3D(((0.,0.6,3.05),(9.14,0.6,3.05),(9.14,0.8,3.05),(0.,0.8,3.05),(0.,0.6,6.1),(9.14,0.6,6.1),(9.14,0.8,6.1),(0.,0.8,6.1)));
#394=IFCPOLYGONALFACESET(#393,.T.,(#387,#388,#389,#390,#391,#392),$);
#395=IFCSTYLEDITEM(#394,(#51),$);
#396=IFCSHAPEREPRESENTATION(#7,'Body','Tessellation',(#394));
#397=IFCPRODUCTDEFINITIONSHAPE($,$,(#396));
#398=IFCLOCALPLACEMENT($,#6);
#399=IFCBUILDINGELEMENTPROXY('3tkKmD43PDQ8Fi2up0_KOS',#12,'Wall9',$,'BuildingPart',#398,#397,$,$);
#400=IFCINDEXEDPOLYGONALFACE((1,2,3,4));
#401=IFCINDEXEDPOLYGONALFACE((5,6,7,8));
#402=IFCINDEXEDPOLYGONALFACE((1,2,6,5));
#403=IFCINDEXEDPOLYGONALFACE((2,3,7,6));
#404=IFCINDEXEDPOLYGONALFACE((3,4,8,7));
#405=IFCINDEXEDPOLYGONALFACE((4,1,5,8));
#406=IFCCARTESIANPOINTLIST3D(((0.,0.9,3.05),(9.14,0.9,3.05),(9.14,1.1,3.05),(0.,1.1,3.05),(0.,0.9,6.1),(9.14,0.9,6.1),(9.14,1.1,6.1),(0.,1.1,6.1)));
#407=IFCPOLYGONALFACESET(#406,.T.,(#400,#401,#402,#403,#404,#405),$);
#408=IFCSTYLEDITEM(#407,(#51),$);
#409=IFCSHAPEREPRESENTATION(#7,'Body','Tessellation',(#407));
#410=IFCPRODUCTDEFINITIONSHAPE($,$,(#409));
#411=IFCLOCALPLACEMENT($,#6);
#412=IFCBUILDINGELEMENTPROXY('3t5vrii7f5Tw4DOfVxIxfk',#12,'Wall10',$,'BuildingPart',#411,#410,$,$);
#413=IFCINDEXEDPOLYGONALFACE((1,2,3,4));
#414=IFCINDEXEDPOLYGONALFACE((5,6,7,8));
#415=IFCINDEXEDPOLYGONALFACE((1,2,6,5));
#416=IFCINDEXEDPOLYGONALFACE((2,3,7,6));
#417=IFCINDEXEDPOLYGONALFACE((3,4,8,7));
#418=IFCINDEXEDPOLYGONALFACE((4,1,5,8));
#419=IFCCARTESIANPOINTLIST3D(((0.,-1.5,3.05),(2.,-1.5,3.05),(2.,-0.3,3.05),(0.,-0.3,3.05),(0.,-1.5,3.3),(2.,-1.5,3.3),(2.,-0.3,3.3),(0.,-0.3,3.3)));
#420=IFCPOLYGONALFACESET(#419,.T.,(#413,#414,#415,#416,#417,#418),$);
#421=IFCSTYLEDITEM(#420,(#35),$);
#422=IFCSHAPEREPRESENTATION(#7,'Body','Tessellation',(#420));
#423=IFCPRODUCTDEFINITIONSHAPE($,$,(#422));
#424=IFCLOCALPLACEMENT($,#6);
#425=IFCBUILDINGELEMENTPROXY('3F5hDw8uz8o9gsxJVXS6vV',#12,'Slab4',$,'BuildingPart',#424,#423,$,$);
#426=IFCINDEXEDPOLYGONALFACE((1,2,3,4));
#427=IFCINDEXEDPOLYGONALFACE((5,6,7,8));
#428=IFCINDEXEDPOLYGONALFACE((1,2,6,5));
#429=IFCINDEXEDPOLYGONALFACE((2,3,7,6));
#430=IFCINDEXEDPOLYGONALFACE((3,4,8,7));
#431=IFCINDEXEDPOLYGONALFACE((4,1,5,8));
#432=IFCCARTESIANPOINTLIST3D(((0.,0.,3.05),(0.2,0.,3.05),(0.2,0.91,3.05),(0.,0.91,3.05),(0.,0.,5.18),(0.2,0.,5.18),(0.2,0.91,5.18),(0.,0.91,5.18)));
#433=IFCPOLYGONALFACESET(#432,.T.,(#426,#427,#428,#429,#430,#431),$);
#434=IFCSTYLEDITEM(#433,(#174),$);
#435=IFCSHAPEREPRESENTATION(#7,'Body','Tessellation',(#433));
#436=IFCPRODUCTDEFINITIONSHAPE($,$,(#435));
#437=IFCLOCALPLACEMENT($,#6);
#438=IFCBUILDINGELEMENTPROXY('2UBn_FLrz6kfLuBbLiKiR1',#12,'Door4',$,'BuildingPart',#437,#436,$,$);
#439=IFCINDEXEDPOLYGONALFACE((1,2,3,4));
#440=IFCINDEXEDPOLYGONALFACE((5,6,7,8));
#441=IFCINDEXEDPOLYGONALFACE((1,2,6,5));
#442=IFCINDEXEDPOLYGONALFACE((2,3,7,6));
#443=IFCINDEXEDPOLYGONALFACE((3,4,8,7));
#444=IFCINDEXEDPOLYGONALFACE((4,1,5,8));
#445=IFCCARTESIANPOINTLIST3D(((0.,1.5,3.05),(0.2,1.5,3.05),(0.2,2.72,3.05),(0.,2.72,3.05),(0.,1.5,3.96),(0.2,1.5,3.96),(0.2,2.72,3.96),(0.,2.72,3.96)));
#446=IFCPOLYGONALFACESET(#445,.T.,(#439,#440,#441,#442,#443,#444),$);
#447=IFCSTYLEDITEM(#446,(#216),$);
#448=IFCSHAPEREPRESENTATION(#7,'Body','Tessellation',(#446));
#449=IFCPRODUCTDEFINITIONSHAPE($,$,(#448));
#450=IFCLOCALPLACEMENT($,#6);
#451=IFCBUILDINGELEMENTPROXY('0BztIZPuX1cRI1huvXqLBu',#12,'Window5',$,'BuildingPart',#450,#449,$,$);
#452=IFCINDEXEDPOLYGONALFACE((1,2,3,4));
#453=IFCINDEXEDPOLYGONALFACE((5,6,7,8));
#454=IFCINDEXEDPOLYGONALFACE((1,2,6,5));
#455=IFCINDEXEDPOLYGONALFACE((2,3,7,6));
#456=IFCINDEXEDPOLYGONALFACE((3,4,8,7));
#457=IFCINDEXEDPOLYGONALFACE((4,1,5,8));
#458=IFCCARTESIANPOINTLIST3D(((0.,3.,3.05),(0.2,3.,3.05),(0.2,4.22,3.05),(0.,4.22,3.05),(0.,3.,3.96),(0.2,3.,3.96),(0.2,4.22,3.96),(0.,4.22,3.96)));
#459=IFCPOLYGONALFACESET(#458,.T.,(#452,#453,#454,#455,#456,#457),$);
#460=IFCSTYLEDITEM(#459,(#216),$);
#461=IFCSHAPEREPRESENTATION(#7,'Body','Tessellation',(#459));
#462=IFCPRODUCTDEFINITIONSHAPE($,$,(#461));
#463=IFCLOCALPLACEMENT($,#6);
#464=IFCBUILDINGELEMENTPROXY('3S2$bD0$99pRdYX_URfUL1',#12,'Window6',$,'BuildingPart',#463,#462,$,$);
#465=IFCINDEXEDPOLYGONALFACE((1,2,3,4));
#466=IFCINDEXEDPOLYGONALFACE((5,6,7,8));
#467=IFCINDEXEDPOLYGONALFACE((1,2,6,5));
#468=IFCINDEXEDPOLYGONALFACE((2,3,7,6));
#469=IFCINDEXEDPOLYGONALFACE((3,4,8,7));
#470=IFCINDEXEDPOLYGONALFACE((4,1,5,8));
#471=IFCCARTESIANPOINTLIST3D(((0.,4.5,3.05),(0.2,4.5,3.05),(0.2,5.72,3.05),(0.,5.72,3.05),(0.,4.5,3.96),(0.2,4.5,3.96),(0.2,5.72,3.96),(0.,5.72,3.96)));
#472=IFCPOLYGONALFACESET(#471,.T.,(#465,#466,#467,#468,#469,#470),$);
#473=IFCSTYLEDITEM(#472,(#216),$);
#474=IFCSHAPEREPRESENTATION(#7,'Body','Tessellation',(#472));
#475=IFCPRODUCTDEFINITIONSHAPE($,$,(#474));
#476=IFCLOCALPLACEMENT($,#6);
#477=IFCBUILDINGELEMENTPROXY('1U7qzMRxXBKhdLBiQ6O3mi',#12,'Window7',$,'BuildingPart',#476,#475,$,$);
#478=IFCINDEXEDPOLYGONALFACE((1,2,3,4));
#479=IFCINDEXEDPOLYGONALFACE((5,6,7,8));
#480=IFCINDEXEDPOLYGONALFACE((1,2,6,5));
#481=IFCINDEXEDPOLYGONALFACE((2,3,7,6));
#482=IFCINDEXEDPOLYGONALFACE((3,4,8,7));
#483=IFCINDEXEDPOLYGONALFACE((4,1,5,8));
#484=IFCCARTESIANPOINTLIST3D(((0.,0.,3.05),(9.14,0.,3.05),(9.14,6.1,3.05),(0.,6.1,3.05),(0.,0.,4.55),(9.14,0.,4.55),(9.14,6.1,4.55),(0.,6.1,4.55)));
#485=IFCPOLYGONALFACESET(#484,.T.,(#478,#479,#480,#481,#482,#483),$);
#486=IFCCOLOURRGB($,0.25,0.25,0.25);
#487=IFCSURFACESTYLERENDERING(#486,0.,$,$,$,$,$,$,.NOTDEFINED.);
#488=IFCSURFACESTYLE('Roof - Dark Grey Tile',.BOTH.,(#487));
#489=IFCSTYLEDITEM(#485,(#488),$);
#490=IFCSHAPEREPRESENTATION(#7,'Body','Tessellation',(#485));
#491=IFCPRODUCTDEFINITIONSHAPE($,$,(#490));
#492=IFCLOCALPLACEMENT($,#6);
#493=IFCBUILDINGELEMENTPROXY('2om8d65hDF1eSTtg4_D14V',#12,'Roof1',$,'BuildingPart',#492,#491,$,$);
#494=IFCRELCONTAINEDINSPATIALSTRUCTURE('1GfrKk86j3OvNq32xRD1Z6',#12,$,$,(#24,#40,#56,#69,#82,#95,#108,#121,#137,#150,#163,#179,#192,#205,#221,#234,#247,#260,#276,#289,#305,#318,#331,#347,#360,#373,#386,#399,#412,#425,#438,#451,#464,#477,#493),#19);
ENDSEC;
END-ISO-10303-21;
